{"glyphs":{"0":{"ha":906,"x_min":63,"x_max":843,"o":"m 63 521 q 155 142 63 279 q 453 4 247 4 q 751 142 658 4 q 843 521 843 279 q 751 897 843 760 q 453 1035 658 1035 q 155 897 247 1035 q 63 521 63 760 m 610 521 q 599 365 610 426 q 553 265 588 303 q 453 226 519 226 q 352 265 386 226 q 307 365 318 303 q 296 521 296 426 q 326 737 296 661 q 453 813 357 813 q 579 737 549 813 q 610 521 610 661 "},"1":{"ha":522,"x_min":38,"x_max":422,"o":"m 38 793 l 175 793 l 175 0 l 422 0 l 422 1014 l 38 1014 l 38 793 "},"2":{"ha":793,"x_min":51,"x_max":751,"o":"m 54 190 l 54 14 l 751 14 l 751 207 l 376 207 q 635 455 533 328 q 736 731 736 582 q 652 951 736 867 q 403 1036 568 1036 q 228 999 307 1036 q 102 882 150 961 q 51 685 54 803 l 281 685 q 310 797 281 757 q 393 836 340 836 q 472 804 446 836 q 499 715 499 772 q 444 561 499 640 q 312 410 390 482 q 97 225 233 338 q 54 190 101 228 "},"3":{"ha":840,"x_min":58,"x_max":764,"o":"m 71 728 l 303 728 q 333 807 307 775 q 411 839 358 839 q 488 811 460 839 q 515 733 515 783 q 472 647 515 671 q 357 622 428 622 l 313 622 l 313 429 l 357 429 q 492 399 450 429 q 535 303 535 369 q 505 220 535 251 q 421 189 475 189 q 324 224 357 189 q 289 321 290 260 l 58 321 q 163 74 64 156 q 429 -8 263 -8 q 609 29 533 -8 q 724 133 685 67 q 764 285 764 199 q 718 442 764 381 q 593 529 672 503 l 593 535 q 700 613 654 556 q 746 763 746 671 q 708 903 746 840 q 595 1001 669 965 q 417 1038 521 1038 q 168 957 260 1038 q 71 728 76 876 "},"4":{"ha":940,"x_min":68,"x_max":886,"o":"m 68 181 l 535 181 l 535 0 l 772 0 l 772 181 l 886 181 l 886 386 l 772 386 l 772 1000 l 507 1000 l 68 372 l 68 181 m 551 739 l 551 386 l 318 386 l 551 739 "},"5":{"ha":903,"x_min":117,"x_max":835,"o":"m 776 807 l 776 1015 l 128 1015 l 128 411 l 357 411 q 397 472 367 449 q 475 494 428 494 q 572 458 539 494 q 606 354 606 422 q 574 243 606 285 q 476 201 542 201 q 389 230 421 201 q 349 301 357 258 l 117 301 q 165 144 121 213 q 292 38 210 76 q 485 0 374 0 q 743 95 651 0 q 835 353 835 190 q 803 515 835 440 q 702 638 771 590 q 529 685 633 685 q 421 665 471 685 q 343 615 371 646 l 343 807 l 776 807 "},"6":{"ha":885,"x_min":86,"x_max":813,"o":"m 564 740 l 785 740 q 741 886 778 819 q 633 994 704 953 q 457 1035 561 1035 q 174 906 263 1035 q 86 514 86 778 q 169 128 86 263 q 467 -6 253 -6 q 652 38 574 -6 q 772 157 731 81 q 813 335 813 233 q 730 575 813 489 q 511 661 647 661 q 384 633 442 661 q 296 557 326 606 q 332 774 297 706 q 446 843 367 843 q 525 817 497 843 q 564 740 553 792 m 454 474 q 554 436 519 474 q 589 333 589 399 q 553 233 589 269 q 457 196 518 196 q 352 233 389 196 q 315 338 315 271 q 355 438 315 403 q 454 474 394 474 "},"7":{"ha":743,"x_min":39,"x_max":710,"o":"m 710 836 l 710 1013 l 39 1013 l 39 810 l 471 810 l 118 0 l 361 0 l 710 836 "},"8":{"ha":900,"x_min":75,"x_max":825,"o":"m 229 544 q 115 447 156 510 q 75 297 75 383 q 125 127 75 199 q 260 18 175 56 q 450 -19 346 -19 q 640 18 554 -19 q 775 127 725 56 q 825 297 825 199 q 785 445 825 382 q 669 544 744 508 q 765 632 729 576 q 800 763 800 688 q 761 899 800 838 q 644 998 722 961 q 450 1035 565 1035 q 256 998 335 1035 q 138 899 176 961 q 99 763 99 838 q 229 544 99 614 m 569 726 q 536 640 569 672 q 450 608 503 608 q 364 640 397 608 q 331 725 331 671 q 363 814 331 782 q 450 846 396 846 q 537 815 504 846 q 569 726 569 783 m 450 442 q 553 406 514 442 q 593 308 593 369 q 555 213 593 250 q 450 175 517 175 q 344 213 383 175 q 304 308 304 250 q 344 406 304 371 q 450 442 385 442 "},"9":{"ha":854,"x_min":72,"x_max":790,"o":"m 318 297 l 99 297 q 144 147 104 215 q 258 38 183 79 q 438 -4 332 -4 q 648 57 571 -4 q 758 235 725 118 q 790 533 790 353 q 708 910 790 782 q 421 1038 626 1038 q 235 996 314 1038 q 115 878 157 954 q 72 699 72 801 q 112 522 72 594 q 221 412 151 449 q 379 375 290 375 q 497 399 444 375 q 581 465 550 422 q 550 253 581 318 q 446 188 519 188 q 318 297 339 188 m 433 563 q 331 599 367 563 q 296 696 296 636 q 331 797 296 760 q 428 833 367 833 q 525 797 489 833 q 561 694 561 761 q 526 598 561 633 q 433 563 492 563 "},"\u0000":{"ha":0,"x_min":0,"x_max":0,"o":""},"\r":{"ha":294,"x_min":0,"x_max":0,"o":""}," ":{"ha":294,"x_min":0,"x_max":0,"o":""},"अ":{"ha":1165,"x_min":83,"x_max":1189,"o":"m 1189 1028 l 835 1028 l 835 544 l 607 544 q 538 575 579 564 l 538 581 q 647 658 608 604 q 685 788 685 713 q 606 972 685 903 q 394 1040 526 1040 q 235 1006 304 1040 q 129 907 167 971 q 92 761 92 843 l 293 761 q 322 829 293 803 q 394 856 350 856 q 463 829 436 856 q 490 758 490 803 q 458 688 490 715 q 372 661 426 661 l 310 661 l 310 485 l 372 485 q 469 453 436 485 q 501 375 501 421 q 473 299 501 328 q 396 269 444 269 q 317 300 347 269 q 288 375 288 331 l 83 375 q 124 222 83 289 q 239 119 165 156 q 410 82 313 82 q 619 156 540 82 q 699 353 699 229 l 699 365 l 835 365 l 835 0 l 1051 0 l 1051 846 l 1189 846 l 1189 1028 "},"आ":{"ha":1604,"x_min":83,"x_max":1632,"o":"m 1632 846 l 1632 1028 l 835 1028 l 835 544 l 607 544 q 538 575 579 564 l 538 581 q 647 658 608 604 q 685 788 685 713 q 606 972 685 903 q 394 1040 526 1040 q 235 1006 304 1040 q 129 907 167 971 q 92 761 92 843 l 293 761 q 322 829 293 803 q 394 856 350 856 q 463 829 436 856 q 490 758 490 803 q 458 688 490 715 q 372 661 426 661 l 310 661 l 310 485 l 372 485 q 469 453 436 485 q 501 375 501 421 q 473 299 501 328 q 396 269 444 269 q 317 300 347 269 q 288 375 288 331 l 83 375 q 124 222 83 289 q 239 119 165 156 q 410 82 313 82 q 619 156 540 82 q 699 353 699 229 l 699 365 l 835 365 l 835 0 l 1051 0 l 1051 846 l 1278 846 l 1278 0 l 1496 0 l 1496 846 l 1632 846 "},"इ":{"ha":803,"x_min":-29,"x_max":833,"o":"m 394 590 l 651 590 l 651 846 l 833 846 l 833 1028 l -29 1028 l -29 846 l 440 846 l 440 744 l 339 744 q 155 690 226 744 q 83 528 83 636 q 153 369 83 422 q 319 311 222 315 q 407 308 351 308 q 495 287 463 308 q 528 219 528 265 q 502 159 528 182 q 429 136 476 136 q 344 164 376 136 q 308 240 311 192 l 113 240 l 113 -117 l 319 -117 l 319 47 q 387 -3 343 19 q 493 -25 431 -25 q 670 42 606 -25 q 735 214 735 108 q 653 404 735 346 q 449 463 571 463 l 388 463 q 326 478 349 463 q 303 525 303 493 q 329 575 303 560 q 394 590 356 590 "},"ई":{"ha":803,"x_min":-29,"x_max":994,"o":"m 797 1133 l 988 1133 q 924 1342 994 1265 q 719 1418 853 1418 q 507 1331 571 1418 q 443 1117 443 1244 l 443 1028 l -29 1028 l -29 846 l 440 846 l 440 744 l 339 744 q 155 690 226 744 q 83 528 83 636 q 153 369 83 422 q 319 311 222 315 q 407 308 351 308 q 495 287 463 308 q 528 219 528 265 q 502 159 528 182 q 429 136 476 136 q 344 164 376 136 q 308 240 311 192 l 113 240 l 113 -117 l 319 -117 l 319 47 q 387 -3 343 19 q 493 -25 431 -25 q 670 42 606 -25 q 735 214 735 108 q 653 404 735 346 q 449 463 571 463 l 388 463 q 326 478 349 463 q 303 525 303 493 q 329 575 303 560 q 394 590 356 590 l 651 590 l 651 846 l 833 846 l 833 1028 l 646 1028 l 646 1119 q 665 1208 646 1179 q 724 1238 683 1238 q 779 1210 760 1238 q 797 1133 799 1183 "},"उ":{"ha":785,"x_min":-24,"x_max":808,"o":"m 688 763 l 688 846 l 808 846 l 808 1028 l -24 1028 l -24 846 l 476 846 l 476 772 q 443 677 476 710 q 353 644 410 644 l 300 644 l 300 454 l 383 454 q 483 416 450 454 q 517 325 517 378 q 483 235 517 269 q 394 200 450 200 q 301 237 338 200 q 264 331 264 274 l 56 331 q 100 157 56 231 q 224 44 144 83 q 406 6 303 6 q 576 44 504 6 q 685 150 647 82 q 722 307 722 218 q 677 465 722 397 q 560 553 632 532 l 560 557 q 652 625 617 571 q 688 763 688 679 "},"ऊ":{"ha":1185,"x_min":-24,"x_max":1206,"o":"m 688 763 l 688 846 l 1206 846 l 1206 1028 l -24 1028 l -24 846 l 476 846 l 476 772 q 443 677 476 710 q 353 644 410 644 l 300 644 l 300 454 l 383 454 q 483 416 450 454 q 517 325 517 378 q 483 235 517 269 q 394 200 450 200 q 301 237 338 200 q 264 331 264 274 l 56 331 q 100 157 56 231 q 224 44 144 83 q 406 6 303 6 q 573 43 501 6 q 682 147 644 81 q 719 294 719 213 q 708 381 719 339 l 810 381 q 892 358 861 381 q 922 289 922 335 q 897 220 922 243 q 828 197 871 197 q 785 199 799 197 l 785 35 q 867 26 828 26 q 1061 96 990 26 q 1132 281 1132 165 q 1044 485 1132 417 q 807 553 957 553 l 560 553 l 560 557 q 652 625 617 571 q 688 763 688 679 "},"ऋ":{"ha":1461,"x_min":-24,"x_max":1485,"o":"m 863 846 l 1485 846 l 1485 1028 l -24 1028 l -24 846 l 663 846 l 663 642 q 431 739 581 739 q 247 691 324 739 q 128 557 169 643 q 88 358 88 471 l 306 358 q 356 501 306 447 q 496 554 407 554 q 598 525 556 554 q 658 447 640 496 l 125 10 l 125 0 l 403 0 l 663 238 l 663 0 l 863 0 l 863 454 l 1032 454 q 1153 474 1094 454 l 1153 382 q 1024 296 1071 356 q 978 149 978 236 q 1063 -35 978 31 q 1283 -100 1147 -100 q 1392 -90 1340 -100 l 1392 83 q 1313 74 1353 74 q 1221 97 1256 74 q 1186 168 1186 119 q 1216 240 1186 213 q 1303 267 1246 267 l 1340 267 l 1340 753 l 1153 753 l 1153 701 q 1130 646 1153 665 q 1064 626 1107 626 l 863 626 l 863 846 "},"ॠ":{"ha":1439,"x_min":-24,"x_max":1488,"o":"m 863 846 l 1488 846 l 1488 1028 l -24 1028 l -24 846 l 663 846 l 663 642 q 431 739 581 739 q 247 691 324 739 q 128 557 169 643 q 88 358 88 471 l 306 358 q 356 501 306 447 q 496 554 407 554 q 598 525 556 554 q 658 447 640 496 l 125 10 l 125 0 l 403 0 l 663 238 l 663 0 l 863 0 l 863 454 l 1032 454 q 1153 474 1094 454 l 1153 376 q 1031 324 1081 365 q 982 206 982 282 q 1019 99 982 138 q 1119 46 1057 60 l 1119 40 q 1019 -19 1058 26 q 981 -129 981 -65 q 1065 -292 981 -239 q 1272 -344 1150 -344 q 1367 -337 1318 -344 q 1447 -315 1415 -329 l 1447 -154 q 1306 -176 1376 -176 q 1190 -106 1190 -176 q 1303 -35 1190 -35 l 1372 -35 l 1372 128 l 1293 128 q 1192 193 1192 128 q 1290 261 1192 261 l 1340 261 l 1340 753 l 1153 753 l 1153 701 q 1130 646 1153 665 q 1064 626 1107 626 l 863 626 l 863 846 "},"ऌ":{"ha":1258,"x_min":-24,"x_max":1281,"o":"m 996 846 l 1281 846 l 1281 1028 l -24 1028 l -24 846 l 785 846 l 785 719 q 692 664 731 701 q 635 576 654 626 l 629 576 q 541 691 600 647 q 390 735 482 735 q 231 697 303 735 q 117 585 160 660 q 74 400 74 510 q 167 144 74 239 q 433 49 261 49 q 481 50 461 49 l 481 239 q 443 238 467 238 q 334 278 374 238 q 294 397 294 318 q 328 503 294 464 q 422 543 361 543 q 514 497 483 543 q 544 379 544 450 l 544 339 l 725 339 l 725 379 q 756 497 725 451 q 850 543 786 543 q 937 504 906 543 q 968 401 968 465 q 967 371 968 381 q 848 288 894 347 q 801 151 801 229 q 887 -37 801 29 q 1113 -104 972 -104 q 1221 -94 1171 -104 l 1221 79 q 1140 69 1186 69 q 1046 92 1082 69 q 1010 161 1010 115 q 1154 261 1010 261 l 1163 261 q 1185 400 1185 322 q 1133 603 1185 522 q 996 715 1082 683 l 996 846 "},"ॡ":{"ha":1272,"x_min":-24,"x_max":1294,"o":"m 996 846 l 1294 846 l 1294 1028 l -24 1028 l -24 846 l 785 846 l 785 719 q 692 664 731 701 q 635 576 654 626 l 629 576 q 541 691 600 647 q 390 735 482 735 q 231 697 303 735 q 117 585 160 660 q 74 400 74 510 q 167 144 74 239 q 433 49 261 49 q 481 50 461 49 l 481 239 q 443 238 467 238 q 334 278 374 238 q 294 397 294 318 q 328 503 294 464 q 422 543 361 543 q 514 497 483 543 q 544 379 544 450 l 544 339 l 725 339 l 725 379 q 756 497 725 451 q 850 543 786 543 q 937 504 906 543 q 968 401 968 465 q 967 372 968 382 q 858 317 901 358 q 814 206 814 276 q 851 99 814 138 q 951 46 889 60 l 951 40 q 851 -19 890 26 q 813 -128 813 -64 q 897 -291 813 -237 q 1104 -344 982 -344 q 1199 -337 1150 -344 q 1279 -315 1247 -329 l 1279 -154 q 1138 -176 1208 -176 q 1021 -106 1021 -176 q 1135 -35 1021 -35 l 1204 -35 l 1204 128 l 1125 128 q 1051 143 1079 128 q 1022 193 1022 158 q 1122 261 1022 261 l 1163 261 q 1185 400 1185 322 q 1133 603 1185 522 q 996 715 1082 683 l 996 846 "},"ए":{"ha":907,"x_min":-24,"x_max":931,"o":"m 931 846 l 931 1028 l -24 1028 l -24 846 l 114 846 l 115 374 q 206 120 115 214 q 468 26 296 26 q 712 109 621 26 q 803 340 803 192 l 589 340 q 556 247 589 281 q 464 213 522 213 q 367 252 403 213 q 332 365 332 292 l 332 846 l 597 846 l 597 742 q 576 663 597 689 q 508 638 554 638 q 481 639 490 638 l 481 443 q 556 438 515 438 q 750 514 690 438 q 810 736 810 590 l 810 846 l 931 846 "},"ऐ":{"ha":907,"x_min":-24,"x_max":931,"o":"m 931 846 l 931 1028 l 796 1028 q 642 1265 706 1190 q 510 1364 578 1340 q 326 1389 443 1388 l 258 1389 l 258 1214 l 331 1214 q 431 1201 394 1214 q 502 1150 468 1188 q 592 1028 536 1113 l -24 1028 l -24 846 l 114 846 l 115 374 q 206 120 115 214 q 468 26 296 26 q 712 109 621 26 q 803 340 803 192 l 589 340 q 556 247 589 281 q 464 213 522 213 q 367 252 403 213 q 332 365 332 292 l 332 846 l 597 846 l 597 742 q 576 663 597 689 q 508 638 554 638 q 481 639 490 638 l 481 443 q 556 438 515 438 q 750 514 690 438 q 810 736 810 590 l 810 846 l 931 846 "},"ओ":{"ha":1608,"x_min":83,"x_max":1632,"o":"m 1632 1028 l 1483 1028 q 1329 1265 1393 1190 q 1198 1364 1265 1340 q 1014 1389 1131 1388 l 946 1389 l 946 1214 l 1018 1214 q 1119 1201 1082 1214 q 1190 1150 1156 1188 q 1279 1028 1224 1113 l 835 1028 l 835 544 l 607 544 q 538 575 579 564 l 538 581 q 647 658 608 604 q 685 788 685 713 q 606 972 685 903 q 394 1040 526 1040 q 235 1006 304 1040 q 129 907 167 971 q 92 761 92 843 l 293 761 q 322 829 293 803 q 394 856 350 856 q 463 829 436 856 q 490 758 490 803 q 458 688 490 715 q 372 661 426 661 l 310 661 l 310 485 l 372 485 q 469 453 436 485 q 501 375 501 421 q 473 299 501 328 q 396 269 444 269 q 317 300 347 269 q 288 375 288 331 l 83 375 q 124 222 83 289 q 239 119 165 156 q 410 82 313 82 q 619 156 540 82 q 699 353 699 229 l 699 365 l 835 365 l 835 0 l 1051 0 l 1051 846 l 1278 846 l 1278 0 l 1496 0 l 1496 846 l 1632 846 l 1632 1028 "},"औ":{"ha":1608,"x_min":83,"x_max":1632,"o":"m 1632 1028 l 1482 1028 q 1300 1347 1364 1256 q 1176 1464 1236 1439 q 1000 1489 1117 1489 l 925 1489 l 925 1351 l 1004 1351 q 1099 1342 1064 1351 q 1174 1297 1135 1333 q 1263 1179 1214 1260 q 1177 1234 1211 1218 q 1107 1254 1143 1250 q 996 1258 1071 1258 l 925 1258 l 925 1122 l 1000 1122 q 1112 1117 1079 1122 q 1174 1097 1144 1113 q 1290 1028 1204 1082 l 835 1028 l 835 544 l 607 544 q 538 575 579 564 l 538 581 q 647 658 608 604 q 685 788 685 713 q 606 972 685 903 q 394 1040 526 1040 q 235 1006 304 1040 q 129 907 167 971 q 92 761 92 843 l 293 761 q 322 829 293 803 q 394 856 350 856 q 463 829 436 856 q 490 758 490 803 q 458 688 490 715 q 372 661 426 661 l 310 661 l 310 485 l 372 485 q 469 453 436 485 q 501 375 501 421 q 473 299 501 328 q 396 269 444 269 q 317 300 347 269 q 288 375 288 331 l 83 375 q 124 222 83 289 q 239 119 165 156 q 410 82 313 82 q 619 156 540 82 q 699 353 699 229 l 699 365 l 835 365 l 835 0 l 1051 0 l 1051 846 l 1278 846 l 1278 0 l 1496 0 l 1496 846 l 1632 846 l 1632 1028 "},"ऍ":{"ha":907,"x_min":-24,"x_max":931,"o":"m 931 846 l 931 1028 l -24 1028 l -24 846 l 114 846 l 115 374 q 206 120 115 214 q 468 26 296 26 q 712 109 621 26 q 803 340 803 192 l 589 340 q 556 247 589 281 q 464 213 522 213 q 367 252 403 213 q 332 365 332 292 l 332 846 l 597 846 l 597 742 q 576 663 597 689 q 508 638 554 638 q 481 639 490 638 l 481 443 q 556 438 515 438 q 750 514 690 438 q 810 736 810 590 l 810 846 l 931 846 m 788 1431 l 600 1431 q 564 1335 600 1372 q 454 1299 528 1299 q 345 1335 381 1299 q 310 1431 310 1372 l 122 1431 q 205 1217 122 1297 q 454 1138 288 1138 q 704 1217 621 1138 q 788 1431 788 1297 "},"ॲ":{"ha":1171,"x_min":83,"x_max":1288,"o":"m 1189 1028 l 835 1028 l 835 544 l 607 544 q 538 575 579 564 l 538 581 q 647 658 608 604 q 685 788 685 713 q 606 972 685 903 q 394 1040 526 1040 q 235 1006 304 1040 q 129 907 167 971 q 92 761 92 843 l 293 761 q 322 829 293 803 q 394 856 350 856 q 463 829 436 856 q 490 758 490 803 q 458 688 490 715 q 372 661 426 661 l 310 661 l 310 485 l 372 485 q 469 453 436 485 q 501 375 501 421 q 473 299 501 328 q 396 269 444 269 q 317 300 347 269 q 288 375 288 331 l 83 375 q 124 222 83 289 q 239 119 165 156 q 410 82 313 82 q 619 156 540 82 q 699 353 699 229 l 699 365 l 835 365 l 835 0 l 1051 0 l 1051 846 l 1189 846 l 1189 1028 m 1288 1438 l 1100 1438 q 1064 1342 1100 1379 q 954 1306 1028 1306 q 845 1342 881 1306 q 810 1438 810 1379 l 622 1438 q 705 1224 622 1304 q 954 1144 788 1144 q 1204 1224 1121 1144 q 1288 1438 1288 1304 "},"ऑ":{"ha":1608,"x_min":83,"x_max":1632,"o":"m 1632 846 l 1632 1028 l 835 1028 l 835 544 l 607 544 q 538 575 579 564 l 538 581 q 647 658 608 604 q 685 788 685 713 q 606 972 685 903 q 394 1040 526 1040 q 235 1006 304 1040 q 129 907 167 971 q 92 761 92 843 l 293 761 q 322 829 293 803 q 394 856 350 856 q 463 829 436 856 q 490 758 490 803 q 458 688 490 715 q 372 661 426 661 l 310 661 l 310 485 l 372 485 q 469 453 436 485 q 501 375 501 421 q 473 299 501 328 q 396 269 444 269 q 317 300 347 269 q 288 375 288 331 l 83 375 q 124 222 83 289 q 239 119 165 156 q 410 82 313 82 q 619 156 540 82 q 699 353 699 229 l 699 365 l 835 365 l 835 0 l 1051 0 l 1051 846 l 1278 846 l 1278 0 l 1496 0 l 1496 846 l 1632 846 m 1503 1431 l 1315 1431 q 1279 1335 1315 1372 q 1169 1299 1243 1299 q 1060 1335 1096 1299 q 1025 1431 1025 1372 l 838 1431 q 920 1217 838 1297 q 1169 1138 1003 1138 q 1419 1217 1336 1138 q 1503 1431 1503 1297 "},"ा":{"ha":443,"x_min":-24,"x_max":467,"o":"m 113 0 l 331 0 l 331 846 l 467 846 l 467 1028 l -24 1028 l -24 846 l 113 846 l 113 0 "},"ि":{"ha":443,"x_min":-24,"x_max":1272,"o":"m 692 1432 q 392 1382 521 1432 q 191 1241 264 1332 q 113 1028 118 1150 l -24 1028 l -24 846 l 113 846 l 113 0 l 331 0 l 331 846 l 467 846 l 467 1028 l 331 1028 q 442 1197 339 1140 q 692 1254 544 1254 q 872 1226 789 1254 q 1004 1140 954 1197 q 1054 1000 1054 1083 l 1054 979 l 1272 979 l 1272 1004 q 1201 1226 1272 1129 q 997 1378 1129 1324 q 692 1432 865 1432 "},"ी":{"ha":443,"x_min":-331,"x_max":467,"o":"m 467 1028 l 331 1028 l 331 1069 q 3 1432 331 1432 q -251 1335 -172 1432 q -331 1069 -331 1238 l -331 979 l -119 979 l -119 1081 q 3 1249 -119 1249 q 119 1081 119 1249 l 119 1028 l -24 1028 l -24 846 l 113 846 l 113 0 l 331 0 l 331 846 l 467 846 l 467 1028 "},"ु":{"ha":0,"x_min":-654,"x_max":13,"o":"m 13 -206 q -62 -10 13 -81 q -282 60 -137 60 l -331 60 l -331 -110 l -282 -110 q -201 -136 -229 -110 q -172 -203 -172 -162 q -206 -276 -172 -250 q -299 -301 -239 -301 q -417 -264 -374 -301 q -460 -149 -461 -226 l -653 -149 q -604 -335 -654 -262 q -472 -440 -554 -407 q -293 -472 -390 -472 q -70 -401 -153 -472 q 13 -206 13 -329 "},"ू":{"ha":0,"x_min":-531,"x_max":142,"o":"m -212 -450 l -212 -294 l -250 -296 q -325 -272 -294 -296 q -356 -206 -356 -249 q -320 -134 -356 -158 q -232 -110 -285 -110 q -86 -173 -135 -110 q -37 -356 -37 -236 l -37 -443 l 139 -443 q 142 -365 142 -393 q 56 -66 142 -185 q -229 53 -29 53 q -447 -16 -364 53 q -531 -204 -531 -85 q -455 -387 -531 -324 q -265 -451 -379 -451 q -212 -450 -231 -451 "},"ृ":{"ha":0,"x_min":-496,"x_max":-39,"o":"m -39 -444 l -39 -275 q -154 -293 -100 -293 q -249 -269 -212 -293 q -285 -194 -285 -246 q -256 -122 -285 -150 q -175 -93 -228 -93 l -112 -93 l -112 53 q -193 56 -140 56 q -415 -15 -335 56 q -496 -203 -496 -86 q -406 -402 -496 -337 q -189 -467 -315 -467 q -39 -444 -110 -467 "},"ॄ":{"ha":0,"x_min":-450,"x_max":17,"o":"m 17 -642 l 17 -479 q -47 -493 -7 -486 q -125 -500 -86 -500 q -240 -431 -240 -500 q -210 -374 -240 -389 q -126 -358 -179 -358 l -58 -358 l -58 -199 l -139 -199 q -212 -182 -183 -199 q -240 -131 -240 -165 q -140 -62 -240 -62 l -112 -62 l -112 56 l -226 56 q -381 13 -312 56 q -449 -119 -449 -29 q -411 -226 -449 -187 q -311 -279 -374 -265 l -311 -285 q -412 -344 -374 -299 q -450 -454 -450 -389 q -365 -616 -450 -564 q -158 -668 -281 -668 q -64 -661 -112 -668 q 17 -642 -15 -654 "},"ॢ":{"ha":0,"x_min":-640,"x_max":224,"o":"m 163 -528 q 94 -510 121 -528 q 67 -460 67 -493 q 176 -387 67 -387 l 185 -387 q 201 -283 201 -333 q 169 -144 201 -201 q 85 -59 138 -87 q -31 -31 32 -31 q -149 -63 -101 -31 q -219 -149 -197 -96 l -222 -149 q -289 -63 -244 -96 q -403 -31 -333 -31 q -572 -96 -504 -31 q -640 -283 -640 -161 q -569 -476 -640 -404 q -369 -547 -499 -547 l -333 -547 l -333 -399 q -361 -401 -343 -401 q -440 -372 -411 -401 q -469 -286 -469 -343 q -445 -208 -469 -237 q -376 -179 -421 -179 q -310 -212 -332 -179 q -287 -299 -287 -246 l -287 -329 l -147 -329 l -147 -299 q -125 -212 -147 -246 q -57 -179 -103 -179 q 7 -208 -15 -179 q 29 -283 29 -236 l 29 -303 q -60 -365 -25 -321 q -96 -468 -96 -408 q -31 -612 -96 -561 q 142 -662 35 -662 q 224 -656 179 -662 l 224 -521 q 163 -528 201 -528 "},"ॣ":{"ha":0,"x_min":-640,"x_max":267,"o":"m 161 -712 q 75 -662 75 -712 q 98 -620 75 -631 q 161 -610 121 -610 l 211 -610 l 211 -485 l 153 -485 q 97 -473 118 -485 q 76 -436 76 -461 q 150 -387 76 -387 l 185 -387 q 201 -283 201 -333 q 169 -144 201 -201 q 85 -59 138 -87 q -31 -31 32 -31 q -149 -63 -101 -31 q -219 -149 -197 -96 l -222 -149 q -289 -63 -244 -96 q -403 -31 -333 -31 q -572 -96 -504 -31 q -640 -283 -640 -161 q -569 -476 -640 -404 q -369 -547 -499 -547 l -333 -547 l -333 -399 q -361 -401 -343 -401 q -440 -372 -411 -401 q -469 -286 -469 -343 q -445 -208 -469 -237 q -376 -179 -421 -179 q -310 -212 -332 -179 q -287 -299 -287 -246 l -287 -329 l -147 -329 l -147 -299 q -125 -212 -147 -246 q -57 -179 -103 -179 q 7 -208 -15 -179 q 29 -283 29 -236 l 29 -300 q -51 -342 -19 -311 q -83 -426 -83 -374 q -55 -508 -83 -478 q 19 -550 -26 -539 l 19 -553 q -55 -597 -26 -562 q -83 -681 -83 -631 q -21 -803 -83 -764 q 135 -842 42 -842 q 207 -837 171 -842 q 267 -822 243 -832 l 267 -697 q 221 -708 251 -703 q 161 -712 190 -712 "},"े":{"ha":0,"x_min":-657,"x_max":-115,"o":"m -319 1021 l -115 1021 q -272 1263 -207 1188 q -404 1363 -336 1339 q -589 1389 -472 1388 l -657 1389 l -657 1214 l -585 1214 q -483 1201 -519 1214 q -411 1149 -446 1188 q -319 1021 -376 1110 "},"ै":{"ha":0,"x_min":-675,"x_max":-115,"o":"m -600 1489 l -675 1489 l -675 1351 l -596 1351 q -501 1342 -536 1351 q -426 1297 -465 1333 q -337 1179 -386 1260 q -423 1234 -389 1218 q -493 1254 -457 1250 q -604 1258 -529 1258 l -675 1258 l -675 1122 l -600 1122 q -492 1118 -524 1122 q -430 1099 -460 1114 q -329 1040 -400 1085 l -303 1024 l -115 1024 q -299 1347 -235 1254 q -424 1464 -364 1439 q -600 1489 -483 1489 "},"ो":{"ha":444,"x_min":-212,"x_max":467,"o":"m 467 1028 l 325 1028 q 171 1265 235 1190 q 40 1364 107 1340 q -144 1389 -28 1388 l -212 1389 l -212 1214 l -140 1214 q -40 1201 -76 1214 q 31 1150 -3 1188 q 121 1028 65 1113 l -24 1028 l -24 846 l 113 846 l 113 0 l 331 0 l 331 846 l 467 846 l 467 1028 "},"ौ":{"ha":443,"x_min":-239,"x_max":467,"o":"m 467 1028 l 318 1028 q 136 1347 200 1256 q 13 1464 72 1439 q -164 1489 -47 1489 l -239 1489 l -239 1351 l -160 1351 q -65 1342 -100 1351 q 10 1297 -29 1333 q 99 1179 50 1260 q 13 1234 47 1218 q -57 1254 -21 1250 q -168 1258 -93 1258 l -239 1258 l -239 1122 l -164 1122 q -52 1117 -85 1122 q 10 1097 -19 1113 q 126 1028 40 1082 l -24 1028 l -24 846 l 113 846 l 113 0 l 331 0 l 331 846 l 467 846 l 467 1028 "},"ॅ":{"ha":0,"x_min":-565,"x_max":100,"o":"m 100 1419 l -87 1419 q -124 1324 -87 1361 q -233 1288 -160 1288 q -342 1324 -307 1288 q -378 1419 -378 1361 l -565 1419 q -483 1206 -565 1286 q -233 1126 -400 1126 q 17 1206 -67 1126 q 100 1419 100 1286 "},"ॉ":{"ha":444,"x_min":-110,"x_max":556,"o":"m 114 0 l 332 0 l 332 846 l 468 846 l 468 1028 l -22 1028 l -22 846 l 114 846 l 114 0 m 556 1419 l 368 1419 q 332 1324 368 1361 q 222 1288 296 1288 q 113 1324 149 1288 q 78 1419 78 1361 l -110 1419 q -27 1206 -110 1286 q 222 1126 56 1126 q 472 1206 389 1126 q 556 1419 556 1286 "},"क":{"ha":1340,"x_min":-24,"x_max":1364,"o":"m 786 846 l 1364 846 l 1364 1028 l -24 1028 l -24 846 l 576 846 l 576 640 q 493 712 546 686 q 368 738 440 738 q 153 649 232 738 q 74 414 74 560 q 108 245 74 319 q 208 130 143 171 q 360 89 274 89 q 489 117 433 89 q 576 193 544 144 l 576 0 l 786 0 l 786 400 q 819 508 786 465 q 917 551 853 551 q 1010 513 975 551 q 1046 414 1046 474 q 1011 316 1046 351 q 921 281 976 281 q 886 285 901 281 l 886 114 q 981 103 931 103 q 1128 140 1064 103 q 1230 249 1193 178 q 1267 419 1267 321 q 1233 581 1267 508 q 1136 695 1200 653 q 986 738 1072 738 q 867 712 918 738 q 786 640 817 686 l 786 846 m 435 272 q 333 310 372 272 q 294 413 294 349 q 335 514 294 475 q 436 553 375 553 q 539 512 501 553 q 576 414 576 471 q 538 315 576 357 q 435 272 500 272 "},"ख":{"ha":1333,"x_min":-24,"x_max":1357,"o":"m 1357 1028 l -24 1028 l -24 846 l 314 846 l 314 740 q 268 603 314 646 q 126 560 222 560 l 90 560 l 90 383 q 195 94 90 197 q 482 -10 300 -10 q 667 35 588 -10 q 797 157 747 81 q 840 154 825 154 q 1004 219 946 154 l 1004 0 l 1221 0 l 1221 846 l 1357 846 l 1357 1028 m 488 179 q 354 228 401 179 q 307 357 307 278 l 307 408 q 472 498 411 421 q 532 710 532 575 l 532 846 l 1004 846 l 1004 660 q 840 726 947 726 q 703 690 764 726 q 608 588 642 653 q 574 443 574 524 q 638 247 574 329 q 488 179 590 179 m 889 321 q 802 353 836 321 q 768 443 768 385 q 803 529 768 497 q 889 561 838 561 q 975 526 946 561 q 1004 442 1004 490 q 974 356 1004 390 q 889 321 943 321 "},"ग":{"ha":1132,"x_min":-24,"x_max":1156,"o":"m 1156 1028 l -24 1028 l -24 846 l 407 846 l 407 524 q 336 421 407 421 q 263 522 263 421 l 263 565 l 51 565 q 50 521 50 551 q 126 309 50 383 q 342 235 203 235 q 556 317 485 235 q 626 532 626 399 l 626 846 l 801 846 l 801 0 l 1019 0 l 1019 846 l 1156 846 l 1156 1028 "},"घ":{"ha":971,"x_min":-24,"x_max":994,"o":"m 994 846 l 994 1028 l -24 1028 l -24 846 l 108 846 l 108 781 q 144 651 108 697 q 240 589 179 604 l 240 585 q 135 514 178 567 q 92 385 92 461 q 176 197 92 264 q 392 131 261 131 q 533 158 469 131 q 640 238 597 186 l 640 0 l 860 0 l 860 846 l 994 846 m 640 846 l 640 494 q 585 360 640 411 q 444 308 529 308 q 349 333 386 308 q 313 407 313 358 q 343 476 313 450 q 433 501 374 501 l 506 501 l 506 676 l 451 676 q 356 706 385 676 q 326 790 326 735 l 326 846 l 640 846 "},"ङ":{"ha":975,"x_min":-24,"x_max":999,"o":"m 999 1028 l -24 1028 l -24 846 l 447 846 l 447 743 l 344 743 q 162 690 233 743 q 90 533 90 638 q 174 358 90 407 q 364 308 257 308 l 414 308 q 502 287 469 308 q 535 221 535 265 q 505 159 535 182 q 421 136 475 136 q 326 163 364 136 q 288 240 289 190 l 71 240 q 174 43 76 114 q 428 -28 272 -28 q 658 39 576 -28 q 740 219 740 106 q 658 404 740 346 q 454 463 575 463 l 392 463 q 333 478 356 463 q 310 526 310 493 q 335 575 310 560 q 400 590 361 590 l 657 590 l 657 846 l 999 846 l 999 1028 m 846 626 q 765 594 799 626 q 732 513 732 561 q 765 432 732 465 q 846 399 799 399 q 926 432 893 399 q 960 513 960 465 q 927 594 960 561 q 846 626 894 626 "},"च":{"ha":1046,"x_min":-24,"x_max":1069,"o":"m 1069 846 l 1069 1028 l -24 1028 l -24 846 l 715 846 l 715 511 q 667 354 715 413 q 535 296 619 296 q 433 328 474 296 q 393 418 393 361 q 431 507 393 474 q 526 540 468 540 l 583 540 l 583 711 l 71 711 l 71 540 l 257 540 q 189 378 189 479 q 226 238 189 297 q 328 147 264 178 q 472 115 393 115 q 613 143 550 115 q 715 222 676 171 l 715 0 l 933 0 l 933 846 l 1069 846 "},"छ":{"ha":1144,"x_min":-24,"x_max":1168,"o":"m 907 846 l 1168 846 l 1168 1028 l -24 1028 l -24 846 l 107 846 l 107 747 q 142 617 107 664 q 238 556 178 571 l 238 550 q 126 472 167 526 q 86 336 86 418 q 214 106 86 185 q 558 28 342 28 q 841 80 722 28 q 1022 228 960 132 q 1085 451 1085 324 q 1038 633 1085 560 q 907 733 990 706 l 907 846 m 706 846 l 706 735 q 583 654 628 713 q 538 503 538 596 q 557 372 538 431 l 736 372 q 718 478 718 429 q 742 560 718 531 q 806 589 767 589 q 869 553 844 589 q 893 463 893 518 q 807 278 893 342 q 560 214 721 214 q 369 251 431 214 q 307 357 307 288 q 341 437 307 406 q 440 468 375 468 l 464 468 l 464 643 l 436 643 q 325 757 325 643 l 325 846 l 706 846 "},"ज":{"ha":1194,"x_min":-24,"x_max":1218,"o":"m 1218 846 l 1218 1028 l -24 1028 l -24 846 l 864 846 l 864 678 l 490 678 l 490 456 q 465 363 490 396 q 392 329 439 329 q 317 363 343 329 q 292 456 292 396 l 292 678 l 72 678 l 72 450 q 155 224 72 310 q 390 139 238 139 q 557 178 486 139 q 666 289 628 218 q 704 450 704 360 l 704 492 l 864 492 l 864 0 l 1082 0 l 1082 846 l 1218 846 "},"झ":{"ha":1207,"x_min":-24,"x_max":1231,"o":"m 1231 846 l 1231 1028 l -24 1028 l -24 846 l 440 846 l 440 744 l 339 744 q 155 690 226 744 q 83 528 83 636 q 153 369 83 422 q 319 311 222 315 q 407 308 351 308 q 498 285 468 308 q 528 219 528 261 q 503 162 528 185 q 431 139 478 139 q 347 165 378 139 q 313 235 315 192 l 117 235 l 117 -117 l 322 -117 l 322 46 q 500 -21 393 -21 q 668 38 607 -21 q 729 190 729 97 q 706 299 729 254 l 881 299 l 881 0 l 1094 0 l 1094 846 l 1231 846 m 881 463 l 449 463 l 388 463 q 326 478 349 463 q 303 525 303 493 q 329 575 303 560 q 394 590 356 590 l 651 590 l 651 846 l 881 846 l 881 463 "},"ञ":{"ha":1160,"x_min":-24,"x_max":1183,"o":"m 1183 846 l 1183 1028 l -24 1028 l -24 846 l 829 846 l 829 508 l 714 508 q 602 679 686 617 q 397 742 518 742 q 171 667 260 742 q 74 469 82 593 l 279 469 q 322 533 290 510 q 400 557 354 557 q 495 514 461 557 q 529 408 529 471 q 495 301 529 343 q 400 258 461 258 q 323 282 356 258 q 279 346 290 306 l 74 346 q 172 149 83 222 q 397 75 260 75 q 608 142 524 75 q 717 325 693 208 l 829 325 l 829 0 l 1047 0 l 1047 846 l 1183 846 "},"ट":{"ha":897,"x_min":-24,"x_max":921,"o":"m 490 557 l 681 557 l 681 846 l 921 846 l 921 1028 l -24 1028 l -24 846 l 467 846 l 467 740 q 257 694 346 739 q 121 570 168 650 q 74 383 74 490 q 124 197 74 278 q 266 72 175 117 q 474 28 357 28 q 676 73 589 28 q 809 201 763 118 q 856 393 856 283 l 649 393 q 599 265 649 314 q 468 217 550 217 q 340 263 389 217 q 292 382 292 308 q 348 512 292 467 q 490 557 404 557 "},"ठ":{"ha":932,"x_min":-24,"x_max":956,"o":"m 572 846 l 956 846 l 956 1028 l -24 1028 l -24 846 l 357 846 l 357 738 q 153 622 232 710 q 74 396 74 533 q 125 208 74 288 q 265 85 176 128 q 465 42 354 42 q 667 85 576 42 q 808 208 757 128 q 860 396 860 288 q 779 623 860 535 q 572 739 699 711 l 572 846 m 643 396 q 594 272 643 319 q 465 224 546 224 q 339 272 388 224 q 290 396 290 321 q 339 519 290 471 q 465 567 388 567 q 594 519 546 567 q 643 396 643 472 "},"ड":{"ha":786,"x_min":-24,"x_max":808,"o":"m 400 590 l 654 590 l 654 846 l 808 846 l 808 1028 l -24 1028 l -24 846 l 443 846 l 443 743 l 344 743 q 162 690 233 743 q 90 533 90 638 q 174 358 90 407 q 364 308 257 308 l 414 308 q 502 287 469 308 q 535 221 535 265 q 505 159 535 182 q 421 136 475 136 q 326 163 364 136 q 288 240 289 190 l 71 240 q 174 43 76 114 q 428 -28 272 -28 q 658 39 576 -28 q 740 219 740 106 q 658 404 740 346 q 454 463 575 463 l 392 463 q 333 478 356 463 q 310 526 310 493 q 335 575 310 560 q 400 590 361 590 "},"ढ":{"ha":910,"x_min":-24,"x_max":933,"o":"m 547 601 l 708 601 l 708 846 l 933 846 l 933 1028 l -24 1028 l -24 846 l 503 846 l 503 751 l 476 751 q 269 708 360 751 q 126 580 178 664 q 74 378 74 496 q 132 169 74 257 q 292 34 190 81 q 521 -12 393 -12 q 793 63 697 -12 q 889 271 889 138 q 822 440 889 376 q 636 504 754 504 q 465 453 531 504 q 400 313 400 403 q 406 260 400 296 l 561 260 q 557 282 557 268 q 577 330 557 311 q 626 349 597 349 q 682 327 661 349 q 703 271 703 306 q 653 178 703 211 q 525 144 603 144 q 347 207 408 144 q 285 369 285 269 q 358 541 285 481 q 547 601 431 601 "},"ण":{"ha":1244,"x_min":-24,"x_max":1268,"o":"m 1268 846 l 1268 1028 l -24 1028 l -24 846 l 113 846 l 113 507 q 192 288 113 374 q 419 201 271 201 q 647 285 568 201 q 726 507 726 369 l 726 846 l 913 846 l 913 0 l 1131 0 l 1131 846 l 1268 846 m 513 846 l 513 488 q 489 413 513 440 q 421 385 465 385 q 352 413 378 385 q 326 488 326 442 l 326 846 l 513 846 "},"त":{"ha":983,"x_min":-24,"x_max":1007,"o":"m 1007 846 l 1007 1028 l -24 1028 l -24 846 l 653 846 l 653 683 l 468 683 q 184 597 294 683 q 74 340 74 511 q 174 86 74 171 q 435 1 275 1 l 494 1 l 494 174 l 468 174 q 338 217 382 174 q 294 336 294 260 q 344 454 294 413 q 479 496 394 496 l 653 496 l 653 0 l 871 0 l 871 846 l 1007 846 "},"थ":{"ha":1103,"x_min":76,"x_max":1126,"o":"m 1126 1028 l 772 1028 l 772 582 q 737 426 772 490 q 640 328 701 361 q 504 296 579 296 q 350 341 403 296 q 289 454 297 386 l 292 454 q 570 536 474 454 q 667 757 667 618 q 631 906 667 842 q 530 1006 594 971 q 381 1040 465 1040 q 236 1009 301 1040 q 132 915 171 978 q 93 764 93 853 q 99 710 93 746 l 296 710 q 290 758 290 740 q 314 828 290 803 q 378 854 338 854 q 439 828 417 854 q 461 763 461 803 q 392 644 461 679 q 204 610 324 610 l 83 610 q 76 510 76 567 q 125 299 76 389 q 263 162 174 210 q 471 114 353 114 q 659 157 581 114 q 772 264 738 200 l 772 0 l 990 0 l 990 846 l 1126 846 l 1126 1028 "},"द":{"ha":850,"x_min":-24,"x_max":874,"o":"m 467 549 l 714 549 l 714 846 l 872 846 l 874 1028 l -24 1028 l -24 846 l 496 846 l 496 735 l 443 735 q 252 697 336 735 q 121 584 168 658 q 74 406 74 510 q 114 232 74 303 q 222 126 154 161 q 369 90 289 90 q 472 108 426 90 q 547 158 518 126 l 547 -46 l 761 -46 l 761 390 l 558 390 q 522 297 558 331 q 432 263 486 263 q 333 300 369 263 q 297 400 297 338 q 343 509 297 469 q 467 549 389 549 "},"ध":{"ha":1017,"x_min":88,"x_max":1050,"o":"m 1050 846 l 1050 1028 l 700 1028 l 700 528 q 637 353 700 419 q 468 286 574 286 q 360 311 400 286 q 321 383 321 336 q 357 453 321 429 q 458 478 393 478 l 532 478 l 532 654 l 449 654 q 324 683 375 654 q 274 772 274 711 q 296 834 274 810 q 356 858 318 858 q 413 836 392 858 q 435 778 435 814 l 433 749 l 594 749 q 597 806 597 779 q 531 976 597 911 q 347 1040 465 1040 q 160 974 233 1040 q 88 796 88 907 q 137 644 88 703 q 260 564 186 586 l 260 560 q 147 494 196 546 q 99 360 99 443 q 188 174 99 240 q 413 108 278 108 q 583 140 510 108 q 700 231 656 172 l 700 0 l 918 0 l 918 846 l 1050 846 "},"न":{"ha":1143,"x_min":-24,"x_max":1167,"o":"m 1167 846 l 1167 1028 l -24 1028 l -24 846 l 811 846 l 811 689 l 399 689 q 232 656 307 689 q 113 555 157 622 q 68 392 68 488 q 111 234 68 301 q 226 131 154 167 q 381 96 297 96 q 527 126 461 96 q 633 218 593 157 q 672 364 672 279 q 636 507 672 442 l 811 507 l 811 0 l 1031 0 l 1031 846 l 1167 846 m 383 281 q 298 312 331 281 q 265 393 265 343 q 299 475 265 443 q 383 507 332 507 q 467 475 435 507 q 499 393 499 443 q 467 312 499 343 q 383 281 435 281 "},"प":{"ha":940,"x_min":-24,"x_max":964,"o":"m 964 846 l 964 1028 l -24 1028 l -24 846 l 94 846 l 94 581 q 175 322 94 421 q 404 222 256 222 q 610 303 536 222 l 610 0 l 828 0 l 828 846 l 964 846 m 610 846 l 610 568 q 571 451 610 497 q 461 406 532 406 q 349 453 386 406 q 313 581 313 500 l 313 846 l 610 846 "},"फ":{"ha":1367,"x_min":-24,"x_max":1392,"o":"m 804 846 l 1392 846 l 1392 1028 l -24 1028 l -24 846 l 94 846 l 94 569 q 172 318 94 414 q 393 222 250 222 q 586 300 517 222 l 586 0 l 804 0 l 804 376 q 840 503 804 454 q 946 551 876 551 q 1040 513 1004 551 q 1075 414 1075 474 q 1041 316 1075 353 q 951 279 1007 279 q 907 285 925 279 l 907 117 q 1010 103 954 103 q 1158 141 1093 103 q 1260 252 1224 179 q 1296 425 1296 325 q 1262 584 1296 513 q 1165 697 1228 656 q 1015 738 1101 738 q 890 712 944 738 q 804 640 836 686 l 804 846 m 586 846 l 586 557 q 550 449 586 492 q 449 406 514 406 q 347 450 381 406 q 313 569 313 494 l 313 846 l 586 846 "},"ब":{"ha":956,"x_min":-24,"x_max":979,"o":"m 979 1028 l -24 1028 l -24 846 l 633 846 l 633 667 q 536 729 593 707 q 410 751 479 751 q 238 710 314 751 q 117 593 161 668 q 74 422 74 518 q 117 246 74 324 q 238 125 161 168 q 411 82 315 82 q 542 107 483 82 q 633 175 600 132 l 633 0 l 843 0 l 843 846 l 979 846 l 979 1028 m 457 611 q 594 556 543 611 q 646 424 646 501 q 631 347 646 385 l 336 572 q 457 611 388 611 m 264 422 q 279 500 264 463 l 578 276 q 457 238 531 238 q 320 288 376 238 q 264 422 264 339 "},"भ":{"ha":1185,"x_min":76,"x_max":1208,"o":"m 1208 1028 l 853 1028 l 853 644 l 681 644 l 681 710 q 613 951 681 861 q 393 1040 546 1040 q 181 966 254 1040 q 107 774 107 892 q 113 721 107 751 l 331 721 q 326 765 326 744 q 347 830 326 806 q 401 854 367 854 q 459 826 440 854 q 478 750 478 799 l 478 644 l 390 644 q 165 573 253 644 q 76 367 76 501 q 115 218 76 282 q 222 119 153 154 q 382 85 292 85 q 604 168 528 85 q 681 401 681 251 l 681 467 l 853 467 l 853 0 l 1071 0 l 1071 846 l 1208 846 l 1208 1028 m 478 467 l 478 390 q 452 302 478 335 q 378 269 426 269 q 307 295 335 269 q 279 367 279 321 q 311 440 279 414 q 397 467 343 467 l 478 467 "},"म":{"ha":1171,"x_min":-24,"x_max":1194,"o":"m 1194 846 l 1194 1028 l -24 1028 l -24 846 l 457 846 l 457 644 l 368 644 q 144 574 232 644 q 56 367 56 503 q 93 218 56 282 q 200 119 131 154 q 360 85 269 85 q 583 169 506 85 q 660 401 660 253 l 660 467 l 839 467 l 839 0 l 1058 0 l 1058 846 l 1194 846 m 839 846 l 839 644 l 660 644 l 660 846 l 839 846 m 457 467 l 457 390 q 431 302 457 335 q 356 269 404 269 q 285 295 313 269 q 258 367 258 321 q 290 440 258 414 q 374 467 322 467 l 457 467 "},"य":{"ha":1051,"x_min":-24,"x_max":1075,"o":"m 1075 846 l 1075 1028 l -24 1028 l -24 846 l 301 846 l 301 783 q 256 638 301 688 q 96 589 210 589 l 82 589 q 76 506 76 551 q 175 219 76 325 q 453 114 274 114 q 608 141 540 114 q 719 217 675 168 l 719 0 l 939 0 l 939 846 l 1075 846 m 719 846 l 719 518 q 660 358 719 421 q 500 296 600 296 q 350 346 404 296 q 293 478 296 396 q 463 561 410 492 q 517 743 517 631 l 517 846 l 719 846 "},"र":{"ha":738,"x_min":-24,"x_max":761,"o":"m 303 417 l 310 417 q 566 512 489 417 q 643 772 643 607 l 643 846 l 761 846 l 761 1028 l -24 1028 l -24 846 l 425 846 l 425 772 q 380 638 425 683 q 228 592 335 592 l 88 592 l 88 289 q 122 135 88 203 q 226 27 157 67 q 392 -12 294 -12 q 604 67 528 -12 q 681 279 681 146 l 681 311 l 471 311 l 471 272 q 449 201 471 229 q 388 174 426 174 q 324 202 344 174 q 303 278 303 231 l 303 417 "},"ल":{"ha":1269,"x_min":-24,"x_max":1293,"o":"m 1024 846 l 1293 846 l 1293 1028 l -24 1028 l -24 846 l 810 846 l 810 719 q 636 569 690 692 l 632 569 q 542 684 601 640 q 390 728 483 728 q 231 690 303 728 q 117 578 160 653 q 74 393 74 503 q 115 211 74 290 q 238 87 157 132 q 433 42 319 42 q 481 43 461 42 l 481 233 l 443 231 q 335 274 375 231 q 294 390 294 317 q 328 497 294 457 q 422 536 361 536 q 514 490 483 536 q 544 372 544 443 l 544 339 l 725 339 l 725 372 q 756 490 725 444 q 850 536 786 536 q 942 496 910 536 q 975 390 975 456 q 935 274 975 317 q 826 231 894 231 l 789 233 l 789 43 q 836 42 808 42 q 1031 87 950 42 q 1154 211 1113 132 q 1196 393 1196 290 q 1149 585 1196 507 q 1024 699 1103 663 l 1024 846 "},"व":{"ha":926,"x_min":-24,"x_max":950,"o":"m 950 1028 l -24 1028 l -24 846 l 601 846 l 601 646 q 510 718 565 693 q 385 743 454 743 q 219 701 290 743 q 111 587 149 660 q 74 421 74 514 q 111 249 74 325 q 219 129 149 172 q 385 86 289 86 q 510 112 456 86 q 601 186 565 138 l 601 0 l 814 0 l 814 846 l 950 846 l 950 1028 m 444 260 q 331 303 375 260 q 288 415 288 346 q 331 526 288 483 q 444 568 375 568 q 560 524 518 568 q 601 415 601 479 l 601 414 q 560 306 601 351 q 444 260 518 260 "},"श":{"ha":1189,"x_min":93,"x_max":1213,"o":"m 313 399 l 368 399 q 641 483 535 399 q 747 729 747 567 q 660 958 747 876 q 429 1040 574 1040 q 261 1003 333 1040 q 150 900 189 967 q 111 749 111 833 q 113 717 111 731 q 115 694 114 704 l 333 694 q 332 742 332 710 q 358 822 332 792 q 429 851 383 851 q 501 822 475 851 q 526 743 526 792 q 458 619 526 657 q 286 582 390 582 l 93 582 l 93 315 q 182 78 93 165 q 426 -10 271 -10 q 651 69 568 -10 q 733 288 733 149 l 732 313 l 521 313 l 521 290 q 494 209 521 240 q 421 178 468 178 q 338 212 364 178 q 313 301 313 246 l 313 399 m 1213 1028 l 856 1028 l 856 0 l 1076 0 l 1076 846 l 1213 846 l 1213 1028 "},"ष":{"ha":960,"x_min":-24,"x_max":983,"o":"m 983 846 l 983 1028 l -24 1028 l -24 846 l 94 846 l 94 581 q 178 309 94 413 q 418 206 263 206 q 633 292 563 206 l 633 0 l 847 0 l 847 846 l 983 846 m 633 846 l 633 626 l 307 846 l 633 846 m 464 389 q 346 440 386 389 q 306 574 306 490 l 306 696 l 619 486 q 561 415 601 442 q 464 389 521 389 "},"स":{"ha":1150,"x_min":-24,"x_max":1174,"o":"m 1174 846 l 1174 1028 l -24 1028 l -24 846 l 388 846 l 388 754 q 342 620 388 668 q 190 572 297 572 l 88 572 l 88 292 q 123 135 88 204 q 228 27 158 67 q 397 -12 299 -12 q 613 61 535 -12 q 692 260 692 135 q 690 290 692 278 l 481 290 l 481 272 q 458 201 481 229 q 393 174 435 174 q 326 203 349 174 q 303 281 303 233 l 303 417 l 819 417 l 819 0 l 1038 0 l 1038 846 l 1174 846 m 819 846 l 819 594 l 572 594 q 606 754 606 664 l 606 846 l 819 846 "},"ह":{"ha":813,"x_min":-24,"x_max":836,"o":"m 417 594 l 658 594 l 658 846 l 836 846 l 836 1028 l -24 1028 l -24 846 l 450 846 l 450 749 l 339 749 q 174 701 235 749 q 114 571 114 653 q 207 411 114 468 q 115 310 147 372 q 82 167 82 247 q 124 -3 82 69 q 242 -116 165 -76 q 424 -156 319 -156 q 652 -84 563 -156 q 753 107 742 -12 l 544 107 q 502 48 535 72 q 424 24 469 24 q 331 61 367 24 q 296 163 296 99 q 332 263 296 225 q 424 300 368 300 q 504 274 472 300 q 544 214 536 249 l 753 214 q 658 401 739 331 q 429 472 576 472 q 368 468 397 472 q 331 528 331 488 q 355 578 331 563 q 417 594 379 594 "},"ळ":{"ha":1335,"x_min":-24,"x_max":1358,"o":"m 1075 846 l 1358 846 l 1358 1028 l -24 1028 l -24 846 l 863 846 l 863 711 q 669 561 738 682 l 665 561 q 392 719 575 719 q 231 680 304 719 q 116 567 158 640 q 74 396 74 493 q 116 226 74 299 q 231 113 158 153 q 393 74 304 74 q 557 116 485 74 q 664 235 629 158 l 671 235 q 778 116 706 158 q 943 74 850 74 q 1103 113 1031 74 q 1219 226 1176 153 q 1261 396 1261 299 q 1210 580 1261 503 q 1075 693 1160 657 l 1075 846 m 425 260 q 325 297 364 260 q 286 394 286 333 q 325 496 286 457 q 425 535 364 535 q 523 496 485 535 q 561 396 561 457 q 523 297 561 335 q 425 260 485 260 m 910 260 q 811 297 849 260 q 774 396 774 335 q 812 496 774 457 q 911 535 850 535 q 1010 496 972 535 q 1049 394 1049 457 q 1010 297 1049 333 q 910 260 971 260 "},"क़":{"ha":1340,"x_min":-24,"x_max":1364,"o":"m 786 846 l 1364 846 l 1364 1028 l -24 1028 l -24 846 l 576 846 l 576 640 q 493 712 546 686 q 368 738 440 738 q 153 649 232 738 q 74 414 74 560 q 108 245 74 319 q 208 130 143 171 q 360 89 274 89 q 489 117 433 89 q 576 193 544 144 l 576 0 l 786 0 l 786 400 q 819 508 786 465 q 917 551 853 551 q 1010 513 975 551 q 1046 414 1046 474 q 1011 316 1046 351 q 921 281 976 281 q 886 285 901 281 l 886 114 q 981 103 931 103 q 1128 140 1064 103 q 1230 249 1193 178 q 1267 419 1267 321 q 1233 581 1267 508 q 1136 695 1200 653 q 986 738 1072 738 q 867 712 918 738 q 786 640 817 686 l 786 846 m 435 272 q 333 310 372 272 q 294 413 294 349 q 335 514 294 475 q 436 553 375 553 q 539 512 501 553 q 576 414 576 471 q 538 315 576 357 q 435 272 500 272 m 457 -119 q 420 -28 457 -65 q 329 10 383 10 q 240 -28 276 10 q 203 -119 203 -65 q 240 -207 203 -171 q 329 -243 276 -243 q 420 -208 383 -243 q 457 -119 457 -172 "},"ख़":{"ha":1333,"x_min":-24,"x_max":1357,"o":"m 1357 1028 l -24 1028 l -24 846 l 314 846 l 314 740 q 268 603 314 646 q 126 560 222 560 l 90 560 l 90 383 q 195 94 90 197 q 482 -10 300 -10 q 667 35 588 -10 q 797 157 747 81 q 840 154 825 154 q 1004 219 946 154 l 1004 0 l 1221 0 l 1221 846 l 1357 846 l 1357 1028 m 488 179 q 354 228 401 179 q 307 357 307 278 l 307 408 q 472 498 411 421 q 532 710 532 575 l 532 846 l 1004 846 l 1004 660 q 840 726 947 726 q 703 690 764 726 q 608 588 642 653 q 574 443 574 524 q 638 247 574 329 q 488 179 590 179 m 889 321 q 802 353 836 321 q 768 443 768 385 q 803 529 768 497 q 889 561 838 561 q 975 526 946 561 q 1004 442 1004 490 q 974 356 1004 390 q 889 321 943 321 m 578 -214 q 541 -122 578 -160 q 450 -85 504 -85 q 360 -122 397 -85 q 324 -214 324 -160 q 360 -301 324 -265 q 450 -337 397 -337 q 541 -302 504 -337 q 578 -214 578 -267 "},"ग़":{"ha":1131,"x_min":-24,"x_max":1156,"o":"m 1156 1028 l -24 1028 l -24 846 l 407 846 l 407 524 q 336 421 407 421 q 263 522 263 421 l 263 565 l 51 565 q 50 521 50 551 q 126 309 50 383 q 342 235 203 235 q 556 317 485 235 q 626 532 626 399 l 626 846 l 801 846 l 801 0 l 1019 0 l 1019 846 l 1156 846 l 1156 1028 m 471 25 q 434 117 471 79 q 343 154 397 154 q 253 117 290 154 q 217 25 217 79 q 253 -62 217 -26 q 343 -99 290 -99 q 434 -63 397 -99 q 471 25 471 -28 "},"ज़":{"ha":1194,"x_min":-24,"x_max":1218,"o":"m 1218 846 l 1218 1028 l -24 1028 l -24 846 l 864 846 l 864 678 l 490 678 l 490 456 q 465 363 490 396 q 392 329 439 329 q 317 363 343 329 q 292 456 292 396 l 292 678 l 72 678 l 72 450 q 155 224 72 310 q 390 139 238 139 q 557 178 486 139 q 666 289 628 218 q 704 450 704 360 l 704 492 l 864 492 l 864 0 l 1082 0 l 1082 846 l 1218 846 m 519 -69 q 483 22 519 -15 q 392 60 446 60 q 302 22 339 60 q 265 -69 265 -15 q 302 -157 265 -121 q 392 -193 339 -193 q 483 -158 446 -193 q 519 -69 519 -122 "},"ड़":{"ha":786,"x_min":-24,"x_max":808,"o":"m 400 590 l 654 590 l 654 846 l 808 846 l 808 1028 l -24 1028 l -24 846 l 443 846 l 443 743 l 344 743 q 162 690 233 743 q 90 533 90 638 q 174 358 90 407 q 364 308 257 308 l 414 308 q 502 287 469 308 q 535 221 535 265 q 505 159 535 182 q 421 136 475 136 q 326 163 364 136 q 288 240 289 190 l 71 240 q 174 43 76 114 q 428 -28 272 -28 q 658 39 576 -28 q 740 219 740 106 q 658 404 740 346 q 454 463 575 463 l 392 463 q 333 478 356 463 q 310 526 310 493 q 335 575 310 560 q 400 590 361 590 m 553 -236 q 516 -144 553 -182 q 425 -107 479 -107 q 335 -144 372 -107 q 299 -236 299 -182 q 335 -324 299 -287 q 425 -360 372 -360 q 516 -324 479 -360 q 553 -236 553 -289 "},"ढ़":{"ha":910,"x_min":-24,"x_max":933,"o":"m 547 601 l 708 601 l 708 846 l 933 846 l 933 1028 l -24 1028 l -24 846 l 503 846 l 503 751 l 476 751 q 269 708 360 751 q 126 580 178 664 q 74 378 74 496 q 132 169 74 257 q 292 34 190 81 q 521 -12 393 -12 q 793 63 697 -12 q 889 271 889 138 q 822 440 889 376 q 636 504 754 504 q 465 453 531 504 q 400 313 400 403 q 406 260 400 296 l 561 260 q 557 282 557 268 q 577 330 557 311 q 626 349 597 349 q 682 327 661 349 q 703 271 703 306 q 653 178 703 211 q 525 144 603 144 q 347 207 408 144 q 285 369 285 269 q 358 541 285 481 q 547 601 431 601 m 621 -218 q 584 -126 621 -164 q 493 -89 547 -89 q 403 -126 440 -89 q 367 -218 367 -164 q 403 -306 367 -269 q 493 -342 440 -342 q 584 -306 547 -342 q 621 -218 621 -271 "},"फ़":{"ha":1367,"x_min":-24,"x_max":1392,"o":"m 804 846 l 1392 846 l 1392 1028 l -24 1028 l -24 846 l 94 846 l 94 569 q 172 318 94 414 q 393 222 250 222 q 586 300 517 222 l 586 0 l 804 0 l 804 376 q 840 503 804 454 q 946 551 876 551 q 1040 513 1004 551 q 1075 414 1075 474 q 1041 316 1075 353 q 951 279 1007 279 q 907 285 925 279 l 907 117 q 1010 103 954 103 q 1158 141 1093 103 q 1260 252 1224 179 q 1296 425 1296 325 q 1262 584 1296 513 q 1165 697 1228 656 q 1015 738 1101 738 q 890 712 944 738 q 804 640 836 686 l 804 846 m 586 846 l 586 557 q 550 449 586 492 q 449 406 514 406 q 347 450 381 406 q 313 569 313 494 l 313 846 l 586 846 m 443 21 q 406 113 443 75 q 315 150 369 150 q 226 113 263 150 q 189 21 189 75 q 226 -67 189 -31 q 315 -103 263 -103 q 406 -67 369 -103 q 443 21 443 -32 "},"ऱ":{"ha":738,"x_min":-24,"x_max":761,"o":"m 303 417 l 310 417 q 566 512 489 417 q 643 772 643 607 l 643 846 l 761 846 l 761 1028 l -24 1028 l -24 846 l 425 846 l 425 772 q 380 638 425 683 q 228 592 335 592 l 88 592 l 88 289 q 122 135 88 203 q 226 27 157 67 q 392 -12 294 -12 q 604 67 528 -12 q 681 279 681 146 l 681 311 l 471 311 l 471 272 q 449 201 471 229 q 388 174 426 174 q 324 202 344 174 q 303 278 303 231 l 303 417 m 278 -171 q 241 -79 278 -117 q 150 -42 204 -42 q 60 -79 97 -42 q 24 -171 24 -117 q 60 -258 24 -222 q 150 -294 97 -294 q 241 -259 204 -294 q 278 -171 278 -224 "},"ं":{"ha":0,"x_min":-350,"x_max":-96,"o":"m -96 1256 q -133 1345 -96 1308 q -224 1382 -171 1382 q -313 1345 -276 1382 q -350 1256 -350 1308 q -313 1166 -350 1203 q -224 1129 -276 1129 q -133 1166 -171 1129 q -96 1256 -96 1203 "},"ँ":{"ha":0,"x_min":-565,"x_max":100,"o":"m -149 1454 q -173 1514 -149 1489 q -235 1539 -197 1539 q -294 1514 -269 1539 q -318 1454 -318 1489 q -294 1394 -318 1419 q -235 1369 -269 1369 q -173 1394 -197 1369 q -149 1454 -149 1418 m 100 1419 l -75 1419 q -117 1322 -75 1361 q -233 1282 -160 1282 q -349 1322 -307 1282 q -392 1419 -392 1361 l -565 1419 q -479 1204 -565 1282 q -233 1126 -393 1126 q 14 1204 -72 1126 q 100 1419 100 1282 "},"ः":{"ha":389,"x_min":67,"x_max":322,"o":"m 322 650 q 285 740 322 703 q 194 776 247 776 q 104 740 142 776 q 67 650 67 703 q 104 560 67 597 q 194 524 142 524 q 285 560 247 524 q 322 650 322 597 m 322 247 q 285 337 322 300 q 194 374 247 374 q 104 337 142 374 q 67 247 67 300 q 104 158 67 194 q 194 121 142 121 q 285 158 247 121 q 322 247 322 194 "},"ऽ":{"ha":829,"x_min":79,"x_max":717,"o":"m 79 64 l 463 64 q 636 119 569 64 q 703 268 703 175 q 673 392 703 336 q 602 486 643 447 q 499 572 561 525 q 415 645 440 618 q 389 701 389 672 q 456 750 389 750 l 717 750 l 717 933 l 401 933 q 231 883 296 933 q 167 735 167 832 q 196 612 167 667 q 266 519 225 557 q 369 431 307 481 q 454 358 428 386 q 481 301 481 331 q 462 262 481 276 q 406 247 443 247 l 79 247 l 79 64 "},"्":{"ha":0,"x_min":-326,"x_max":76,"o":"m -147 -386 l 76 -386 l -110 -76 l -326 -76 l -147 -386 "},"़":{"ha":0,"x_min":-519,"x_max":-265,"o":"m -265 -240 q -302 -149 -265 -186 q -393 -111 -339 -111 q -483 -149 -446 -111 q -519 -240 -519 -186 q -483 -328 -519 -292 q -393 -364 -446 -364 q -302 -328 -339 -364 q -265 -240 -265 -293 "},"०":{"ha":906,"x_min":63,"x_max":843,"o":"m 63 521 q 155 142 63 279 q 453 4 247 4 q 751 142 658 4 q 843 521 843 279 q 751 897 843 760 q 453 1035 658 1035 q 155 897 247 1035 q 63 521 63 760 m 610 521 q 599 365 610 426 q 553 265 588 303 q 453 226 519 226 q 352 265 386 226 q 307 365 318 303 q 296 521 296 426 q 326 737 296 661 q 453 813 357 813 q 579 737 549 813 q 610 521 610 661 "},"१":{"ha":522,"x_min":38,"x_max":422,"o":"m 38 793 l 175 793 l 175 0 l 422 0 l 422 1014 l 38 1014 l 38 793 "},"२":{"ha":793,"x_min":51,"x_max":751,"o":"m 54 190 l 54 14 l 751 14 l 751 207 l 376 207 q 635 455 533 328 q 736 731 736 582 q 652 951 736 867 q 403 1036 568 1036 q 228 999 307 1036 q 102 882 150 961 q 51 685 54 803 l 281 685 q 310 797 281 757 q 393 836 340 836 q 472 804 446 836 q 499 715 499 772 q 444 561 499 640 q 312 410 390 482 q 97 225 233 338 q 54 190 101 228 "},"३":{"ha":840,"x_min":58,"x_max":764,"o":"m 71 728 l 303 728 q 333 807 307 775 q 411 839 358 839 q 488 811 460 839 q 515 733 515 783 q 472 647 515 671 q 357 622 428 622 l 313 622 l 313 429 l 357 429 q 492 399 450 429 q 535 303 535 369 q 505 220 535 251 q 421 189 475 189 q 324 224 357 189 q 289 321 290 260 l 58 321 q 163 74 64 156 q 429 -8 263 -8 q 609 29 533 -8 q 724 133 685 67 q 764 285 764 199 q 718 442 764 381 q 593 529 672 503 l 593 535 q 700 613 654 556 q 746 763 746 671 q 708 903 746 840 q 595 1001 669 965 q 417 1038 521 1038 q 168 957 260 1038 q 71 728 76 876 "},"४":{"ha":940,"x_min":68,"x_max":886,"o":"m 68 181 l 535 181 l 535 0 l 772 0 l 772 181 l 886 181 l 886 386 l 772 386 l 772 1000 l 507 1000 l 68 372 l 68 181 m 551 739 l 551 386 l 318 386 l 551 739 "},"५":{"ha":903,"x_min":117,"x_max":835,"o":"m 776 807 l 776 1015 l 128 1015 l 128 411 l 357 411 q 397 472 367 449 q 475 494 428 494 q 572 458 539 494 q 606 354 606 422 q 574 243 606 285 q 476 201 542 201 q 389 230 421 201 q 349 301 357 258 l 117 301 q 165 144 121 213 q 292 38 210 76 q 485 0 374 0 q 743 95 651 0 q 835 353 835 190 q 803 515 835 440 q 702 638 771 590 q 529 685 633 685 q 421 665 471 685 q 343 615 371 646 l 343 807 l 776 807 "},"६":{"ha":885,"x_min":86,"x_max":813,"o":"m 564 740 l 785 740 q 741 886 778 819 q 633 994 704 953 q 457 1035 561 1035 q 174 906 263 1035 q 86 514 86 778 q 169 128 86 263 q 467 -6 253 -6 q 652 38 574 -6 q 772 157 731 81 q 813 335 813 233 q 730 575 813 489 q 511 661 647 661 q 384 633 442 661 q 296 557 326 606 q 332 774 297 706 q 446 843 367 843 q 525 817 497 843 q 564 740 553 792 m 454 474 q 554 436 519 474 q 589 333 589 399 q 553 233 589 269 q 457 196 518 196 q 352 233 389 196 q 315 338 315 271 q 355 438 315 403 q 454 474 394 474 "},"७":{"ha":743,"x_min":39,"x_max":710,"o":"m 710 836 l 710 1013 l 39 1013 l 39 810 l 471 810 l 118 0 l 361 0 l 710 836 "},"८":{"ha":900,"x_min":75,"x_max":825,"o":"m 229 544 q 115 447 156 510 q 75 297 75 383 q 125 127 75 199 q 260 18 175 56 q 450 -19 346 -19 q 640 18 554 -19 q 775 127 725 56 q 825 297 825 199 q 785 445 825 382 q 669 544 744 508 q 765 632 729 576 q 800 763 800 688 q 761 899 800 838 q 644 998 722 961 q 450 1035 565 1035 q 256 998 335 1035 q 138 899 176 961 q 99 763 99 838 q 229 544 99 614 m 569 726 q 536 640 569 672 q 450 608 503 608 q 364 640 397 608 q 331 725 331 671 q 363 814 331 782 q 450 846 396 846 q 537 815 504 846 q 569 726 569 783 m 450 442 q 553 406 514 442 q 593 308 593 369 q 555 213 593 250 q 450 175 517 175 q 344 213 383 175 q 304 308 304 250 q 344 406 304 371 q 450 442 385 442 "},"९":{"ha":854,"x_min":72,"x_max":790,"o":"m 318 297 l 99 297 q 144 147 104 215 q 258 38 183 79 q 438 -4 332 -4 q 648 57 571 -4 q 758 235 725 118 q 790 533 790 353 q 708 910 790 782 q 421 1038 626 1038 q 235 996 314 1038 q 115 878 157 954 q 72 699 72 801 q 112 522 72 594 q 221 412 151 449 q 379 375 290 375 q 497 399 444 375 q 581 465 550 422 q 550 253 581 318 q 446 188 519 188 q 318 297 339 188 m 433 563 q 331 599 367 563 q 296 696 296 636 q 331 797 296 760 q 428 833 367 833 q 525 797 489 833 q 561 694 561 761 q 526 598 561 633 q 433 563 492 563 "},"ॐ":{"ha":1489,"x_min":94,"x_max":1390,"o":"m 779 1251 q 840 1275 815 1251 q 864 1335 864 1299 q 840 1396 864 1371 q 779 1421 815 1421 q 720 1396 744 1421 q 696 1335 696 1371 q 720 1276 696 1300 q 779 1251 744 1251 m 781 1008 q 1028 1086 942 1008 q 1114 1301 1114 1164 l 939 1301 q 897 1203 939 1243 q 781 1164 854 1164 q 663 1203 706 1164 q 621 1301 621 1243 l 449 1301 q 534 1086 449 1164 q 781 1008 619 1008 m 1086 947 q 860 871 929 947 q 792 647 792 794 q 760 540 792 568 q 657 511 729 511 l 578 511 l 553 519 l 553 525 q 662 603 624 547 q 700 738 700 660 q 621 924 700 854 q 408 994 542 994 q 249 960 318 994 q 141 861 179 925 q 103 715 103 797 l 306 715 q 333 783 306 757 q 404 808 361 808 q 475 781 447 808 q 503 708 503 754 q 470 635 503 664 q 383 607 438 607 l 321 607 l 321 424 l 383 424 q 480 391 447 424 q 513 310 513 358 q 484 231 513 261 q 407 201 456 201 q 328 232 358 201 q 299 307 299 263 l 94 307 q 134 153 94 219 q 247 51 174 88 q 419 14 321 14 q 633 88 551 14 q 714 288 714 163 q 710 342 714 315 q 881 375 818 344 q 969 471 943 406 q 996 644 996 536 q 1086 764 996 764 q 1157 731 1136 764 q 1178 633 1178 697 l 1178 443 q 1133 267 1178 326 q 975 207 1089 207 q 874 217 939 207 l 874 36 q 1015 22 947 22 q 1294 128 1199 22 q 1390 436 1390 233 l 1390 604 q 1318 860 1390 774 q 1086 947 1246 947 "},"॰":{"ha":661,"x_min":92,"x_max":569,"o":"m 333 700 q 159 635 226 700 q 92 467 92 569 q 122 347 92 400 q 208 265 153 294 q 333 235 264 235 q 503 299 438 235 q 569 467 569 364 q 503 635 569 569 q 333 700 438 700 m 333 571 q 407 541 378 571 q 436 467 436 511 q 407 392 436 421 q 333 364 378 364 q 254 392 285 364 q 224 467 224 421 q 254 542 224 513 q 333 571 285 571 "},"।":{"ha":478,"x_min":204,"x_max":421,"o":"m 421 1028 l 204 1028 l 204 0 l 421 0 l 421 1028 "},"॥":{"ha":857,"x_min":204,"x_max":799,"o":"m 421 1028 l 204 1028 l 204 0 l 421 0 l 421 1028 m 799 1028 l 582 1028 l 582 0 l 799 0 l 799 1028 "},"₨":{"ha":1653,"x_min":86,"x_max":1579,"o":"m 843 669 q 803 825 843 756 q 681 935 763 894 q 485 975 600 975 l 86 975 l 86 0 l 324 0 l 324 371 l 371 371 l 582 0 l 851 0 l 618 388 q 786 493 729 417 q 843 669 843 569 m 1121 543 q 1147 590 1121 572 q 1217 607 1172 607 q 1297 585 1265 607 q 1335 522 1329 563 l 1571 522 q 1465 715 1554 643 q 1225 786 1375 786 q 1051 753 1125 786 q 940 666 978 721 q 903 546 903 611 q 945 422 903 467 q 1046 356 988 376 q 1194 319 1104 336 q 1320 285 1281 303 q 1360 232 1360 268 q 1335 185 1360 203 q 1264 168 1311 168 q 1181 190 1214 168 q 1143 253 1147 211 l 907 253 q 1018 57 924 125 q 1265 -11 1113 -11 q 1432 19 1361 -11 q 1541 104 1503 50 q 1579 228 1579 158 q 1536 351 1579 306 q 1435 418 1493 397 q 1283 458 1376 439 q 1160 492 1199 475 q 1121 543 1121 508 m 324 538 l 324 781 l 471 781 q 569 748 536 781 q 601 658 601 715 q 569 569 601 600 q 471 538 536 538 l 324 538 "},"₹":{"ha":831,"x_min":53,"x_max":788,"o":"m 669 815 l 788 815 l 788 975 l 53 975 l 53 815 l 447 815 l 447 732 l 53 732 l 53 588 l 440 588 q 395 523 429 543 q 292 497 361 503 q 79 490 224 490 l 79 311 q 162 67 79 149 q 400 -14 244 -14 q 622 64 544 -14 q 704 282 699 142 l 485 282 q 464 194 485 224 q 394 165 443 165 q 322 195 343 165 q 301 279 301 225 l 301 335 q 553 399 467 335 q 661 588 639 464 l 788 588 l 788 732 l 669 732 l 669 815 "},"‌":{"ha":0,"x_min":-32,"x_max":33,"o":"m -32 -319 l 33 -319 l 33 1126 l -32 1126 l -32 -319 "},"‍":{"ha":0,"x_min":-178,"x_max":178,"o":"m 132 778 l 178 824 l 44 956 l 178 1089 l 133 1133 l 0 1001 l -132 1133 l -178 1088 l -46 956 l -175 826 l -129 781 l -33 882 l -33 -319 l 32 -319 l 32 882 l 132 778 "},"◌":{"ha":904,"x_min":69,"x_max":835,"o":"m 478 692 q 461 734 478 718 q 418 750 444 750 q 375 734 392 750 q 358 692 358 718 q 375 649 358 665 q 418 633 392 633 q 461 649 444 633 q 478 692 478 665 m 646 671 q 629 713 646 697 q 586 729 613 729 q 543 713 560 729 q 526 671 526 697 q 543 628 526 644 q 586 613 560 613 q 629 628 613 613 q 646 671 646 644 m 315 633 q 299 676 315 660 q 256 692 282 692 q 213 676 229 692 q 196 633 196 660 q 213 591 196 607 q 256 575 229 575 q 299 591 282 575 q 315 633 315 607 m 774 568 q 757 610 774 594 q 714 626 740 626 q 671 610 688 626 q 654 568 654 594 q 671 526 654 542 q 714 510 688 510 q 757 526 740 510 q 774 568 774 542 m 210 496 q 193 538 210 522 q 150 554 176 554 q 107 538 124 554 q 90 496 90 522 q 107 453 90 469 q 150 438 124 438 q 193 453 176 438 q 210 496 210 469 m 835 410 q 818 452 835 436 q 775 468 801 468 q 732 452 749 468 q 715 410 715 436 q 732 367 715 383 q 775 351 749 351 q 818 367 801 351 q 835 410 835 383 m 189 328 q 172 370 189 354 q 129 386 156 386 q 86 370 103 386 q 69 328 69 354 q 86 285 69 301 q 129 269 103 269 q 172 285 156 269 q 189 328 189 301 m 821 243 q 804 285 821 269 q 761 301 788 301 q 718 285 735 301 q 701 243 701 269 q 718 201 701 217 q 761 185 735 185 q 804 201 788 185 q 821 243 821 217 m 251 171 q 235 213 251 197 q 192 229 218 229 q 149 213 165 229 q 132 171 132 197 q 149 128 132 144 q 192 113 165 113 q 235 128 218 113 q 251 171 251 144 m 719 110 q 703 152 719 136 q 660 168 686 168 q 617 152 633 168 q 600 110 600 136 q 617 67 600 83 q 660 51 633 51 q 703 67 686 51 q 719 110 719 83 m 388 65 q 371 108 388 92 q 328 124 354 124 q 285 108 301 124 q 268 65 268 92 q 285 23 268 39 q 328 7 301 7 q 371 23 354 7 q 388 65 388 39 m 560 46 q 543 88 560 72 q 500 104 526 104 q 457 88 474 104 q 440 46 440 72 q 457 3 440 19 q 500 -12 474 -12 q 543 3 526 -12 q 560 46 560 19 "},"!":{"ha":544,"x_min":132,"x_max":414,"o":"m 399 1010 l 142 1010 l 169 344 l 371 344 l 399 1010 m 274 -11 q 374 26 335 -11 q 414 117 414 63 q 374 210 414 172 q 274 247 335 247 q 172 210 211 247 q 132 117 132 172 q 172 26 132 63 q 274 -11 211 -11 "},"\"":{"ha":571,"x_min":56,"x_max":515,"o":"m 251 1111 l 56 1111 l 74 804 l 233 804 l 251 1111 m 515 1111 l 319 1111 l 338 804 l 497 804 l 515 1111 "},"#":{"ha":1256,"x_min":28,"x_max":1210,"o":"m 993 608 l 1210 608 l 1210 822 l 1038 822 l 1082 1028 l 860 1028 l 815 822 l 585 822 l 629 1028 l 407 1028 l 363 822 l 117 822 l 117 608 l 318 608 l 279 426 l 28 426 l 28 213 l 233 213 l 188 0 l 410 0 l 456 213 l 686 213 l 640 0 l 863 0 l 908 213 l 1121 213 l 1121 426 l 954 426 l 993 608 m 771 608 l 732 426 l 501 426 l 540 608 l 771 608 "},"$":{"ha":914,"x_min":61,"x_max":824,"o":"m 824 283 q 774 441 824 383 q 663 524 725 499 q 485 581 600 549 l 485 796 q 556 699 547 774 l 810 699 q 715 903 800 829 q 485 988 631 976 l 485 1100 l 396 1100 l 396 988 q 155 901 249 978 q 61 699 61 825 q 110 539 61 597 q 223 454 158 481 q 396 400 288 428 l 396 181 q 315 288 324 204 l 63 288 q 158 81 68 157 q 396 -7 249 6 l 396 -121 l 485 -121 l 485 -8 q 667 37 590 -4 q 784 142 744 78 q 824 283 824 207 m 313 710 q 335 773 313 750 q 396 803 357 796 l 396 610 q 334 651 356 628 q 313 710 313 675 m 485 176 l 485 374 q 552 334 529 357 q 575 275 575 311 q 551 210 575 236 q 485 176 526 183 "},"%":{"ha":1208,"x_min":43,"x_max":1165,"o":"m 43 758 q 108 585 43 646 q 275 524 172 524 q 442 585 378 524 q 506 758 506 646 q 442 932 506 871 q 275 993 378 993 q 108 932 172 993 q 43 758 43 871 m 986 978 l 757 978 l 222 0 l 451 0 l 986 978 m 274 854 q 342 758 342 854 q 324 688 342 711 q 274 664 306 664 q 207 758 207 664 q 274 854 207 854 m 704 219 q 768 46 704 107 q 935 -15 832 -15 q 1101 46 1038 -15 q 1165 219 1165 107 q 1101 393 1165 332 q 935 454 1038 454 q 768 393 832 454 q 704 219 704 332 m 933 315 q 983 291 965 315 q 1001 219 1001 267 q 983 149 1001 172 q 933 125 965 125 q 867 219 867 125 q 884 292 867 268 q 933 315 901 315 "},"&":{"ha":1108,"x_min":50,"x_max":1108,"o":"m 832 0 l 1108 0 l 874 231 q 960 386 922 304 l 1026 507 l 789 507 l 738 419 q 727 397 732 407 q 719 381 722 388 l 482 613 q 423 686 442 654 q 404 747 404 718 q 426 797 404 778 q 482 817 449 817 q 535 797 515 817 q 554 739 556 776 l 778 739 q 747 867 781 808 q 647 960 714 925 q 485 994 581 994 q 322 962 390 994 q 217 872 253 929 q 181 746 181 815 q 196 656 181 697 q 247 571 211 615 q 99 449 149 524 q 50 283 50 375 q 95 126 50 193 q 224 22 140 58 q 419 -15 307 -15 q 742 88 607 -15 l 832 0 m 431 176 q 320 212 361 176 q 279 300 279 247 q 379 439 279 388 l 596 229 q 431 176 524 176 "},"'":{"ha":307,"x_min":56,"x_max":251,"o":"m 251 1111 l 56 1111 l 74 804 l 233 804 l 251 1111 "},"(":{"ha":663,"x_min":121,"x_max":653,"o":"m 406 -290 l 640 -290 l 640 -268 q 425 74 501 -124 q 349 483 349 271 q 428 899 349 697 q 653 1246 507 1101 l 653 1268 l 419 1268 q 199 930 276 1138 q 121 483 121 722 q 196 43 121 247 q 406 -290 271 -161 "},")":{"ha":663,"x_min":10,"x_max":542,"o":"m 22 -290 l 257 -290 q 467 43 392 -161 q 542 483 542 247 q 464 930 542 722 q 243 1268 386 1138 l 10 1268 l 10 1246 q 235 899 156 1101 q 314 483 314 697 q 238 74 314 271 q 22 -268 161 -124 l 22 -290 "},"*":{"ha":742,"x_min":103,"x_max":643,"o":"m 565 965 l 421 844 l 457 1028 l 292 1028 l 328 844 l 183 965 l 104 822 l 274 767 l 103 707 l 189 557 l 326 681 l 293 500 l 456 500 l 421 681 l 560 558 l 643 706 l 472 764 l 643 824 l 565 965 "},"+":{"ha":872,"x_min":82,"x_max":790,"o":"m 790 379 l 790 592 l 549 592 l 549 840 l 324 840 l 324 592 l 82 592 l 82 379 l 324 379 l 324 132 l 549 132 l 549 379 l 790 379 "},",":{"ha":399,"x_min":36,"x_max":342,"o":"m 342 219 l 117 219 l 36 -179 l 188 -179 l 342 219 "},"-":{"ha":806,"x_min":72,"x_max":683,"o":"m 683 586 l 72 586 l 72 389 l 683 389 l 683 586 "},".":{"ha":392,"x_min":56,"x_max":338,"o":"m 197 -11 q 298 26 258 -11 q 338 117 338 63 q 298 210 338 172 q 197 247 258 247 q 95 210 135 247 q 56 117 56 172 q 95 26 56 63 q 197 -11 135 -11 "},"/":{"ha":629,"x_min":14,"x_max":615,"o":"m 615 1319 l 386 1319 l 14 -260 l 243 -260 l 615 1319 "},":":{"ha":394,"x_min":56,"x_max":338,"o":"m 197 -11 q 298 26 258 -11 q 338 117 338 63 q 298 210 338 172 q 197 247 258 247 q 95 210 135 247 q 56 117 56 172 q 95 26 56 63 q 197 -11 135 -11 m 197 554 q 298 591 258 554 q 338 682 338 628 q 298 775 338 738 q 197 813 258 813 q 95 775 135 813 q 56 682 56 738 q 95 591 56 628 q 197 554 135 554 "},";":{"ha":482,"x_min":69,"x_max":378,"o":"m 238 543 q 338 580 299 543 q 378 671 378 617 q 338 764 378 726 q 238 801 299 801 q 135 764 175 801 q 96 671 96 726 q 135 580 96 617 q 238 543 175 543 m 375 219 l 150 219 l 69 -179 l 221 -179 l 375 219 "},"<":{"ha":765,"x_min":79,"x_max":660,"o":"m 361 179 l 660 179 l 376 486 l 660 793 l 361 793 l 79 486 l 361 179 "},"=":{"ha":967,"x_min":94,"x_max":872,"o":"m 872 768 l 94 768 l 94 558 l 872 558 l 872 768 m 872 414 l 94 414 l 94 204 l 872 204 l 872 414 "},">":{"ha":751,"x_min":88,"x_max":668,"o":"m 88 793 l 371 486 l 88 179 l 386 179 l 668 486 l 386 793 l 88 793 "},"?":{"ha":747,"x_min":36,"x_max":699,"o":"m 371 1029 q 188 990 264 1029 q 74 882 113 950 q 39 729 36 814 l 263 729 q 290 806 263 778 q 368 835 318 835 q 442 807 415 835 q 468 731 468 779 q 412 635 468 661 q 249 608 356 608 l 165 608 l 172 350 l 381 350 l 388 454 q 613 528 528 456 q 699 732 699 601 q 609 951 699 874 q 371 1029 519 1029 m 279 -11 q 380 26 340 -11 q 419 117 419 63 q 380 210 419 172 q 279 247 340 247 q 177 210 217 247 q 138 117 138 172 q 177 26 138 63 q 279 -11 217 -11 "},"@":{"ha":1500,"x_min":101,"x_max":1399,"o":"m 858 928 q 472 831 644 928 q 200 565 299 735 q 101 185 101 394 q 167 -78 101 35 q 352 -251 232 -190 q 631 -312 472 -312 q 936 -253 800 -312 l 899 -101 q 653 -151 790 -151 q 378 -58 476 -151 q 281 203 281 35 q 353 488 281 358 q 552 693 425 618 q 835 768 679 768 q 1117 678 1017 768 q 1218 428 1218 588 q 1183 231 1218 317 q 1081 146 1147 146 q 1026 207 1026 146 q 1031 251 1026 226 l 1092 600 l 900 600 l 888 526 q 729 610 846 610 q 564 556 638 610 q 449 412 490 501 q 407 221 407 322 q 466 52 407 114 q 628 -10 525 -10 q 761 20 700 -10 q 861 104 822 50 q 926 22 878 51 q 1047 -7 974 -7 q 1237 53 1157 -7 q 1358 215 1317 114 q 1399 435 1399 317 q 1333 692 1399 581 q 1144 866 1267 804 q 858 928 1022 928 m 706 161 q 636 189 660 161 q 613 263 613 217 q 653 388 613 335 q 754 440 693 440 q 826 410 800 440 q 853 333 853 381 q 833 248 853 288 q 778 185 813 208 q 706 161 744 161 "},"A":{"ha":1024,"x_min":22,"x_max":1003,"o":"m 693 172 l 751 0 l 1003 0 l 650 975 l 375 975 l 22 0 l 271 0 l 329 172 l 693 172 m 632 356 l 392 356 l 511 713 l 632 356 "},"B":{"ha":915,"x_min":86,"x_max":864,"o":"m 676 500 q 797 579 751 522 q 842 722 842 636 q 758 907 842 839 q 525 975 674 975 l 86 975 l 86 0 l 540 0 q 778 72 693 0 q 864 265 864 143 q 813 416 864 350 q 676 500 761 482 m 324 581 l 324 785 l 479 785 q 569 758 538 785 q 600 682 600 732 q 569 606 600 632 q 479 581 538 581 l 324 581 m 499 192 l 324 192 l 324 407 l 496 407 q 590 378 556 407 q 624 297 624 349 q 591 219 624 246 q 499 192 558 192 "},"C":{"ha":1058,"x_min":46,"x_max":999,"o":"m 46 489 q 108 232 46 344 q 283 56 171 119 q 536 -7 394 -7 q 833 84 710 -7 q 999 333 957 175 l 738 333 q 655 240 708 272 q 533 208 601 208 q 356 285 424 208 q 288 489 288 361 q 356 693 288 617 q 533 769 424 769 q 655 738 601 769 q 738 644 708 706 l 999 644 q 833 894 957 803 q 536 986 710 986 q 283 923 394 986 q 108 747 171 860 q 46 489 46 633 "},"D":{"ha":1010,"x_min":86,"x_max":963,"o":"m 451 975 l 86 975 l 86 0 l 451 0 q 720 61 604 0 q 899 233 836 122 q 963 488 963 344 q 899 742 963 632 q 721 914 836 853 q 451 975 606 975 m 436 206 l 324 206 l 324 772 l 436 772 q 646 697 571 772 q 721 488 721 622 q 646 279 721 353 q 436 206 571 206 "},"E":{"ha":751,"x_min":86,"x_max":683,"o":"m 324 785 l 683 785 l 683 975 l 86 975 l 86 0 l 683 0 l 683 190 l 324 190 l 324 404 l 642 404 l 642 588 l 324 588 l 324 785 "},"F":{"ha":760,"x_min":86,"x_max":721,"o":"m 721 975 l 86 975 l 86 0 l 324 0 l 324 394 l 621 394 l 621 579 l 324 579 l 324 785 l 721 785 l 721 975 "},"G":{"ha":1058,"x_min":46,"x_max":1013,"o":"m 733 667 l 996 667 q 837 901 957 817 q 542 986 717 986 q 285 923 397 986 q 109 747 172 860 q 46 489 46 633 q 109 232 46 344 q 285 56 172 119 q 543 -7 399 -7 q 763 40 665 -7 q 923 164 860 88 q 1013 329 986 240 l 1013 550 l 496 550 l 496 375 l 797 375 q 709 247 769 292 q 561 203 649 203 q 360 278 433 203 q 288 489 288 354 q 357 691 288 615 q 542 767 426 767 q 658 741 608 767 q 733 667 707 715 "},"H":{"ha":1015,"x_min":86,"x_max":931,"o":"m 931 975 l 693 975 l 693 593 l 324 593 l 324 975 l 86 975 l 86 0 l 324 0 l 324 401 l 693 401 l 693 0 l 931 0 l 931 975 "},"I":{"ha":410,"x_min":86,"x_max":324,"o":"m 324 975 l 86 975 l 86 0 l 324 0 l 324 975 "},"J":{"ha":803,"x_min":36,"x_max":697,"o":"m 697 975 l 460 975 l 460 311 q 436 231 460 258 q 369 203 413 203 q 297 234 322 203 q 272 326 272 265 l 36 326 q 129 78 36 165 q 376 -10 222 -10 q 610 74 524 -10 q 697 311 697 157 l 697 975 "},"K":{"ha":968,"x_min":86,"x_max":942,"o":"m 651 0 l 942 0 l 550 497 l 928 975 l 649 975 l 324 547 l 324 975 l 86 975 l 86 0 l 324 0 l 324 431 l 651 0 "},"L":{"ha":663,"x_min":86,"x_max":635,"o":"m 324 183 l 324 975 l 86 975 l 86 0 l 635 0 l 635 183 l 324 183 "},"M":{"ha":1275,"x_min":86,"x_max":1190,"o":"m 1190 975 l 911 975 l 640 300 l 367 975 l 86 975 l 86 0 l 324 0 l 324 586 l 543 0 l 735 0 l 953 585 l 953 0 l 1190 0 l 1190 975 "},"N":{"ha":1044,"x_min":86,"x_max":958,"o":"m 958 0 l 958 975 l 721 975 l 721 371 l 324 975 l 86 975 l 86 0 l 324 0 l 324 601 l 721 0 l 958 0 "},"O":{"ha":1092,"x_min":46,"x_max":1046,"o":"m 547 -10 q 799 54 685 -10 q 979 233 913 118 q 1046 490 1046 347 q 980 747 1046 633 q 799 925 914 861 q 547 989 685 989 q 295 925 410 989 q 113 747 181 861 q 46 490 46 633 q 113 233 46 347 q 295 54 181 118 q 547 -10 410 -10 m 547 207 q 359 284 429 207 q 289 490 289 361 q 359 697 289 621 q 547 774 429 774 q 734 697 664 774 q 804 490 804 619 q 734 285 804 363 q 547 207 664 207 "},"P":{"ha":867,"x_min":86,"x_max":829,"o":"m 829 661 q 789 824 829 753 q 668 935 749 894 q 471 975 588 975 l 86 975 l 86 0 l 324 0 l 324 350 l 471 350 q 671 393 590 350 q 790 506 751 436 q 829 661 829 576 m 453 539 l 324 539 l 324 783 l 453 783 q 554 751 521 783 q 588 661 588 719 q 554 571 588 603 q 453 539 521 539 "},"Q":{"ha":1094,"x_min":46,"x_max":1068,"o":"m 781 -167 l 1068 -167 l 854 90 q 995 262 944 158 q 1046 490 1046 365 q 980 747 1046 633 q 799 925 914 861 q 547 989 685 989 q 295 925 410 989 q 113 747 181 861 q 46 490 46 633 q 113 233 46 347 q 295 54 181 118 q 547 -10 410 -10 q 656 1 600 -10 l 781 -167 m 289 490 q 359 697 289 621 q 547 774 429 774 q 734 697 664 774 q 804 490 804 619 q 734 285 804 363 q 547 207 664 207 q 359 284 429 207 q 289 490 289 361 "},"R":{"ha":906,"x_min":86,"x_max":851,"o":"m 583 0 l 851 0 l 626 386 q 788 494 733 418 q 843 668 843 571 q 803 824 843 754 q 681 935 763 894 q 485 975 600 975 l 86 975 l 86 0 l 324 0 l 324 368 l 381 368 l 583 0 m 324 536 l 324 778 l 471 778 q 569 746 536 778 q 601 658 601 714 q 569 568 601 600 q 471 536 536 536 l 324 536 "},"S":{"ha":854,"x_min":58,"x_max":794,"o":"m 439 -10 q 629 31 549 -10 q 752 139 710 71 q 794 290 794 207 q 751 433 794 378 q 649 518 708 489 q 496 579 590 547 q 357 636 401 610 q 313 710 313 663 q 339 776 313 753 q 408 799 365 799 q 490 772 458 799 q 525 697 522 744 l 782 697 q 676 912 775 835 q 417 989 578 989 q 160 912 258 989 q 61 699 61 835 q 104 550 61 607 q 207 464 147 493 q 361 406 267 435 q 462 371 426 386 q 522 332 497 356 q 546 272 546 308 q 515 205 546 229 q 432 181 485 181 q 349 209 381 181 q 311 292 317 238 l 58 292 q 112 128 61 196 q 247 25 163 60 q 439 -10 332 -10 "},"T":{"ha":821,"x_min":33,"x_max":788,"o":"m 788 975 l 33 975 l 33 785 l 292 785 l 292 0 l 529 0 l 529 785 l 788 785 l 788 975 "},"U":{"ha":979,"x_min":82,"x_max":899,"o":"m 319 975 l 82 975 l 82 393 q 135 172 82 263 q 278 35 188 81 q 485 -10 369 -10 q 694 36 600 -10 q 843 172 788 82 q 899 393 899 263 l 899 975 l 661 975 l 661 392 q 617 257 661 304 q 489 210 572 210 q 363 257 406 210 q 319 392 319 304 l 319 975 "},"V":{"ha":1014,"x_min":13,"x_max":1001,"o":"m 1001 975 l 750 975 l 507 239 l 265 975 l 13 975 l 358 0 l 656 0 l 1001 975 "},"W":{"ha":1461,"x_min":35,"x_max":1428,"o":"m 1428 975 l 1172 975 l 1031 265 l 864 975 l 603 975 l 429 265 l 289 975 l 35 975 l 282 0 l 569 0 l 731 642 l 886 0 l 1174 0 l 1428 975 "},"X":{"ha":993,"x_min":33,"x_max":960,"o":"m 683 0 l 960 0 l 638 483 l 947 975 l 678 975 l 506 681 l 310 975 l 33 975 l 353 496 l 40 0 l 310 0 l 485 299 l 683 0 "},"Y":{"ha":932,"x_min":10,"x_max":922,"o":"m 922 975 l 656 975 l 468 567 l 279 975 l 10 975 l 347 322 l 347 0 l 585 0 l 585 322 l 922 975 "},"Z":{"ha":828,"x_min":69,"x_max":758,"o":"m 339 194 l 758 794 l 758 975 l 69 975 l 69 781 l 486 781 l 69 181 l 69 0 l 758 0 l 758 194 l 339 194 "},"[":{"ha":708,"x_min":167,"x_max":583,"o":"m 583 1268 l 167 1268 l 167 -290 l 583 -290 l 583 -97 l 389 -97 l 389 1076 l 583 1076 l 583 1268 "},"\\":{"ha":1114,"x_min":254,"x_max":856,"o":"m 626 -260 l 856 -260 l 483 1319 l 254 1319 l 626 -260 "},"]":{"ha":708,"x_min":125,"x_max":542,"o":"m 542 -290 l 542 1268 l 125 1268 l 125 1076 l 319 1076 l 319 -97 l 125 -97 l 125 -290 l 542 -290 "},"^":{"ha":985,"x_min":42,"x_max":943,"o":"m 281 229 l 493 703 l 704 229 l 943 229 l 608 978 l 378 978 l 42 229 l 281 229 "},"_":{"ha":1083,"x_min":118,"x_max":979,"o":"m 979 -57 l 118 -57 l 118 -285 l 979 -285 l 979 -57 "},"`":{"ha":404,"x_min":14,"x_max":349,"o":"m 349 992 l 14 1153 l 14 968 l 349 828 l 349 992 "},"a":{"ha":943,"x_min":39,"x_max":857,"o":"m 39 389 q 84 178 39 269 q 207 38 129 88 q 379 -11 285 -11 q 523 22 461 -11 q 619 110 585 56 l 619 0 l 857 0 l 857 775 l 619 775 l 619 665 q 524 753 586 719 q 381 786 463 786 q 207 738 285 786 q 84 599 129 689 q 39 389 39 508 m 619 388 q 570 247 619 299 q 450 196 521 196 q 330 248 379 196 q 281 389 281 300 q 330 528 281 478 q 450 579 379 579 q 570 528 521 579 q 619 388 619 476 "},"b":{"ha":943,"x_min":86,"x_max":904,"o":"m 324 665 l 324 1028 l 86 1028 l 86 0 l 324 0 l 324 108 q 419 22 358 54 q 563 -11 481 -11 q 736 38 658 -11 q 859 178 814 88 q 904 389 904 269 q 859 599 904 508 q 736 738 814 689 q 563 786 658 786 q 419 753 482 786 q 324 665 357 719 m 663 389 q 613 248 663 300 q 492 196 563 196 q 372 247 421 196 q 322 388 322 299 q 372 528 322 476 q 492 579 421 579 q 613 528 564 579 q 663 389 663 478 "},"c":{"ha":840,"x_min":39,"x_max":800,"o":"m 39 388 q 88 176 39 267 q 226 38 138 86 q 428 -11 314 -11 q 671 67 572 -11 q 800 281 769 144 l 547 281 q 424 192 515 192 q 319 242 358 192 q 281 388 281 293 q 319 533 281 482 q 424 583 358 583 q 547 494 515 583 l 800 494 q 672 710 769 633 q 428 786 574 786 q 226 738 314 786 q 88 599 138 689 q 39 388 39 508 "},"d":{"ha":943,"x_min":39,"x_max":857,"o":"m 39 389 q 84 178 39 269 q 207 38 129 88 q 381 -11 285 -11 q 524 22 463 -11 q 619 111 586 56 l 619 0 l 857 0 l 857 1028 l 619 1028 l 619 668 q 520 754 583 722 q 381 786 457 786 q 207 738 285 786 q 84 599 129 689 q 39 389 39 508 m 619 388 q 570 247 619 299 q 450 196 521 196 q 330 248 379 196 q 281 389 281 300 q 330 528 281 478 q 450 579 379 579 q 570 528 521 579 q 619 388 619 476 "},"e":{"ha":856,"x_min":39,"x_max":817,"o":"m 817 400 q 767 604 817 517 q 631 739 718 692 q 431 786 543 786 q 226 738 315 786 q 88 599 138 689 q 39 388 39 508 q 89 176 39 267 q 228 38 139 86 q 431 -11 317 -11 q 601 24 525 -11 q 728 119 678 58 q 799 257 779 181 l 546 257 q 422 182 511 182 q 322 220 363 182 q 275 331 281 258 l 813 331 q 817 400 817 367 m 574 463 l 276 463 q 327 561 286 526 q 428 596 368 596 q 532 560 490 596 q 574 463 574 524 "},"f":{"ha":500,"x_min":24,"x_max":475,"o":"m 475 578 l 475 775 l 347 775 l 347 782 q 375 867 347 843 q 471 886 403 890 l 471 1088 q 432 1089 458 1089 q 192 1015 274 1089 q 110 797 110 940 l 110 775 l 24 775 l 24 578 l 110 578 l 110 0 l 347 0 l 347 578 l 475 578 "},"g":{"ha":943,"x_min":39,"x_max":857,"o":"m 381 786 q 207 738 285 786 q 84 599 129 689 q 39 389 39 508 q 84 178 39 269 q 207 38 129 88 q 381 -11 285 -11 q 524 23 463 -11 q 619 111 585 57 l 619 1 q 576 -134 619 -92 q 458 -176 532 -176 q 356 -151 397 -176 q 303 -81 314 -125 l 68 -81 q 190 -301 83 -219 q 469 -382 297 -382 q 685 -331 599 -382 q 815 -192 772 -279 q 857 1 857 -106 l 857 775 l 619 775 l 619 665 q 524 753 586 719 q 381 786 463 786 m 619 388 q 570 247 619 299 q 450 196 521 196 q 330 248 379 196 q 281 389 281 300 q 330 528 281 478 q 450 579 379 579 q 570 528 521 579 q 619 388 619 476 "},"h":{"ha":936,"x_min":86,"x_max":857,"o":"m 563 783 q 422 753 485 783 q 324 671 360 722 l 324 1028 l 86 1028 l 86 0 l 324 0 l 324 421 q 364 542 324 499 q 472 585 404 585 q 581 542 540 585 q 621 421 621 499 l 621 0 l 857 0 l 857 453 q 776 695 857 607 q 563 783 696 783 "},"i":{"ha":410,"x_min":64,"x_max":346,"o":"m 206 856 q 306 892 267 856 q 346 983 346 929 q 306 1076 346 1039 q 206 1113 267 1113 q 103 1076 143 1113 q 64 983 64 1039 q 103 892 64 929 q 206 856 143 856 m 324 775 l 86 775 l 86 0 l 324 0 l 324 775 "},"j":{"ha":408,"x_min":-43,"x_max":344,"o":"m 204 856 q 305 892 265 856 q 344 983 344 929 q 305 1076 344 1039 q 204 1113 265 1113 q 102 1076 142 1113 q 63 983 63 1039 q 102 892 63 929 q 204 856 142 856 m 324 -100 l 324 775 l 86 775 l 86 -103 q 69 -153 86 -137 q 14 -168 53 -168 l -43 -168 l -43 -369 l 50 -369 q 251 -306 179 -369 q 324 -100 324 -243 "},"k":{"ha":858,"x_min":86,"x_max":854,"o":"m 560 0 l 854 0 l 529 386 l 851 775 l 558 775 l 324 460 l 324 1028 l 86 1028 l 86 0 l 324 0 l 324 325 l 560 0 "},"l":{"ha":410,"x_min":86,"x_max":324,"o":"m 324 1028 l 86 1028 l 86 0 l 324 0 l 324 1028 "},"m":{"ha":1471,"x_min":86,"x_max":1390,"o":"m 1075 783 q 924 743 993 783 q 814 639 854 703 q 706 746 775 708 q 550 783 638 783 q 418 755 476 783 q 324 678 360 726 l 324 775 l 86 775 l 86 0 l 324 0 l 324 421 q 363 537 324 496 q 472 578 403 578 q 581 537 542 578 q 621 421 621 496 l 621 0 l 857 0 l 857 421 q 897 537 857 496 q 1006 578 936 578 q 1115 537 1075 578 q 1154 421 1154 496 l 1154 0 l 1390 0 l 1390 453 q 1305 696 1390 608 q 1075 783 1219 783 "},"n":{"ha":936,"x_min":86,"x_max":857,"o":"m 558 783 q 421 753 482 783 q 324 672 360 724 l 324 775 l 86 775 l 86 0 l 324 0 l 324 421 q 364 542 324 499 q 472 585 404 585 q 581 542 540 585 q 621 421 621 499 l 621 0 l 857 0 l 857 453 q 776 695 857 607 q 558 783 694 783 "},"o":{"ha":885,"x_min":39,"x_max":844,"o":"m 439 -11 q 645 38 553 -11 q 791 177 738 86 q 844 388 844 268 q 792 598 844 507 q 647 738 739 689 q 442 786 556 786 q 236 738 328 786 q 92 598 144 689 q 39 388 39 507 q 91 176 39 267 q 234 38 143 86 q 439 -11 325 -11 m 439 194 q 326 244 371 194 q 281 388 281 294 q 326 531 281 482 q 442 581 372 581 q 556 531 510 581 q 603 388 603 481 q 555 244 603 294 q 439 194 507 194 "},"p":{"ha":943,"x_min":86,"x_max":904,"o":"m 324 665 l 324 775 l 86 775 l 86 -369 l 324 -369 l 324 108 q 420 22 358 56 q 563 -11 482 -11 q 736 38 658 -11 q 859 178 814 88 q 904 389 904 269 q 859 599 904 508 q 736 738 814 689 q 563 786 658 786 q 419 753 481 786 q 324 665 358 719 m 663 389 q 613 248 663 300 q 492 196 563 196 q 372 247 421 196 q 322 388 322 299 q 372 528 322 476 q 492 579 421 579 q 613 528 564 579 q 663 389 663 478 "},"q":{"ha":943,"x_min":39,"x_max":857,"o":"m 39 386 q 87 181 39 271 q 215 40 135 90 q 390 -10 296 -10 q 522 19 464 -10 q 619 97 579 49 l 619 -369 l 857 -369 l 857 775 l 619 775 l 619 686 q 525 758 583 732 q 393 783 467 783 q 216 733 297 783 q 87 592 135 682 q 39 386 39 501 m 619 388 q 595 282 619 325 q 531 217 571 239 q 450 196 492 196 q 369 217 408 196 q 306 281 331 239 q 281 386 281 324 q 306 492 281 449 q 369 556 331 535 q 450 578 408 578 q 532 556 493 578 q 595 492 571 535 q 619 388 619 450 "},"r":{"ha":594,"x_min":86,"x_max":567,"o":"m 324 646 l 324 775 l 86 775 l 86 0 l 324 0 l 324 360 q 368 494 324 456 q 501 532 413 532 l 567 532 l 567 783 q 428 747 490 783 q 324 646 365 710 "},"s":{"ha":775,"x_min":44,"x_max":715,"o":"m 401 -11 q 567 19 496 -11 q 677 103 639 50 q 715 225 715 157 q 673 353 714 306 q 578 423 632 401 q 438 467 524 444 q 327 500 363 483 q 292 550 292 517 q 314 594 292 578 q 378 610 336 610 q 456 586 426 610 q 492 522 486 563 l 711 522 q 615 714 699 642 q 385 786 531 786 q 215 754 286 786 q 106 667 143 722 q 69 546 69 613 q 110 420 69 467 q 206 352 150 374 q 344 311 261 331 q 457 276 422 292 q 492 226 492 260 q 467 181 492 199 q 399 164 443 164 q 317 189 350 164 q 279 254 283 214 l 44 254 q 96 119 50 179 q 221 24 142 58 q 401 -11 300 -11 "},"t":{"ha":564,"x_min":29,"x_max":518,"o":"m 518 201 l 433 201 q 378 217 394 201 q 361 267 361 232 l 361 578 l 517 578 l 517 775 l 361 775 l 361 964 l 124 964 l 124 775 l 29 775 l 29 578 l 124 578 l 124 269 q 196 63 124 126 q 397 0 268 0 l 518 0 l 518 201 "},"u":{"ha":936,"x_min":79,"x_max":851,"o":"m 851 775 l 614 775 l 614 354 q 574 233 614 276 q 464 190 533 190 q 356 233 396 190 q 315 354 315 276 l 315 775 l 79 775 l 79 322 q 117 146 79 221 q 222 31 154 71 q 379 -8 290 -8 q 516 23 454 -8 q 614 106 578 54 l 614 0 l 851 0 l 851 775 "},"v":{"ha":869,"x_min":13,"x_max":856,"o":"m 435 222 l 267 775 l 13 775 l 288 0 l 581 0 l 856 775 l 603 775 l 435 222 "},"w":{"ha":1203,"x_min":6,"x_max":1199,"o":"m 1199 775 l 975 775 l 867 224 l 735 775 l 483 775 l 353 221 l 243 775 l 6 775 l 217 0 l 478 0 l 604 503 l 726 0 l 989 0 l 1199 775 "},"x":{"ha":817,"x_min":7,"x_max":811,"o":"m 544 0 l 811 0 l 544 385 l 804 775 l 547 775 l 422 561 l 274 775 l 7 775 l 269 396 l 14 0 l 271 0 l 396 215 l 544 0 "},"y":{"ha":878,"x_min":-1,"x_max":878,"o":"m 878 775 l 621 775 l 443 290 l 264 775 l -1 775 l 314 26 l 136 -368 l 392 -368 l 878 775 "},"z":{"ha":689,"x_min":43,"x_max":644,"o":"m 308 196 l 638 586 l 638 775 l 46 775 l 46 579 l 365 579 l 43 189 l 43 0 l 644 0 l 644 196 l 308 196 "},"{":{"ha":693,"x_min":126,"x_max":594,"o":"m 126 583 l 126 394 q 226 363 194 392 q 258 288 258 335 q 244 139 258 250 q 236 67 243 128 q 229 -42 229 7 q 301 -227 229 -161 q 494 -293 374 -293 l 594 -293 l 594 -99 l 540 -99 q 476 -78 496 -99 q 457 -18 457 -58 q 468 119 457 14 q 481 296 481 254 q 444 423 481 374 q 332 488 407 472 l 332 490 q 444 554 407 504 q 481 681 481 604 q 468 857 481 722 q 457 996 457 965 q 476 1056 457 1036 q 540 1075 496 1075 l 594 1075 l 594 1269 l 494 1269 q 301 1203 374 1269 q 229 1019 229 1138 q 236 910 229 971 q 244 839 243 850 q 258 690 258 728 q 226 613 258 640 q 126 583 194 586 "},"|":{"ha":404,"x_min":83,"x_max":321,"o":"m 321 -179 l 321 1132 l 83 1132 l 83 -179 l 321 -179 "},"}":{"ha":693,"x_min":99,"x_max":567,"o":"m 567 394 l 567 583 q 467 613 499 586 q 435 690 435 640 q 449 839 435 728 q 457 910 450 850 q 464 1019 464 971 q 392 1203 464 1138 q 199 1269 319 1269 l 99 1269 l 99 1075 l 153 1075 q 217 1056 197 1075 q 236 996 236 1036 q 225 857 236 965 q 213 681 213 722 q 249 554 213 604 q 361 490 286 504 l 361 488 q 249 423 286 472 q 213 296 213 374 q 225 119 213 254 q 236 -18 236 14 q 217 -78 236 -58 q 153 -99 197 -99 l 99 -99 l 99 -293 l 199 -293 q 392 -227 319 -293 q 464 -42 464 -161 q 457 67 464 7 q 449 139 450 128 q 435 288 435 250 q 467 363 435 335 q 567 394 499 392 "},"~":{"ha":883,"x_min":39,"x_max":846,"o":"m 39 289 l 213 289 q 301 381 226 381 q 349 371 326 381 q 407 342 372 361 q 488 303 453 317 q 568 289 524 289 q 749 363 676 289 q 846 590 821 436 l 669 590 q 582 499 657 499 q 533 508 557 499 q 476 538 510 518 q 395 577 431 564 q 315 590 360 590 q 135 517 207 590 q 39 289 64 443 "}," ":{"ha":294,"x_min":0,"x_max":0,"o":""},"¡":{"ha":544,"x_min":132,"x_max":414,"o":"m 274 794 q 172 758 211 794 q 132 667 132 721 q 172 574 132 611 q 274 536 211 536 q 374 574 335 536 q 414 667 414 611 q 374 758 414 721 q 274 794 335 794 m 169 439 l 142 -226 l 399 -226 l 371 439 l 169 439 "},"¢":{"ha":876,"x_min":58,"x_max":781,"o":"m 436 185 q 325 230 365 185 q 285 356 285 275 q 325 481 285 436 q 436 526 365 526 q 563 447 536 526 l 781 447 q 686 634 771 563 q 476 717 601 706 l 476 829 l 388 829 l 388 717 q 145 606 232 703 q 58 356 58 510 q 145 105 58 201 q 388 -6 232 8 l 388 -118 l 476 -118 l 476 -6 q 686 77 601 6 q 781 264 771 149 l 563 264 q 518 206 551 226 q 436 185 485 185 "},"£":{"ha":921,"x_min":50,"x_max":817,"o":"m 817 181 l 335 181 q 404 282 382 224 q 426 394 426 340 l 426 399 l 643 399 l 643 558 l 392 558 q 369 643 376 610 q 361 708 361 676 q 392 809 361 775 q 478 843 422 843 q 563 810 535 843 q 593 722 590 778 l 811 722 q 719 950 806 863 q 472 1038 633 1038 q 297 1001 374 1038 q 178 896 221 965 q 136 732 136 826 q 163 558 136 653 l 50 558 l 50 399 l 201 399 l 201 396 q 171 235 201 300 q 75 111 140 169 l 108 -6 l 817 -6 l 817 181 "},"¤":{"ha":801,"x_min":83,"x_max":718,"o":"m 692 525 q 643 676 692 613 l 718 751 l 626 844 l 535 753 q 403 775 472 775 q 268 751 331 775 l 175 844 l 83 751 l 161 674 q 114 525 114 611 q 160 378 114 442 l 83 301 l 175 208 l 264 297 q 401 272 325 272 q 538 297 478 272 l 626 208 l 718 301 l 643 376 q 692 525 692 440 m 401 411 q 329 440 358 411 q 300 524 300 468 q 329 608 300 579 q 401 638 358 638 q 475 608 446 638 q 504 524 504 579 q 474 440 504 468 q 401 411 444 411 "},"¥":{"ha":932,"x_min":10,"x_max":922,"o":"m 724 590 l 922 975 l 656 975 l 468 543 l 279 975 l 10 975 l 208 590 l 69 590 l 69 431 l 292 429 l 336 344 l 69 344 l 69 186 l 347 186 l 347 0 l 585 0 l 585 186 l 863 186 l 863 344 l 596 344 l 640 429 l 863 431 l 863 590 l 724 590 "},"¦":{"ha":529,"x_min":146,"x_max":383,"o":"m 146 1132 l 146 563 l 383 563 l 383 1132 l 146 1132 m 383 -179 l 383 390 l 146 390 l 146 -179 l 383 -179 "},"§":{"ha":815,"x_min":42,"x_max":774,"o":"m 625 131 q 738 219 703 167 q 774 339 774 271 q 715 485 774 424 q 543 596 657 547 q 412 657 456 633 q 349 703 368 681 q 331 754 331 725 q 408 822 331 822 q 489 726 483 822 l 724 726 q 635 917 718 846 q 411 989 551 989 q 240 957 313 989 q 130 868 168 925 q 92 740 92 811 q 190 547 92 629 q 77 463 113 518 q 42 339 42 408 q 100 192 42 254 q 272 82 158 131 q 403 21 360 44 q 466 -25 447 -3 q 485 -76 485 -47 q 407 -144 485 -144 q 326 -49 332 -144 l 92 -49 q 181 -240 97 -168 q 404 -311 264 -311 q 575 -279 503 -311 q 685 -190 647 -247 q 724 -62 724 -133 q 625 131 724 49 m 408 231 q 324 262 356 231 q 293 339 293 293 q 324 416 293 385 q 408 447 356 447 q 492 416 461 447 q 524 339 524 385 q 492 262 524 293 q 408 231 461 231 "},"¨":{"ha":510,"x_min":14,"x_max":496,"o":"m 115 861 q 188 890 158 861 q 218 963 218 919 q 189 1036 218 1007 q 115 1065 160 1065 q 43 1035 72 1065 q 14 963 14 1006 q 43 890 14 919 q 115 861 72 861 m 393 861 q 466 890 436 861 q 496 963 496 919 q 467 1036 496 1007 q 393 1065 438 1065 q 321 1035 350 1065 q 292 963 292 1006 q 321 890 292 919 q 393 861 350 861 "},"©":{"ha":1082,"x_min":53,"x_max":1031,"o":"m 542 989 q 288 926 399 989 q 115 749 176 863 q 53 490 53 635 q 115 232 53 346 q 288 54 176 118 q 542 -10 399 -10 q 796 54 685 -10 q 969 232 907 118 q 1031 490 1031 346 q 969 749 1031 635 q 796 926 907 863 q 542 989 685 989 m 542 911 q 757 860 665 911 q 898 713 849 808 q 947 490 947 618 q 898 268 947 364 q 757 120 849 172 q 542 68 665 68 q 326 120 418 68 q 185 268 235 172 q 136 490 136 364 q 185 713 136 618 q 326 860 235 808 q 542 911 418 911 m 543 803 q 733 742 654 803 q 833 575 811 681 l 629 575 q 595 625 619 607 q 536 643 571 643 q 456 604 485 643 q 426 490 426 565 q 456 376 426 415 q 536 338 485 338 q 629 406 606 338 l 833 406 q 732 240 811 303 q 543 178 653 178 q 384 216 454 178 q 274 325 314 254 q 235 490 235 396 q 274 656 235 585 q 384 765 314 726 q 543 803 454 803 "},"ª":{"ha":651,"x_min":35,"x_max":610,"o":"m 35 736 q 65 603 35 660 q 149 515 96 546 q 269 485 203 485 q 431 550 376 485 l 431 492 l 610 492 l 610 981 l 431 981 l 431 919 q 265 988 374 988 q 149 957 201 988 q 65 869 96 926 q 35 736 35 813 m 219 735 q 250 816 219 786 q 325 846 281 846 q 400 817 369 846 q 431 736 431 788 q 400 655 431 685 q 325 625 369 625 q 250 654 281 625 q 219 735 219 683 "},"«":{"ha":774,"x_min":63,"x_max":711,"o":"m 179 167 l 399 167 l 278 410 l 399 653 l 179 653 l 63 410 l 179 167 m 492 167 l 711 167 l 590 410 l 711 653 l 492 653 l 375 410 l 492 167 "},"¬":{"ha":996,"x_min":65,"x_max":919,"o":"m 919 614 l 65 614 l 65 433 l 682 433 l 682 250 l 919 250 l 919 614 "},"­":{"ha":806,"x_min":72,"x_max":683,"o":"m 683 586 l 72 586 l 72 389 l 683 389 l 683 586 "},"®":{"ha":714,"x_min":54,"x_max":658,"o":"m 357 990 q 201 952 269 990 q 93 846 132 914 q 54 690 54 778 q 93 535 54 604 q 201 428 132 467 q 357 390 269 390 q 513 428 444 390 q 620 535 582 467 q 658 690 658 604 q 620 846 658 778 q 513 952 582 914 q 357 990 444 990 m 357 468 q 197 529 257 468 q 138 690 138 590 q 197 851 138 790 q 357 913 257 913 q 517 851 457 913 q 576 690 576 790 q 517 529 576 590 q 357 468 457 468 m 492 746 q 463 815 492 789 q 385 842 433 842 l 231 842 l 231 547 l 331 547 l 331 650 l 339 650 l 394 547 l 508 547 l 438 661 q 477 694 463 672 q 492 746 492 717 m 329 718 l 329 758 l 368 758 q 390 739 390 758 q 368 718 390 718 l 329 718 "},"¯":{"ha":583,"x_min":14,"x_max":569,"o":"m 569 1036 l 14 1036 l 14 872 l 569 872 l 569 1036 "},"°":{"ha":643,"x_min":35,"x_max":608,"o":"m 35 735 q 72 601 35 658 q 174 513 108 544 q 324 482 239 482 q 530 551 451 482 q 608 735 608 619 q 530 917 608 850 q 322 985 451 985 q 114 917 193 985 q 35 735 35 850 m 425 733 q 395 642 425 674 q 324 611 365 611 q 249 642 281 611 q 218 733 218 674 q 249 825 218 793 q 322 857 279 857 q 394 825 364 857 q 425 733 425 793 "},"±":{"ha":874,"x_min":83,"x_max":792,"o":"m 550 496 l 792 496 l 792 707 l 550 707 l 550 869 l 325 869 l 325 707 l 83 707 l 83 496 l 325 496 l 325 364 l 83 364 l 83 154 l 792 154 l 792 364 l 550 364 l 550 496 "},"²":{"ha":532,"x_min":47,"x_max":490,"o":"m 242 628 l 326 669 q 453 750 415 713 q 490 838 490 788 q 438 946 490 900 q 285 992 385 992 q 115 943 178 992 q 47 814 51 894 l 225 814 q 267 864 229 864 q 292 853 282 864 q 301 825 301 843 q 224 725 301 774 l 54 622 l 54 489 l 483 489 l 483 628 l 242 628 "},"³":{"ha":519,"x_min":21,"x_max":485,"o":"m 29 822 l 199 822 q 243 865 204 865 q 275 855 264 865 q 286 825 286 844 q 232 779 286 779 l 193 779 l 193 701 l 240 701 q 280 690 265 701 q 294 654 294 678 q 283 621 294 632 q 251 610 271 610 q 206 653 210 610 l 21 653 q 85 528 26 572 q 263 483 144 483 q 424 522 363 483 q 485 624 485 560 q 382 736 485 708 l 382 740 q 451 776 426 750 q 476 846 476 803 q 417 951 476 910 q 263 992 358 992 q 90 943 149 992 q 29 822 32 894 "},"´":{"ha":363,"x_min":14,"x_max":349,"o":"m 349 968 l 349 1153 l 14 992 l 14 828 l 349 968 "},"µ":{"ha":979,"x_min":104,"x_max":875,"o":"m 875 775 l 638 775 l 638 354 q 598 238 638 279 q 489 197 558 197 q 380 238 419 197 q 340 354 340 279 l 340 775 l 104 775 l 104 -369 l 340 -369 l 340 3 q 403 -8 371 -8 q 542 24 482 -8 q 638 114 603 57 l 638 0 l 875 0 l 875 775 "},"¶":{"ha":983,"x_min":39,"x_max":879,"o":"m 879 0 l 879 975 l 369 975 q 183 934 257 975 q 74 825 108 893 q 39 676 39 757 q 74 528 39 596 q 183 420 108 461 q 369 379 257 379 l 401 379 l 401 0 l 597 0 l 597 794 l 683 794 l 683 0 l 879 0 "},"·":{"ha":415,"x_min":69,"x_max":351,"o":"m 211 308 q 312 345 272 308 q 351 436 351 382 q 312 529 351 492 q 211 567 272 567 q 109 529 149 567 q 69 436 69 492 q 109 345 69 382 q 211 308 149 308 "},"¸":{"ha":435,"x_min":14,"x_max":421,"o":"m 240 -51 l 240 10 l 97 10 l 97 -169 l 196 -169 q 238 -177 224 -169 q 251 -204 251 -185 q 238 -232 251 -224 q 196 -240 224 -240 l 14 -240 l 14 -371 l 228 -371 q 364 -330 307 -371 q 421 -210 421 -289 q 367 -91 421 -131 q 240 -51 313 -51 "},"¹":{"ha":346,"x_min":28,"x_max":290,"o":"m 28 840 l 111 840 l 111 489 l 290 489 l 290 978 l 28 978 l 28 840 "},"º":{"ha":636,"x_min":35,"x_max":601,"o":"m 35 735 q 70 604 35 661 q 169 515 106 547 q 317 482 233 482 q 465 515 400 482 q 565 604 529 547 q 601 735 601 661 q 566 865 601 808 q 466 953 531 921 q 318 985 401 985 q 170 953 235 985 q 70 865 106 921 q 35 735 35 808 m 418 733 q 389 651 418 681 q 317 621 360 621 q 246 650 274 621 q 218 733 218 679 q 247 818 218 789 q 317 847 275 847 q 389 818 360 847 q 418 733 418 789 "},"»":{"ha":774,"x_min":69,"x_max":718,"o":"m 190 410 l 69 167 l 289 167 l 406 410 l 289 653 l 69 653 l 190 410 m 503 410 l 382 167 l 601 167 l 718 410 l 601 653 l 382 653 l 503 410 "},"¼":{"ha":1092,"x_min":56,"x_max":1050,"o":"m 56 840 l 139 840 l 139 489 l 318 489 l 318 978 l 56 978 l 56 840 m 886 975 l 657 975 l 122 0 l 351 0 l 886 975 m 1050 86 l 1050 188 l 994 188 l 994 489 l 747 489 l 544 181 l 544 86 l 815 86 l 815 0 l 994 0 l 994 86 l 1050 86 m 824 371 l 824 192 l 715 192 l 824 371 "},"½":{"ha":1140,"x_min":56,"x_max":1058,"o":"m 139 840 l 139 489 l 318 489 l 318 978 l 56 978 l 56 840 l 139 840 m 886 978 l 657 978 l 122 0 l 351 0 l 886 978 m 810 138 l 894 179 q 1021 260 983 222 q 1058 347 1058 297 q 1006 456 1058 410 q 853 501 953 501 q 683 453 746 501 q 615 324 619 404 l 793 324 q 835 374 797 374 q 860 363 850 374 q 869 335 869 353 q 792 235 869 283 l 622 132 l 622 -1 l 1051 -1 l 1051 138 l 810 138 "},"¾":{"ha":1238,"x_min":69,"x_max":1210,"o":"m 78 822 l 247 822 q 292 865 253 865 q 324 855 313 865 q 335 825 335 844 q 281 779 335 779 l 242 779 l 242 701 l 289 701 q 328 690 314 701 q 343 654 343 678 q 331 621 343 632 q 300 610 319 610 q 254 653 258 610 l 69 653 q 134 528 75 572 q 311 483 193 483 q 472 522 411 483 q 533 624 533 560 q 431 736 533 708 l 431 740 q 500 776 475 750 q 525 846 525 803 q 466 951 525 910 q 311 992 407 992 q 139 943 197 992 q 78 822 81 894 m 1046 978 l 817 978 l 282 0 l 511 0 l 1046 978 m 1210 86 l 1210 188 l 1154 188 l 1154 489 l 892 489 l 704 181 l 704 86 l 975 86 l 975 0 l 1154 0 l 1154 86 l 1210 86 m 983 385 l 983 188 l 875 188 l 983 385 "},"¿":{"ha":747,"x_min":47,"x_max":710,"o":"m 467 794 q 366 758 406 794 q 326 667 326 721 q 366 574 326 611 q 467 536 406 536 q 569 574 529 536 q 608 667 608 611 q 569 758 608 721 q 467 794 529 794 m 375 -246 q 558 -206 482 -246 q 672 -99 633 -167 q 707 54 710 -31 l 483 54 q 456 -23 483 6 q 378 -51 428 -51 q 305 -24 332 -51 q 278 50 278 3 q 333 148 276 121 q 497 175 389 175 l 581 175 l 574 433 l 365 433 l 358 329 q 133 255 218 328 q 47 51 47 182 q 137 -168 47 -90 q 375 -246 226 -246 "},"À":{"ha":1024,"x_min":22,"x_max":1003,"o":"m 693 172 l 751 0 l 1003 0 l 650 975 l 375 975 l 22 0 l 271 0 l 329 172 l 693 172 m 632 356 l 392 356 l 511 713 l 632 356 m 674 1194 l 339 1356 l 339 1171 l 674 1031 l 674 1194 "},"Á":{"ha":1024,"x_min":22,"x_max":1003,"o":"m 693 172 l 751 0 l 1003 0 l 650 975 l 375 975 l 22 0 l 271 0 l 329 172 l 693 172 m 632 356 l 392 356 l 511 713 l 632 356 m 674 1171 l 674 1356 l 339 1194 l 339 1031 l 674 1171 "},"Â":{"ha":1024,"x_min":22,"x_max":1003,"o":"m 693 172 l 751 0 l 1003 0 l 650 975 l 375 975 l 22 0 l 271 0 l 329 172 l 693 172 m 632 356 l 392 356 l 511 713 l 632 356 m 513 1144 l 728 1031 l 728 1194 l 513 1304 l 297 1194 l 297 1031 l 513 1144 "},"Ã":{"ha":1024,"x_min":22,"x_max":1003,"o":"m 693 172 l 751 0 l 1003 0 l 650 975 l 375 975 l 22 0 l 271 0 l 329 172 l 693 172 m 632 356 l 392 356 l 511 713 l 632 356 m 235 1043 l 356 1043 q 417 1106 365 1106 q 449 1099 433 1106 q 489 1079 464 1093 q 545 1052 522 1061 q 599 1043 568 1043 q 790 1249 757 1043 l 668 1249 q 608 1186 660 1186 q 576 1192 592 1186 q 536 1213 561 1199 q 480 1240 503 1231 q 426 1249 457 1249 q 235 1043 268 1249 "},"Ä":{"ha":1024,"x_min":22,"x_max":1003,"o":"m 693 172 l 751 0 l 1003 0 l 650 975 l 375 975 l 22 0 l 271 0 l 329 172 l 693 172 m 632 356 l 392 356 l 511 713 l 632 356 m 372 1064 q 445 1093 415 1064 q 475 1165 475 1122 q 446 1239 475 1210 q 372 1268 417 1268 q 300 1238 329 1268 q 271 1165 271 1208 q 300 1093 271 1122 q 372 1064 329 1064 m 650 1064 q 723 1093 693 1064 q 753 1165 753 1122 q 724 1239 753 1210 q 650 1268 694 1268 q 578 1238 607 1268 q 549 1165 549 1208 q 578 1093 549 1122 q 650 1064 607 1064 "},"Å":{"ha":1024,"x_min":22,"x_max":1003,"o":"m 693 172 l 751 0 l 1003 0 l 650 975 l 375 975 l 22 0 l 271 0 l 329 172 l 693 172 m 632 356 l 392 356 l 511 713 l 632 356 m 683 1203 q 634 1325 683 1279 q 513 1371 585 1371 q 392 1325 440 1371 q 343 1203 343 1279 q 392 1081 343 1126 q 513 1035 440 1035 q 634 1081 585 1035 q 683 1203 683 1126 m 579 1203 q 560 1154 579 1174 q 513 1135 542 1135 q 466 1154 485 1135 q 447 1203 447 1174 q 466 1252 447 1233 q 513 1271 485 1271 q 560 1252 542 1271 q 579 1203 579 1233 "},"Æ":{"ha":1326,"x_min":8,"x_max":1258,"o":"m 907 788 l 1258 788 l 1258 975 l 507 975 l 8 0 l 265 0 l 349 164 l 669 164 l 669 0 l 1258 0 l 1258 188 l 907 188 l 907 407 l 1217 407 l 1217 588 l 907 588 l 907 788 m 669 344 l 440 344 l 669 799 l 669 344 "},"Ç":{"ha":1058,"x_min":46,"x_max":999,"o":"m 533 208 q 356 285 424 208 q 288 489 288 361 q 356 693 288 617 q 533 769 424 769 q 655 738 601 769 q 738 644 708 706 l 999 644 q 833 894 957 803 q 536 986 710 986 q 283 923 394 986 q 108 747 171 860 q 46 489 46 633 q 99 250 46 357 q 247 77 151 143 q 468 -3 343 11 l 468 -175 l 567 -175 q 608 -183 594 -175 q 622 -210 622 -190 q 608 -237 622 -229 q 567 -246 594 -246 l 385 -246 l 385 -376 l 599 -376 q 735 -335 678 -376 q 792 -215 792 -294 q 738 -97 792 -136 q 611 -57 683 -57 l 611 -3 q 859 105 757 17 q 999 333 961 193 l 738 333 q 655 240 708 272 q 533 208 601 208 "},"È":{"ha":751,"x_min":86,"x_max":683,"o":"m 324 785 l 683 785 l 683 975 l 86 975 l 86 0 l 683 0 l 683 190 l 324 190 l 324 404 l 642 404 l 642 588 l 324 588 l 324 785 m 540 1194 l 206 1356 l 206 1171 l 540 1031 l 540 1194 "},"É":{"ha":751,"x_min":86,"x_max":683,"o":"m 324 785 l 683 785 l 683 975 l 86 975 l 86 0 l 683 0 l 683 190 l 324 190 l 324 404 l 642 404 l 642 588 l 324 588 l 324 785 m 540 1171 l 540 1356 l 206 1194 l 206 1031 l 540 1171 "},"Ê":{"ha":751,"x_min":86,"x_max":683,"o":"m 324 785 l 683 785 l 683 975 l 86 975 l 86 0 l 683 0 l 683 190 l 324 190 l 324 404 l 642 404 l 642 588 l 324 588 l 324 785 m 378 1144 l 593 1031 l 593 1194 l 378 1304 l 163 1194 l 163 1031 l 378 1144 "},"Ë":{"ha":751,"x_min":86,"x_max":683,"o":"m 324 785 l 683 785 l 683 975 l 86 975 l 86 0 l 683 0 l 683 190 l 324 190 l 324 404 l 642 404 l 642 588 l 324 588 l 324 785 m 239 1064 q 312 1093 282 1064 q 342 1165 342 1122 q 313 1239 342 1210 q 239 1268 283 1268 q 167 1238 196 1268 q 138 1165 138 1208 q 167 1093 138 1122 q 239 1064 196 1064 m 517 1064 q 590 1093 560 1064 q 619 1165 619 1122 q 590 1239 619 1210 q 517 1268 561 1268 q 444 1238 474 1268 q 415 1165 415 1208 q 444 1093 415 1122 q 517 1064 474 1064 "},"Ì":{"ha":410,"x_min":32,"x_max":367,"o":"m 324 975 l 86 975 l 86 0 l 324 0 l 324 975 m 367 1194 l 32 1356 l 32 1171 l 367 1031 l 367 1194 "},"Í":{"ha":410,"x_min":32,"x_max":367,"o":"m 324 975 l 86 975 l 86 0 l 324 0 l 324 975 m 367 1171 l 367 1356 l 32 1194 l 32 1031 l 367 1171 "},"Î":{"ha":410,"x_min":-10,"x_max":421,"o":"m 324 975 l 86 975 l 86 0 l 324 0 l 324 975 m 206 1144 l 421 1031 l 421 1194 l 206 1304 l -10 1194 l -10 1031 l 206 1144 "},"Ï":{"ha":410,"x_min":-36,"x_max":446,"o":"m 324 975 l 86 975 l 86 0 l 324 0 l 324 975 m 65 1064 q 138 1093 108 1064 q 168 1165 168 1122 q 139 1239 168 1210 q 65 1268 110 1268 q -7 1238 22 1268 q -36 1165 -36 1208 q -7 1093 -36 1122 q 65 1064 22 1064 m 343 1064 q 416 1093 386 1064 q 446 1165 446 1122 q 417 1239 446 1210 q 343 1268 388 1268 q 271 1238 300 1268 q 242 1165 242 1208 q 271 1093 242 1122 q 343 1064 300 1064 "},"Ð":{"ha":1017,"x_min":6,"x_max":969,"o":"m 458 975 l 93 975 l 93 586 l 6 586 l 6 389 l 93 389 l 93 0 l 458 0 q 728 61 613 0 q 907 233 844 122 q 969 488 969 344 q 907 742 969 632 q 728 914 844 853 q 458 975 613 975 m 444 203 l 332 203 l 332 389 l 543 389 l 543 586 l 332 586 l 332 772 l 444 772 q 653 697 578 772 q 728 488 728 622 q 653 278 728 353 q 444 203 578 203 "},"Ñ":{"ha":1044,"x_min":86,"x_max":958,"o":"m 958 0 l 958 975 l 721 975 l 721 371 l 324 975 l 86 975 l 86 0 l 324 0 l 324 601 l 721 0 l 958 0 m 244 1043 l 365 1043 q 426 1106 375 1106 q 458 1099 443 1106 q 499 1079 474 1093 q 555 1052 532 1061 q 608 1043 578 1043 q 800 1249 767 1043 l 678 1249 q 618 1186 669 1186 q 586 1192 601 1186 q 546 1213 571 1199 q 490 1240 513 1231 q 436 1249 467 1249 q 244 1043 278 1249 "},"Ò":{"ha":1092,"x_min":46,"x_max":1046,"o":"m 547 -10 q 799 54 685 -10 q 979 233 913 118 q 1046 490 1046 347 q 980 747 1046 633 q 799 925 914 861 q 547 989 685 989 q 295 925 410 989 q 113 747 181 861 q 46 490 46 633 q 113 233 46 347 q 295 54 181 118 q 547 -10 410 -10 m 547 207 q 359 284 429 207 q 289 490 289 361 q 359 697 289 621 q 547 774 429 774 q 734 697 664 774 q 804 490 804 619 q 734 285 804 363 q 547 207 664 207 m 708 1194 l 374 1356 l 374 1171 l 708 1031 l 708 1194 "},"Ó":{"ha":1092,"x_min":46,"x_max":1046,"o":"m 547 -10 q 799 54 685 -10 q 979 233 913 118 q 1046 490 1046 347 q 980 747 1046 633 q 799 925 914 861 q 547 989 685 989 q 295 925 410 989 q 113 747 181 861 q 46 490 46 633 q 113 233 46 347 q 295 54 181 118 q 547 -10 410 -10 m 547 207 q 359 284 429 207 q 289 490 289 361 q 359 697 289 621 q 547 774 429 774 q 734 697 664 774 q 804 490 804 619 q 734 285 804 363 q 547 207 664 207 m 708 1171 l 708 1356 l 374 1194 l 374 1031 l 708 1171 "},"Ô":{"ha":1092,"x_min":46,"x_max":1046,"o":"m 547 -10 q 799 54 685 -10 q 979 233 913 118 q 1046 490 1046 347 q 980 747 1046 633 q 799 925 914 861 q 547 989 685 989 q 295 925 410 989 q 113 747 181 861 q 46 490 46 633 q 113 233 46 347 q 295 54 181 118 q 547 -10 410 -10 m 547 207 q 359 284 429 207 q 289 490 289 361 q 359 697 289 621 q 547 774 429 774 q 734 697 664 774 q 804 490 804 619 q 734 285 804 363 q 547 207 664 207 m 546 1144 l 761 1031 l 761 1194 l 546 1304 l 331 1194 l 331 1031 l 546 1144 "},"Õ":{"ha":1092,"x_min":46,"x_max":1046,"o":"m 547 -10 q 799 54 685 -10 q 979 233 913 118 q 1046 490 1046 347 q 980 747 1046 633 q 799 925 914 861 q 547 989 685 989 q 295 925 410 989 q 113 747 181 861 q 46 490 46 633 q 113 233 46 347 q 295 54 181 118 q 547 -10 410 -10 m 547 207 q 359 284 429 207 q 289 490 289 361 q 359 697 289 621 q 547 774 429 774 q 734 697 664 774 q 804 490 804 619 q 734 285 804 363 q 547 207 664 207 m 268 1043 l 389 1043 q 450 1106 399 1106 q 482 1099 467 1106 q 522 1079 497 1093 q 578 1052 556 1061 q 632 1043 601 1043 q 824 1249 790 1043 l 701 1249 q 642 1186 693 1186 q 610 1192 625 1186 q 569 1213 594 1199 q 513 1240 536 1231 q 460 1249 490 1249 q 268 1043 301 1249 "},"Ö":{"ha":1092,"x_min":46,"x_max":1046,"o":"m 547 -10 q 799 54 685 -10 q 979 233 913 118 q 1046 490 1046 347 q 980 747 1046 633 q 799 925 914 861 q 547 989 685 989 q 295 925 410 989 q 113 747 181 861 q 46 490 46 633 q 113 233 46 347 q 295 54 181 118 q 547 -10 410 -10 m 547 207 q 359 284 429 207 q 289 490 289 361 q 359 697 289 621 q 547 774 429 774 q 734 697 664 774 q 804 490 804 619 q 734 285 804 363 q 547 207 664 207 m 407 1064 q 480 1093 450 1064 q 510 1165 510 1122 q 481 1239 510 1210 q 407 1268 451 1268 q 335 1238 364 1268 q 306 1165 306 1208 q 335 1093 306 1122 q 407 1064 364 1064 m 685 1064 q 758 1093 728 1064 q 788 1165 788 1122 q 758 1239 788 1210 q 685 1268 729 1268 q 613 1238 642 1268 q 583 1165 583 1208 q 613 1093 583 1122 q 685 1064 642 1064 "},"×":{"ha":885,"x_min":96,"x_max":789,"o":"m 633 147 l 789 301 l 594 496 l 779 681 l 624 833 l 442 649 l 257 833 l 101 679 l 286 494 l 96 301 l 250 149 l 440 340 l 633 147 "},"Ø":{"ha":1092,"x_min":31,"x_max":1061,"o":"m 922 825 l 1061 978 l 917 978 l 843 897 q 546 989 713 989 q 294 925 408 989 q 112 747 179 861 q 44 490 44 633 q 77 306 44 392 q 169 154 110 219 l 31 1 l 175 1 l 249 83 q 387 14 311 38 q 546 -10 463 -10 q 797 54 683 -10 q 978 233 911 118 q 1044 490 1044 347 q 1013 674 1044 589 q 922 825 981 760 m 288 490 q 358 697 288 621 q 546 774 428 774 q 693 732 629 774 l 326 328 q 288 490 288 397 m 803 490 q 733 285 803 363 q 546 207 663 207 q 399 249 463 207 l 765 651 q 803 490 803 583 "},"Ù":{"ha":979,"x_min":82,"x_max":899,"o":"m 319 975 l 82 975 l 82 393 q 135 172 82 263 q 278 35 188 81 q 485 -10 369 -10 q 694 36 600 -10 q 843 172 788 82 q 899 393 899 263 l 899 975 l 661 975 l 661 392 q 617 257 661 304 q 489 210 572 210 q 363 257 406 210 q 319 392 319 304 l 319 975 m 651 1194 l 317 1356 l 317 1171 l 651 1031 l 651 1194 "},"Ú":{"ha":979,"x_min":82,"x_max":899,"o":"m 319 975 l 82 975 l 82 393 q 135 172 82 263 q 278 35 188 81 q 485 -10 369 -10 q 694 36 600 -10 q 843 172 788 82 q 899 393 899 263 l 899 975 l 661 975 l 661 392 q 617 257 661 304 q 489 210 572 210 q 363 257 406 210 q 319 392 319 304 l 319 975 m 651 1171 l 651 1356 l 317 1194 l 317 1031 l 651 1171 "},"Û":{"ha":979,"x_min":82,"x_max":899,"o":"m 319 975 l 82 975 l 82 393 q 135 172 82 263 q 278 35 188 81 q 485 -10 369 -10 q 694 36 600 -10 q 843 172 788 82 q 899 393 899 263 l 899 975 l 661 975 l 661 392 q 617 257 661 304 q 489 210 572 210 q 363 257 406 210 q 319 392 319 304 l 319 975 m 490 1144 l 706 1031 l 706 1194 l 490 1304 l 275 1194 l 275 1031 l 490 1144 "},"Ü":{"ha":979,"x_min":82,"x_max":899,"o":"m 319 975 l 82 975 l 82 393 q 135 172 82 263 q 278 35 188 81 q 485 -10 369 -10 q 694 36 600 -10 q 843 172 788 82 q 899 393 899 263 l 899 975 l 661 975 l 661 392 q 617 257 661 304 q 489 210 572 210 q 363 257 406 210 q 319 392 319 304 l 319 975 m 350 1064 q 423 1093 393 1064 q 453 1165 453 1122 q 424 1239 453 1210 q 350 1268 394 1268 q 278 1238 307 1268 q 249 1165 249 1208 q 278 1093 249 1122 q 350 1064 307 1064 m 628 1064 q 701 1093 671 1064 q 731 1165 731 1122 q 701 1239 731 1210 q 628 1268 672 1268 q 556 1238 585 1268 q 526 1165 526 1208 q 556 1093 526 1122 q 628 1064 585 1064 "},"Ý":{"ha":932,"x_min":10,"x_max":922,"o":"m 922 975 l 656 975 l 468 567 l 279 975 l 10 975 l 347 322 l 347 0 l 585 0 l 585 322 l 922 975 m 628 1171 l 628 1356 l 293 1194 l 293 1031 l 628 1171 "},"Þ":{"ha":867,"x_min":86,"x_max":829,"o":"m 829 489 q 789 647 829 578 q 668 755 749 715 q 471 794 588 794 l 321 794 l 321 975 l 86 975 l 86 0 l 324 0 l 324 185 l 471 185 q 671 226 590 185 q 790 338 751 268 q 829 489 829 407 m 453 364 l 324 364 l 324 614 l 453 614 q 554 581 521 614 q 588 489 588 547 q 554 397 588 431 q 453 364 521 364 "},"ß":{"ha":1056,"x_min":68,"x_max":989,"o":"m 68 742 l 68 0 l 304 0 l 304 725 q 340 832 304 794 q 450 869 376 869 q 543 845 508 869 q 578 778 578 821 q 561 726 578 750 q 510 664 544 701 q 445 585 467 618 q 424 508 424 551 q 474 403 424 446 q 644 318 525 361 q 736 273 713 294 q 760 219 760 251 q 740 174 760 189 q 682 158 719 158 q 613 183 639 158 q 581 251 586 208 l 363 251 q 464 55 379 124 q 686 -14 549 -14 q 845 17 776 -14 q 951 104 914 49 q 989 233 989 160 q 942 371 989 317 q 789 465 896 425 q 685 511 710 494 q 661 547 661 528 q 668 569 661 557 q 690 597 675 581 q 710 617 706 613 q 786 708 758 664 q 814 814 814 751 q 770 940 814 882 q 647 1033 726 999 q 463 1067 567 1067 q 253 1026 342 1067 q 116 911 164 985 q 68 742 68 838 "},"à":{"ha":943,"x_min":39,"x_max":857,"o":"m 39 389 q 84 178 39 269 q 207 38 129 88 q 379 -11 285 -11 q 523 22 461 -11 q 619 110 585 56 l 619 0 l 857 0 l 857 775 l 619 775 l 619 665 q 524 753 586 719 q 381 786 463 786 q 207 738 285 786 q 84 599 129 689 q 39 389 39 508 m 619 388 q 570 247 619 299 q 450 196 521 196 q 330 248 379 196 q 281 389 281 300 q 330 528 281 478 q 450 579 379 579 q 570 528 521 579 q 619 388 619 476 m 638 992 l 303 1153 l 303 968 l 638 828 l 638 992 "},"á":{"ha":943,"x_min":39,"x_max":857,"o":"m 39 389 q 84 178 39 269 q 207 38 129 88 q 379 -11 285 -11 q 523 22 461 -11 q 619 110 585 56 l 619 0 l 857 0 l 857 775 l 619 775 l 619 665 q 524 753 586 719 q 381 786 463 786 q 207 738 285 786 q 84 599 129 689 q 39 389 39 508 m 619 388 q 570 247 619 299 q 450 196 521 196 q 330 248 379 196 q 281 389 281 300 q 330 528 281 478 q 450 579 379 579 q 570 528 521 579 q 619 388 619 476 m 638 968 l 638 1153 l 303 992 l 303 828 l 638 968 "},"â":{"ha":943,"x_min":39,"x_max":857,"o":"m 39 389 q 84 178 39 269 q 207 38 129 88 q 379 -11 285 -11 q 523 22 461 -11 q 619 110 585 56 l 619 0 l 857 0 l 857 775 l 619 775 l 619 665 q 524 753 586 719 q 381 786 463 786 q 207 738 285 786 q 84 599 129 689 q 39 389 39 508 m 619 388 q 570 247 619 299 q 450 196 521 196 q 330 248 379 196 q 281 389 281 300 q 330 528 281 478 q 450 579 379 579 q 570 528 521 579 q 619 388 619 476 m 476 942 l 692 828 l 692 992 l 476 1101 l 261 992 l 261 828 l 476 942 "},"ã":{"ha":943,"x_min":39,"x_max":857,"o":"m 39 389 q 84 178 39 269 q 207 38 129 88 q 379 -11 285 -11 q 523 22 461 -11 q 619 110 585 56 l 619 0 l 857 0 l 857 775 l 619 775 l 619 665 q 524 753 586 719 q 381 786 463 786 q 207 738 285 786 q 84 599 129 689 q 39 389 39 508 m 619 388 q 570 247 619 299 q 450 196 521 196 q 330 248 379 196 q 281 389 281 300 q 330 528 281 478 q 450 579 379 579 q 570 528 521 579 q 619 388 619 476 m 199 840 l 319 840 q 381 903 329 903 q 413 897 397 903 q 453 876 428 890 q 509 849 486 858 q 563 840 532 840 q 754 1046 721 840 l 632 1046 q 572 983 624 983 q 540 990 556 983 q 500 1010 525 996 q 444 1037 467 1028 q 390 1046 421 1046 q 199 840 232 1046 "},"ä":{"ha":943,"x_min":39,"x_max":857,"o":"m 39 389 q 84 178 39 269 q 207 38 129 88 q 379 -11 285 -11 q 523 22 461 -11 q 619 110 585 56 l 619 0 l 857 0 l 857 775 l 619 775 l 619 665 q 524 753 586 719 q 381 786 463 786 q 207 738 285 786 q 84 599 129 689 q 39 389 39 508 m 619 388 q 570 247 619 299 q 450 196 521 196 q 330 248 379 196 q 281 389 281 300 q 330 528 281 478 q 450 579 379 579 q 570 528 521 579 q 619 388 619 476 m 336 861 q 409 890 379 861 q 439 963 439 919 q 410 1036 439 1007 q 336 1065 381 1065 q 264 1035 293 1065 q 235 963 235 1006 q 264 890 235 919 q 336 861 293 861 m 614 861 q 687 890 657 861 q 717 963 717 919 q 688 1036 717 1007 q 614 1065 658 1065 q 542 1035 571 1065 q 513 963 513 1006 q 542 890 513 919 q 614 861 571 861 "},"å":{"ha":943,"x_min":39,"x_max":857,"o":"m 39 389 q 84 178 39 269 q 207 38 129 88 q 379 -11 285 -11 q 523 22 461 -11 q 619 110 585 56 l 619 0 l 857 0 l 857 775 l 619 775 l 619 665 q 524 753 586 719 q 381 786 463 786 q 207 738 285 786 q 84 599 129 689 q 39 389 39 508 m 619 388 q 570 247 619 299 q 450 196 521 196 q 330 248 379 196 q 281 389 281 300 q 330 528 281 478 q 450 579 379 579 q 570 528 521 579 q 619 388 619 476 m 647 1000 q 598 1122 647 1076 q 476 1168 549 1168 q 356 1122 404 1168 q 307 1000 307 1076 q 356 878 307 924 q 476 832 404 832 q 598 878 549 832 q 647 1000 647 924 m 543 1000 q 524 951 543 971 q 476 932 506 932 q 430 951 449 932 q 411 1000 411 971 q 430 1049 411 1031 q 476 1068 449 1068 q 524 1049 506 1068 q 543 1000 543 1031 "},"æ":{"ha":1485,"x_min":39,"x_max":1446,"o":"m 1446 401 q 1402 603 1446 515 q 1280 738 1358 690 q 1101 786 1201 786 q 849 667 933 786 l 849 775 l 625 775 l 625 667 q 524 756 585 725 q 385 786 463 786 q 208 738 288 786 q 84 599 129 689 q 39 389 39 508 q 84 178 39 269 q 207 38 129 88 q 381 -11 285 -11 q 522 22 460 -11 q 622 111 585 56 l 622 0 l 849 0 l 849 111 q 952 22 886 54 q 1101 -11 1018 -11 q 1311 64 1225 -11 q 1426 257 1397 139 l 1174 257 q 1122 200 1158 221 q 1031 179 1086 179 q 920 218 967 179 q 864 333 874 257 l 1439 333 q 1446 401 1446 372 m 1203 454 l 864 454 q 924 560 876 524 q 1036 596 971 596 q 1154 558 1107 596 q 1203 454 1201 519 m 450 196 q 330 248 379 196 q 281 389 281 300 q 330 528 281 478 q 450 579 379 579 q 570 528 521 579 q 619 388 619 476 q 570 247 619 299 q 450 196 521 196 "},"ç":{"ha":840,"x_min":39,"x_max":800,"o":"m 424 192 q 319 242 358 192 q 281 388 281 293 q 319 533 281 482 q 424 583 358 583 q 547 494 515 583 l 800 494 q 672 710 769 633 q 428 786 574 786 q 226 738 314 786 q 88 599 138 689 q 39 388 39 508 q 125 122 39 226 q 354 -6 211 17 l 354 -175 l 453 -175 q 494 -183 481 -175 q 508 -210 508 -190 q 494 -237 508 -229 q 453 -246 481 -246 l 271 -246 l 271 -376 l 485 -376 q 621 -335 564 -376 q 678 -215 678 -294 q 624 -97 678 -136 q 497 -57 569 -57 l 497 -6 q 694 88 615 13 q 800 281 774 163 l 547 281 q 424 192 515 192 "},"è":{"ha":856,"x_min":39,"x_max":817,"o":"m 817 400 q 767 604 817 517 q 631 739 718 692 q 431 786 543 786 q 226 738 315 786 q 88 599 138 689 q 39 388 39 508 q 89 176 39 267 q 228 38 139 86 q 431 -11 317 -11 q 601 24 525 -11 q 728 119 678 58 q 799 257 779 181 l 546 257 q 422 182 511 182 q 322 220 363 182 q 275 331 281 258 l 813 331 q 817 400 817 367 m 574 463 l 276 463 q 327 561 286 526 q 428 596 368 596 q 532 560 490 596 q 574 463 574 524 m 590 997 l 256 1158 l 256 974 l 590 833 l 590 997 "},"é":{"ha":856,"x_min":39,"x_max":817,"o":"m 817 400 q 767 604 817 517 q 631 739 718 692 q 431 786 543 786 q 226 738 315 786 q 88 599 138 689 q 39 388 39 508 q 89 176 39 267 q 228 38 139 86 q 431 -11 317 -11 q 601 24 525 -11 q 728 119 678 58 q 799 257 779 181 l 546 257 q 422 182 511 182 q 322 220 363 182 q 275 331 281 258 l 813 331 q 817 400 817 367 m 574 463 l 276 463 q 327 561 286 526 q 428 596 368 596 q 532 560 490 596 q 574 463 574 524 m 590 974 l 590 1158 l 256 997 l 256 833 l 590 974 "},"ê":{"ha":856,"x_min":39,"x_max":817,"o":"m 817 400 q 767 604 817 517 q 631 739 718 692 q 431 786 543 786 q 226 738 315 786 q 88 599 138 689 q 39 388 39 508 q 89 176 39 267 q 228 38 139 86 q 431 -11 317 -11 q 601 24 525 -11 q 728 119 678 58 q 799 257 779 181 l 546 257 q 422 182 511 182 q 322 220 363 182 q 275 331 281 258 l 813 331 q 817 400 817 367 m 574 463 l 276 463 q 327 561 286 526 q 428 596 368 596 q 532 560 490 596 q 574 463 574 524 m 428 947 l 643 833 l 643 997 l 428 1107 l 213 997 l 213 833 l 428 947 "},"ë":{"ha":856,"x_min":39,"x_max":817,"o":"m 817 400 q 767 604 817 517 q 631 739 718 692 q 431 786 543 786 q 226 738 315 786 q 88 599 138 689 q 39 388 39 508 q 89 176 39 267 q 228 38 139 86 q 431 -11 317 -11 q 601 24 525 -11 q 728 119 678 58 q 799 257 779 181 l 546 257 q 422 182 511 182 q 322 220 363 182 q 275 331 281 258 l 813 331 q 817 400 817 367 m 574 463 l 276 463 q 327 561 286 526 q 428 596 368 596 q 532 560 490 596 q 574 463 574 524 m 288 867 q 360 896 331 867 q 390 968 390 925 q 361 1042 390 1013 q 288 1071 332 1071 q 215 1041 244 1071 q 186 968 186 1011 q 215 896 186 925 q 288 867 244 867 m 565 867 q 638 896 608 867 q 668 968 668 925 q 639 1042 668 1013 q 565 1071 610 1071 q 493 1041 522 1071 q 464 968 464 1011 q 493 896 464 925 q 565 867 522 867 "},"ì":{"ha":446,"x_min":50,"x_max":385,"o":"m 342 775 l 104 775 l 104 0 l 342 0 l 342 775 m 385 992 l 50 1153 l 50 968 l 385 828 l 385 992 "},"í":{"ha":446,"x_min":50,"x_max":385,"o":"m 342 775 l 104 775 l 104 0 l 342 0 l 342 775 m 385 968 l 385 1153 l 50 992 l 50 828 l 385 968 "},"î":{"ha":446,"x_min":8,"x_max":439,"o":"m 342 775 l 104 775 l 104 0 l 342 0 l 342 775 m 224 942 l 439 828 l 439 992 l 224 1101 l 8 992 l 8 828 l 224 942 "},"ï":{"ha":446,"x_min":-18,"x_max":464,"o":"m 342 775 l 104 775 l 104 0 l 342 0 l 342 775 m 83 861 q 156 890 126 861 q 186 963 186 919 q 157 1036 186 1007 q 83 1065 128 1065 q 11 1035 40 1065 q -18 963 -18 1006 q 11 890 -18 919 q 83 861 40 861 m 361 861 q 434 890 404 861 q 464 963 464 919 q 435 1036 464 1007 q 361 1065 406 1065 q 289 1035 318 1065 q 260 963 260 1006 q 289 890 260 919 q 361 861 318 861 "},"ð":{"ha":889,"x_min":39,"x_max":850,"o":"m 681 913 l 749 933 l 749 1026 l 617 986 l 575 1028 l 357 1028 q 453 936 407 985 l 367 910 l 367 817 l 513 861 q 585 740 554 806 q 422 783 506 783 q 228 735 315 783 q 90 598 140 688 q 39 389 39 508 q 93 179 39 269 q 240 40 147 89 q 446 -10 333 -10 q 651 42 560 -10 q 797 196 743 94 q 850 440 850 297 q 806 687 850 567 q 681 913 761 807 m 446 193 q 331 243 379 193 q 282 388 282 293 q 330 531 282 482 q 444 581 378 581 q 558 531 510 581 q 607 388 607 482 q 560 243 607 293 q 446 193 513 193 "},"ñ":{"ha":936,"x_min":86,"x_max":857,"o":"m 558 783 q 421 753 482 783 q 324 672 360 724 l 324 775 l 86 775 l 86 0 l 324 0 l 324 421 q 364 542 324 499 q 472 585 404 585 q 581 542 540 585 q 621 421 621 499 l 621 0 l 857 0 l 857 453 q 776 695 857 607 q 558 783 694 783 m 224 840 l 344 840 q 406 903 354 903 q 438 897 422 903 q 478 876 453 890 q 534 849 511 858 q 588 840 557 840 q 779 1046 746 840 l 657 1046 q 597 983 649 983 q 565 990 581 983 q 525 1010 550 996 q 469 1037 492 1028 q 415 1046 446 1046 q 224 840 257 1046 "},"ò":{"ha":885,"x_min":39,"x_max":844,"o":"m 439 -11 q 645 38 553 -11 q 791 177 738 86 q 844 388 844 268 q 792 598 844 507 q 647 738 739 689 q 442 786 556 786 q 236 738 328 786 q 92 598 144 689 q 39 388 39 507 q 91 176 39 267 q 234 38 143 86 q 439 -11 325 -11 m 439 194 q 326 244 371 194 q 281 388 281 294 q 326 531 281 482 q 442 581 372 581 q 556 531 510 581 q 603 388 603 481 q 555 244 603 294 q 439 194 507 194 m 622 997 l 288 1158 l 288 974 l 622 833 l 622 997 "},"ó":{"ha":885,"x_min":39,"x_max":844,"o":"m 439 -11 q 645 38 553 -11 q 791 177 738 86 q 844 388 844 268 q 792 598 844 507 q 647 738 739 689 q 442 786 556 786 q 236 738 328 786 q 92 598 144 689 q 39 388 39 507 q 91 176 39 267 q 234 38 143 86 q 439 -11 325 -11 m 439 194 q 326 244 371 194 q 281 388 281 294 q 326 531 281 482 q 442 581 372 581 q 556 531 510 581 q 603 388 603 481 q 555 244 603 294 q 439 194 507 194 m 622 974 l 622 1158 l 288 997 l 288 833 l 622 974 "},"ô":{"ha":885,"x_min":39,"x_max":844,"o":"m 439 -11 q 645 38 553 -11 q 791 177 738 86 q 844 388 844 268 q 792 598 844 507 q 647 738 739 689 q 442 786 556 786 q 236 738 328 786 q 92 598 144 689 q 39 388 39 507 q 91 176 39 267 q 234 38 143 86 q 439 -11 325 -11 m 439 194 q 326 244 371 194 q 281 388 281 294 q 326 531 281 482 q 442 581 372 581 q 556 531 510 581 q 603 388 603 481 q 555 244 603 294 q 439 194 507 194 m 461 947 l 676 833 l 676 997 l 461 1107 l 246 997 l 246 833 l 461 947 "},"õ":{"ha":885,"x_min":39,"x_max":844,"o":"m 439 -11 q 645 38 553 -11 q 791 177 738 86 q 844 388 844 268 q 792 598 844 507 q 647 738 739 689 q 442 786 556 786 q 236 738 328 786 q 92 598 144 689 q 39 388 39 507 q 91 176 39 267 q 234 38 143 86 q 439 -11 325 -11 m 439 194 q 326 244 371 194 q 281 388 281 294 q 326 531 281 482 q 442 581 372 581 q 556 531 510 581 q 603 388 603 481 q 555 244 603 294 q 439 194 507 194 m 182 846 l 303 846 q 364 908 313 908 q 396 902 381 908 q 436 882 411 896 q 492 855 469 864 q 546 846 515 846 q 738 1051 704 846 l 615 1051 q 556 989 607 989 q 524 995 539 989 q 483 1015 508 1001 q 427 1042 450 1033 q 374 1051 404 1051 q 182 846 215 1051 "},"ö":{"ha":885,"x_min":39,"x_max":844,"o":"m 439 -11 q 645 38 553 -11 q 791 177 738 86 q 844 388 844 268 q 792 598 844 507 q 647 738 739 689 q 442 786 556 786 q 236 738 328 786 q 92 598 144 689 q 39 388 39 507 q 91 176 39 267 q 234 38 143 86 q 439 -11 325 -11 m 439 194 q 326 244 371 194 q 281 388 281 294 q 326 531 281 482 q 442 581 372 581 q 556 531 510 581 q 603 388 603 481 q 555 244 603 294 q 439 194 507 194 m 321 867 q 394 896 364 867 q 424 968 424 925 q 394 1042 424 1013 q 321 1071 365 1071 q 249 1041 278 1071 q 219 968 219 1011 q 249 896 219 925 q 321 867 278 867 m 599 867 q 672 896 642 867 q 701 968 701 925 q 672 1042 701 1013 q 599 1071 643 1071 q 526 1041 556 1071 q 497 968 497 1011 q 526 896 497 925 q 599 867 556 867 "},"÷":{"ha":849,"x_min":74,"x_max":783,"o":"m 433 672 q 534 709 494 672 q 574 800 574 746 q 534 893 574 856 q 433 931 494 931 q 331 893 371 931 q 292 800 292 856 q 331 709 292 746 q 433 672 371 672 m 783 592 l 74 592 l 74 382 l 783 382 l 783 592 m 433 43 q 534 80 494 43 q 574 171 574 117 q 534 264 574 226 q 433 301 494 301 q 331 264 371 301 q 292 171 292 226 q 331 80 292 117 q 433 43 371 43 "},"ø":{"ha":874,"x_min":18,"x_max":856,"o":"m 746 656 l 856 775 l 728 775 l 675 718 q 436 786 574 786 q 231 738 322 786 q 86 598 139 689 q 33 388 33 507 q 126 118 33 226 l 18 0 l 146 0 l 197 56 q 433 -11 299 -11 q 640 38 547 -11 q 785 177 732 86 q 839 388 839 268 q 746 656 839 547 m 275 388 q 321 531 275 482 q 436 581 367 581 q 525 553 488 581 l 290 297 q 275 388 275 336 m 597 388 q 549 244 597 294 q 433 194 501 194 q 347 219 385 194 l 582 476 q 597 388 597 438 "},"ù":{"ha":936,"x_min":79,"x_max":851,"o":"m 851 775 l 614 775 l 614 354 q 574 233 614 276 q 464 190 533 190 q 356 233 396 190 q 315 354 315 276 l 315 775 l 79 775 l 79 322 q 117 146 79 221 q 222 31 154 71 q 379 -8 290 -8 q 516 23 454 -8 q 614 106 578 54 l 614 0 l 851 0 l 851 775 m 631 992 l 296 1153 l 296 968 l 631 828 l 631 992 "},"ú":{"ha":936,"x_min":79,"x_max":851,"o":"m 851 775 l 614 775 l 614 354 q 574 233 614 276 q 464 190 533 190 q 356 233 396 190 q 315 354 315 276 l 315 775 l 79 775 l 79 322 q 117 146 79 221 q 222 31 154 71 q 379 -8 290 -8 q 516 23 454 -8 q 614 106 578 54 l 614 0 l 851 0 l 851 775 m 631 968 l 631 1153 l 296 992 l 296 828 l 631 968 "},"û":{"ha":936,"x_min":79,"x_max":851,"o":"m 851 775 l 614 775 l 614 354 q 574 233 614 276 q 464 190 533 190 q 356 233 396 190 q 315 354 315 276 l 315 775 l 79 775 l 79 322 q 117 146 79 221 q 222 31 154 71 q 379 -8 290 -8 q 516 23 454 -8 q 614 106 578 54 l 614 0 l 851 0 l 851 775 m 469 942 l 685 828 l 685 992 l 469 1101 l 254 992 l 254 828 l 469 942 "},"ü":{"ha":936,"x_min":79,"x_max":851,"o":"m 851 775 l 614 775 l 614 354 q 574 233 614 276 q 464 190 533 190 q 356 233 396 190 q 315 354 315 276 l 315 775 l 79 775 l 79 322 q 117 146 79 221 q 222 31 154 71 q 379 -8 290 -8 q 516 23 454 -8 q 614 106 578 54 l 614 0 l 851 0 l 851 775 m 329 861 q 402 890 372 861 q 432 963 432 919 q 403 1036 432 1007 q 329 1065 374 1065 q 257 1035 286 1065 q 228 963 228 1006 q 257 890 228 919 q 329 861 286 861 m 607 861 q 680 890 650 861 q 710 963 710 919 q 681 1036 710 1007 q 607 1065 651 1065 q 535 1035 564 1065 q 506 963 506 1006 q 535 890 506 919 q 607 861 564 861 "},"ý":{"ha":878,"x_min":-1,"x_max":878,"o":"m 878 775 l 621 775 l 443 290 l 264 775 l -1 775 l 314 26 l 136 -368 l 392 -368 l 878 775 m 600 968 l 600 1153 l 265 992 l 265 828 l 600 968 "},"þ":{"ha":943,"x_min":86,"x_max":904,"o":"m 324 674 l 324 1028 l 86 1028 l 86 -369 l 324 -369 l 324 113 q 551 -10 407 -10 q 728 40 647 -10 q 857 181 810 90 q 904 386 904 271 q 857 592 904 501 q 728 733 810 682 q 551 783 647 783 q 324 674 403 783 m 663 386 q 638 281 663 324 q 575 217 614 239 q 493 196 536 196 q 412 217 451 196 q 348 282 372 239 q 324 388 324 325 q 348 492 324 450 q 411 556 372 535 q 493 578 450 578 q 574 556 535 578 q 638 492 614 535 q 663 386 663 449 "},"ÿ":{"ha":878,"x_min":-1,"x_max":878,"o":"m 878 775 l 621 775 l 443 290 l 264 775 l -1 775 l 314 26 l 136 -368 l 392 -368 l 878 775 m 299 861 q 372 890 342 861 q 401 963 401 919 q 372 1036 401 1007 q 299 1065 343 1065 q 226 1035 256 1065 q 197 963 197 1006 q 226 890 197 919 q 299 861 256 861 m 576 861 q 649 890 619 861 q 679 963 679 919 q 650 1036 679 1007 q 576 1065 621 1065 q 504 1035 533 1065 q 475 963 475 1006 q 504 890 475 919 q 576 861 533 861 "},"Ā":{"ha":1024,"x_min":22,"x_max":1003,"o":"m 693 172 l 751 0 l 1003 0 l 650 975 l 375 975 l 22 0 l 271 0 l 329 172 l 693 172 m 632 356 l 392 356 l 511 713 l 632 356 m 790 1239 l 235 1239 l 235 1075 l 790 1075 l 790 1239 "},"ā":{"ha":943,"x_min":39,"x_max":857,"o":"m 39 389 q 84 178 39 269 q 207 38 129 88 q 379 -11 285 -11 q 523 22 461 -11 q 619 110 585 56 l 619 0 l 857 0 l 857 775 l 619 775 l 619 665 q 524 753 586 719 q 381 786 463 786 q 207 738 285 786 q 84 599 129 689 q 39 389 39 508 m 619 388 q 570 247 619 299 q 450 196 521 196 q 330 248 379 196 q 281 389 281 300 q 330 528 281 478 q 450 579 379 579 q 570 528 521 579 q 619 388 619 476 m 754 1036 l 199 1036 l 199 872 l 754 872 l 754 1036 "},"Ă":{"ha":1024,"x_min":22,"x_max":1003,"o":"m 693 172 l 751 0 l 1003 0 l 650 975 l 375 975 l 22 0 l 271 0 l 329 172 l 693 172 m 632 356 l 392 356 l 511 713 l 632 356 m 750 1274 l 750 1301 l 631 1301 q 604 1232 631 1256 q 513 1208 578 1208 q 421 1232 447 1208 q 394 1301 394 1256 l 276 1301 l 276 1275 q 341 1098 276 1161 q 513 1035 406 1035 q 685 1097 619 1035 q 750 1274 750 1160 "},"ă":{"ha":943,"x_min":39,"x_max":857,"o":"m 39 389 q 84 178 39 269 q 207 38 129 88 q 379 -11 285 -11 q 523 22 461 -11 q 619 110 585 56 l 619 0 l 857 0 l 857 775 l 619 775 l 619 665 q 524 753 586 719 q 381 786 463 786 q 207 738 285 786 q 84 599 129 689 q 39 389 39 508 m 619 388 q 570 247 619 299 q 450 196 521 196 q 330 248 379 196 q 281 389 281 300 q 330 528 281 478 q 450 579 379 579 q 570 528 521 579 q 619 388 619 476 m 714 1071 l 714 1099 l 594 1099 q 568 1029 594 1053 q 476 1006 542 1006 q 385 1029 411 1006 q 358 1099 358 1053 l 240 1099 l 240 1072 q 305 895 240 958 q 476 832 369 832 q 649 894 583 832 q 714 1071 714 957 "},"Ą":{"ha":1024,"x_min":22,"x_max":1013,"o":"m 908 -168 q 862 -156 878 -168 q 846 -119 846 -143 q 866 -75 846 -96 q 938 -31 886 -54 l 1003 0 l 650 975 l 375 975 l 22 0 l 271 0 l 329 172 l 693 172 l 749 8 q 689 -60 707 -25 q 671 -139 671 -96 q 728 -260 671 -218 q 875 -301 785 -301 q 1013 -281 946 -301 l 1013 -147 q 908 -168 953 -168 m 632 356 l 392 356 l 511 713 l 632 356 "},"ą":{"ha":943,"x_min":39,"x_max":867,"o":"m 761 -168 q 716 -156 732 -168 q 700 -122 700 -143 q 721 -78 700 -99 q 793 -32 742 -58 l 857 0 l 857 775 l 619 775 l 619 665 q 524 753 586 719 q 381 786 463 786 q 207 738 285 786 q 84 599 129 689 q 39 389 39 508 q 84 178 39 269 q 207 38 129 88 q 379 -11 285 -11 q 523 22 461 -11 q 619 110 585 56 l 619 14 q 547 -60 568 -22 q 525 -143 525 -99 q 583 -260 525 -219 q 731 -301 640 -301 q 867 -281 801 -301 l 867 -147 q 761 -168 808 -168 m 450 196 q 330 248 379 196 q 281 389 281 300 q 330 528 281 478 q 450 579 379 579 q 570 528 521 579 q 619 388 619 476 q 570 247 619 299 q 450 196 521 196 "},"Ć":{"ha":1058,"x_min":46,"x_max":999,"o":"m 46 489 q 108 232 46 344 q 283 56 171 119 q 536 -7 394 -7 q 833 84 710 -7 q 999 333 957 175 l 738 333 q 655 240 708 272 q 533 208 601 208 q 356 285 424 208 q 288 489 288 361 q 356 693 288 617 q 533 769 424 769 q 655 738 601 769 q 738 644 708 706 l 999 644 q 833 894 957 803 q 536 986 710 986 q 283 923 394 986 q 108 747 171 860 q 46 489 46 633 m 694 1176 l 694 1361 l 360 1200 l 360 1036 l 694 1176 "},"ć":{"ha":840,"x_min":39,"x_max":800,"o":"m 39 388 q 88 176 39 267 q 226 38 138 86 q 428 -11 314 -11 q 671 67 572 -11 q 800 281 769 144 l 547 281 q 424 192 515 192 q 319 242 358 192 q 281 388 281 293 q 319 533 281 482 q 424 583 358 583 q 547 494 515 583 l 800 494 q 672 710 769 633 q 428 786 574 786 q 226 738 314 786 q 88 599 138 689 q 39 388 39 508 m 578 968 l 578 1153 l 243 992 l 243 828 l 578 968 "},"Ċ":{"ha":1058,"x_min":46,"x_max":999,"o":"m 46 489 q 108 232 46 344 q 283 56 171 119 q 536 -7 394 -7 q 833 84 710 -7 q 999 333 957 175 l 738 333 q 655 240 708 272 q 533 208 601 208 q 356 285 424 208 q 288 489 288 361 q 356 693 288 617 q 533 769 424 769 q 655 738 601 769 q 738 644 708 706 l 999 644 q 833 894 957 803 q 536 986 710 986 q 283 923 394 986 q 108 747 171 860 q 46 489 46 633 m 532 1069 q 605 1099 575 1069 q 635 1171 635 1128 q 606 1244 635 1215 q 532 1274 576 1274 q 460 1244 489 1274 q 431 1171 431 1214 q 460 1099 431 1128 q 532 1069 489 1069 "},"ċ":{"ha":840,"x_min":39,"x_max":800,"o":"m 39 388 q 88 176 39 267 q 226 38 138 86 q 428 -11 314 -11 q 671 67 572 -11 q 800 281 769 144 l 547 281 q 424 192 515 192 q 319 242 358 192 q 281 388 281 293 q 319 533 281 482 q 424 583 358 583 q 547 494 515 583 l 800 494 q 672 710 769 633 q 428 786 574 786 q 226 738 314 786 q 88 599 138 689 q 39 388 39 508 m 414 861 q 487 890 457 861 q 517 963 517 919 q 488 1036 517 1007 q 414 1065 458 1065 q 342 1035 371 1065 q 313 963 313 1006 q 342 890 313 919 q 414 861 371 861 "},"Č":{"ha":1058,"x_min":46,"x_max":999,"o":"m 46 489 q 108 232 46 344 q 283 56 171 119 q 536 -7 394 -7 q 833 84 710 -7 q 999 333 957 175 l 738 333 q 655 240 708 272 q 533 208 601 208 q 356 285 424 208 q 288 489 288 361 q 356 693 288 617 q 533 769 424 769 q 655 738 601 769 q 738 644 708 706 l 999 644 q 833 894 957 803 q 536 986 710 986 q 283 923 394 986 q 108 747 171 860 q 46 489 46 633 m 749 1146 l 749 1310 l 533 1189 l 318 1310 l 318 1146 l 533 1036 l 749 1146 "},"č":{"ha":840,"x_min":39,"x_max":800,"o":"m 39 388 q 88 176 39 267 q 226 38 138 86 q 428 -11 314 -11 q 671 67 572 -11 q 800 281 769 144 l 547 281 q 424 192 515 192 q 319 242 358 192 q 281 388 281 293 q 319 533 281 482 q 424 583 358 583 q 547 494 515 583 l 800 494 q 672 710 769 633 q 428 786 574 786 q 226 738 314 786 q 88 599 138 689 q 39 388 39 508 m 631 938 l 631 1101 l 415 981 l 200 1101 l 200 938 l 415 828 l 631 938 "},"Ď":{"ha":1010,"x_min":86,"x_max":963,"o":"m 451 975 l 86 975 l 86 0 l 451 0 q 720 61 604 0 q 899 233 836 122 q 963 488 963 344 q 899 742 963 632 q 721 914 836 853 q 451 975 606 975 m 436 206 l 324 206 l 324 772 l 436 772 q 646 697 571 772 q 721 488 721 622 q 646 279 721 353 q 436 206 571 206 m 711 1140 l 711 1304 l 496 1183 l 281 1304 l 281 1140 l 496 1031 l 711 1140 "},"ď":{"ha":1158,"x_min":39,"x_max":1144,"o":"m 39 389 q 84 178 39 269 q 207 38 129 88 q 381 -11 285 -11 q 524 22 463 -11 q 619 111 586 56 l 619 0 l 857 0 l 857 1028 l 619 1028 l 619 668 q 520 754 583 722 q 381 786 457 786 q 207 738 285 786 q 84 599 129 689 q 39 389 39 508 m 1117 1028 l 935 1028 l 935 857 l 1022 857 l 1022 835 q 950 743 1022 743 l 950 653 q 1095 710 1046 653 q 1144 864 1144 767 q 1117 1028 1144 944 m 619 388 q 570 247 619 299 q 450 196 521 196 q 330 248 379 196 q 281 389 281 300 q 330 528 281 478 q 450 579 379 579 q 570 528 521 579 q 619 388 619 476 "},"Đ":{"ha":1017,"x_min":6,"x_max":969,"o":"m 458 975 l 93 975 l 93 586 l 6 586 l 6 389 l 93 389 l 93 0 l 458 0 q 728 61 613 0 q 907 233 844 122 q 969 488 969 344 q 907 742 969 632 q 728 914 844 853 q 458 975 613 975 m 444 203 l 332 203 l 332 389 l 543 389 l 543 586 l 332 586 l 332 772 l 444 772 q 653 697 578 772 q 728 488 728 622 q 653 278 728 353 q 444 203 578 203 "},"đ":{"ha":961,"x_min":39,"x_max":943,"o":"m 943 821 l 943 935 l 857 935 l 857 1028 l 619 1028 l 619 935 l 522 935 l 522 821 l 619 821 l 619 668 q 520 754 583 722 q 381 786 457 786 q 207 738 285 786 q 84 599 129 689 q 39 389 39 508 q 84 178 39 269 q 207 38 129 88 q 381 -11 285 -11 q 524 22 463 -11 q 619 111 586 56 l 619 0 l 857 0 l 857 821 l 943 821 m 450 196 q 330 248 379 196 q 281 389 281 300 q 330 528 281 478 q 450 579 379 579 q 570 528 521 579 q 619 388 619 476 q 570 247 619 299 q 450 196 521 196 "},"Ē":{"ha":751,"x_min":86,"x_max":683,"o":"m 324 785 l 683 785 l 683 975 l 86 975 l 86 0 l 683 0 l 683 190 l 324 190 l 324 404 l 642 404 l 642 588 l 324 588 l 324 785 m 657 1239 l 101 1239 l 101 1075 l 657 1075 l 657 1239 "},"ē":{"ha":856,"x_min":39,"x_max":817,"o":"m 817 400 q 767 604 817 517 q 631 739 718 692 q 431 786 543 786 q 226 738 315 786 q 88 599 138 689 q 39 388 39 508 q 89 176 39 267 q 228 38 139 86 q 431 -11 317 -11 q 601 24 525 -11 q 728 119 678 58 q 799 257 779 181 l 546 257 q 422 182 511 182 q 322 220 363 182 q 275 331 281 258 l 813 331 q 817 400 817 367 m 574 463 l 276 463 q 327 561 286 526 q 428 596 368 596 q 532 560 490 596 q 574 463 574 524 m 707 1042 l 151 1042 l 151 878 l 707 878 l 707 1042 "},"Ĕ":{"ha":751,"x_min":86,"x_max":683,"o":"m 324 785 l 683 785 l 683 975 l 86 975 l 86 0 l 683 0 l 683 190 l 324 190 l 324 404 l 642 404 l 642 588 l 324 588 l 324 785 m 615 1274 l 615 1301 l 496 1301 q 469 1232 496 1256 q 378 1208 443 1208 q 286 1232 313 1208 q 260 1301 260 1256 l 142 1301 l 142 1275 q 206 1098 142 1161 q 378 1035 271 1035 q 550 1097 485 1035 q 615 1274 615 1160 "},"ĕ":{"ha":856,"x_min":39,"x_max":817,"o":"m 817 400 q 767 604 817 517 q 631 739 718 692 q 431 786 543 786 q 226 738 315 786 q 88 599 138 689 q 39 388 39 508 q 89 176 39 267 q 228 38 139 86 q 431 -11 317 -11 q 601 24 525 -11 q 728 119 678 58 q 799 257 779 181 l 546 257 q 422 182 511 182 q 322 220 363 182 q 275 331 281 258 l 813 331 q 817 400 817 367 m 574 463 l 276 463 q 327 561 286 526 q 428 596 368 596 q 532 560 490 596 q 574 463 574 524 m 665 1076 l 665 1104 l 546 1104 q 519 1035 546 1058 q 428 1011 493 1011 q 336 1035 363 1011 q 310 1104 310 1058 l 192 1104 l 192 1078 q 256 901 192 964 q 428 838 321 838 q 600 900 535 838 q 665 1076 665 963 "},"Ė":{"ha":751,"x_min":86,"x_max":683,"o":"m 324 785 l 683 785 l 683 975 l 86 975 l 86 0 l 683 0 l 683 190 l 324 190 l 324 404 l 642 404 l 642 588 l 324 588 l 324 785 m 376 1064 q 449 1093 419 1064 q 479 1165 479 1122 q 450 1239 479 1210 q 376 1268 421 1268 q 304 1238 333 1268 q 275 1165 275 1208 q 304 1093 275 1122 q 376 1064 333 1064 "},"ė":{"ha":856,"x_min":39,"x_max":817,"o":"m 817 400 q 767 604 817 517 q 631 739 718 692 q 431 786 543 786 q 226 738 315 786 q 88 599 138 689 q 39 388 39 508 q 89 176 39 267 q 228 38 139 86 q 431 -11 317 -11 q 601 24 525 -11 q 728 119 678 58 q 799 257 779 181 l 546 257 q 422 182 511 182 q 322 220 363 182 q 275 331 281 258 l 813 331 q 817 400 817 367 m 574 463 l 276 463 q 327 561 286 526 q 428 596 368 596 q 532 560 490 596 q 574 463 574 524 m 426 867 q 499 896 469 867 q 529 968 529 925 q 500 1042 529 1013 q 426 1071 471 1071 q 354 1041 383 1071 q 325 968 325 1011 q 354 896 325 925 q 426 867 383 867 "},"Ę":{"ha":751,"x_min":86,"x_max":693,"o":"m 588 -168 q 542 -156 558 -168 q 526 -122 526 -143 q 547 -78 526 -99 q 619 -32 568 -58 l 683 0 l 683 190 l 324 190 l 324 404 l 642 404 l 642 588 l 324 588 l 324 785 l 683 785 l 683 975 l 86 975 l 86 0 l 428 0 q 369 -68 386 -33 q 351 -143 351 -103 q 409 -260 351 -219 q 557 -301 467 -301 q 693 -281 628 -301 l 693 -147 q 588 -168 635 -168 "},"ę":{"ha":856,"x_min":39,"x_max":817,"o":"m 817 400 q 767 604 817 517 q 631 739 718 692 q 431 786 543 786 q 226 738 315 786 q 88 599 138 689 q 39 388 39 508 q 110 142 39 242 q 303 7 182 42 q 238 -128 238 -51 q 295 -245 238 -204 q 443 -286 353 -286 q 579 -265 514 -286 l 579 -132 q 474 -153 521 -153 q 428 -140 444 -153 q 413 -107 413 -128 q 433 -63 413 -83 q 506 -17 454 -43 l 549 4 q 710 99 644 32 q 799 257 776 167 l 546 257 q 422 182 511 182 q 322 220 363 182 q 275 331 281 258 l 813 331 q 817 400 817 367 m 574 463 l 276 463 q 327 561 286 526 q 428 596 368 596 q 532 560 490 596 q 574 463 574 524 "},"Ě":{"ha":751,"x_min":86,"x_max":683,"o":"m 324 785 l 683 785 l 683 975 l 86 975 l 86 0 l 683 0 l 683 190 l 324 190 l 324 404 l 642 404 l 642 588 l 324 588 l 324 785 m 593 1140 l 593 1304 l 378 1183 l 163 1304 l 163 1140 l 378 1031 l 593 1140 "},"ě":{"ha":856,"x_min":39,"x_max":817,"o":"m 817 400 q 767 604 817 517 q 631 739 718 692 q 431 786 543 786 q 226 738 315 786 q 88 599 138 689 q 39 388 39 508 q 89 176 39 267 q 228 38 139 86 q 431 -11 317 -11 q 601 24 525 -11 q 728 119 678 58 q 799 257 779 181 l 546 257 q 422 182 511 182 q 322 220 363 182 q 275 331 281 258 l 813 331 q 817 400 817 367 m 574 463 l 276 463 q 327 561 286 526 q 428 596 368 596 q 532 560 490 596 q 574 463 574 524 m 643 943 l 643 1107 l 428 986 l 213 1107 l 213 943 l 428 833 l 643 943 "},"Ğ":{"ha":1058,"x_min":46,"x_max":1013,"o":"m 733 667 l 996 667 q 837 901 957 817 q 542 986 717 986 q 285 923 397 986 q 109 747 172 860 q 46 489 46 633 q 109 232 46 344 q 285 56 172 119 q 543 -7 399 -7 q 763 40 665 -7 q 923 164 860 88 q 1013 329 986 240 l 1013 550 l 496 550 l 496 375 l 797 375 q 709 247 769 292 q 561 203 649 203 q 360 278 433 203 q 288 489 288 354 q 357 691 288 615 q 542 767 426 767 q 658 741 608 767 q 733 667 707 715 m 767 1274 l 767 1301 l 647 1301 q 621 1232 647 1256 q 529 1208 594 1208 q 438 1232 464 1208 q 411 1301 411 1256 l 293 1301 l 293 1275 q 358 1098 293 1161 q 529 1035 422 1035 q 701 1097 636 1035 q 767 1274 767 1160 "},"ğ":{"ha":943,"x_min":39,"x_max":857,"o":"m 381 786 q 207 738 285 786 q 84 599 129 689 q 39 389 39 508 q 84 178 39 269 q 207 38 129 88 q 381 -11 285 -11 q 524 23 463 -11 q 619 111 585 57 l 619 1 q 576 -134 619 -92 q 458 -176 532 -176 q 356 -151 397 -176 q 303 -81 314 -125 l 68 -81 q 190 -301 83 -219 q 469 -382 297 -382 q 685 -331 599 -382 q 815 -192 772 -279 q 857 1 857 -106 l 857 775 l 619 775 l 619 665 q 524 753 586 719 q 381 786 463 786 m 619 388 q 570 247 619 299 q 450 196 521 196 q 330 248 379 196 q 281 389 281 300 q 330 528 281 478 q 450 579 379 579 q 570 528 521 579 q 619 388 619 476 m 714 1071 l 714 1099 l 594 1099 q 568 1029 594 1053 q 476 1006 542 1006 q 385 1029 411 1006 q 358 1099 358 1053 l 240 1099 l 240 1072 q 305 895 240 958 q 476 832 369 832 q 649 894 583 832 q 714 1071 714 957 "},"Ġ":{"ha":1058,"x_min":46,"x_max":1013,"o":"m 733 667 l 996 667 q 837 901 957 817 q 542 986 717 986 q 285 923 397 986 q 109 747 172 860 q 46 489 46 633 q 109 232 46 344 q 285 56 172 119 q 543 -7 399 -7 q 763 40 665 -7 q 923 164 860 88 q 1013 329 986 240 l 1013 550 l 496 550 l 496 375 l 797 375 q 709 247 769 292 q 561 203 649 203 q 360 278 433 203 q 288 489 288 354 q 357 691 288 615 q 542 767 426 767 q 658 741 608 767 q 733 667 707 715 m 528 1064 q 601 1093 571 1064 q 631 1165 631 1122 q 601 1239 631 1210 q 528 1268 572 1268 q 456 1238 485 1268 q 426 1165 426 1208 q 456 1093 426 1122 q 528 1064 485 1064 "},"ġ":{"ha":943,"x_min":39,"x_max":857,"o":"m 381 786 q 207 738 285 786 q 84 599 129 689 q 39 389 39 508 q 84 178 39 269 q 207 38 129 88 q 381 -11 285 -11 q 524 23 463 -11 q 619 111 585 57 l 619 1 q 576 -134 619 -92 q 458 -176 532 -176 q 356 -151 397 -176 q 303 -81 314 -125 l 68 -81 q 190 -301 83 -219 q 469 -382 297 -382 q 685 -331 599 -382 q 815 -192 772 -279 q 857 1 857 -106 l 857 775 l 619 775 l 619 665 q 524 753 586 719 q 381 786 463 786 m 619 388 q 570 247 619 299 q 450 196 521 196 q 330 248 379 196 q 281 389 281 300 q 330 528 281 478 q 450 579 379 579 q 570 528 521 579 q 619 388 619 476 m 475 861 q 548 890 518 861 q 578 963 578 919 q 549 1036 578 1007 q 475 1065 519 1065 q 403 1035 432 1065 q 374 963 374 1006 q 403 890 374 919 q 475 861 432 861 "},"Ģ":{"ha":1061,"x_min":46,"x_max":1013,"o":"m 733 667 l 996 667 q 837 901 957 817 q 542 986 717 986 q 285 923 397 986 q 109 747 172 860 q 46 489 46 633 q 109 232 46 344 q 285 56 172 119 q 543 -7 399 -7 q 763 40 665 -7 q 923 164 860 88 q 1013 329 986 240 l 1013 550 l 496 550 l 496 375 l 797 375 q 709 247 769 292 q 561 203 649 203 q 360 278 433 203 q 288 489 288 354 q 357 691 288 615 q 542 767 426 767 q 658 741 608 767 q 733 667 707 715 m 618 -56 l 436 -56 l 436 -226 l 524 -226 l 524 -249 q 451 -340 524 -340 l 451 -431 q 597 -374 547 -431 q 646 -219 646 -317 q 618 -56 646 -139 "},"ģ":{"ha":943,"x_min":39,"x_max":857,"o":"m 397 831 l 579 831 l 579 1001 l 492 1001 l 492 1024 q 564 1115 492 1115 l 564 1206 q 419 1149 468 1206 q 369 994 369 1092 q 397 831 369 914 m 381 786 q 207 738 285 786 q 84 599 129 689 q 39 389 39 508 q 84 178 39 269 q 207 38 129 88 q 381 -11 285 -11 q 524 23 463 -11 q 619 111 585 57 l 619 1 q 576 -134 619 -92 q 458 -176 532 -176 q 356 -151 397 -176 q 303 -81 314 -125 l 68 -81 q 190 -301 83 -219 q 469 -382 297 -382 q 685 -331 599 -382 q 815 -192 772 -279 q 857 1 857 -106 l 857 775 l 619 775 l 619 665 q 524 753 586 719 q 381 786 463 786 m 619 388 q 570 247 619 299 q 450 196 521 196 q 330 248 379 196 q 281 389 281 300 q 330 528 281 478 q 450 579 379 579 q 570 528 521 579 q 619 388 619 476 "},"Ĩ":{"ha":410,"x_min":-72,"x_max":483,"o":"m 324 975 l 86 975 l 86 0 l 324 0 l 324 975 m -72 1043 l 49 1043 q 110 1106 58 1106 q 142 1099 126 1106 q 182 1079 157 1093 q 238 1052 215 1061 q 292 1043 261 1043 q 483 1249 450 1043 l 361 1249 q 301 1186 353 1186 q 269 1192 285 1186 q 229 1213 254 1199 q 173 1240 196 1231 q 119 1249 150 1249 q -72 1043 -39 1249 "},"ĩ":{"ha":446,"x_min":-54,"x_max":501,"o":"m 342 775 l 104 775 l 104 0 l 342 0 l 342 775 m -54 840 l 67 840 q 128 903 76 903 q 160 897 144 903 q 200 876 175 890 q 256 849 233 858 q 310 840 279 840 q 501 1046 468 840 l 379 1046 q 319 983 371 983 q 288 990 303 983 q 247 1010 272 996 q 191 1037 214 1028 q 138 1046 168 1046 q -54 840 -21 1046 "},"Ī":{"ha":410,"x_min":-72,"x_max":483,"o":"m 324 975 l 86 975 l 86 0 l 324 0 l 324 975 m 483 1239 l -72 1239 l -72 1075 l 483 1075 l 483 1239 "},"ī":{"ha":446,"x_min":-54,"x_max":501,"o":"m 342 775 l 104 775 l 104 0 l 342 0 l 342 775 m 501 1036 l -54 1036 l -54 872 l 501 872 l 501 1036 "},"Ĭ":{"ha":410,"x_min":-31,"x_max":443,"o":"m 324 975 l 86 975 l 86 0 l 324 0 l 324 975 m 443 1274 l 443 1301 l 324 1301 q 297 1232 324 1256 q 206 1208 271 1208 q 114 1232 140 1208 q 88 1301 88 1256 l -31 1301 l -31 1275 q 34 1098 -31 1161 q 206 1035 99 1035 q 378 1097 313 1035 q 443 1274 443 1160 "},"ĭ":{"ha":446,"x_min":-12,"x_max":461,"o":"m 342 775 l 104 775 l 104 0 l 342 0 l 342 775 m 461 1071 l 461 1099 l 342 1099 q 315 1029 342 1053 q 224 1006 289 1006 q 132 1029 158 1006 q 106 1099 106 1053 l -12 1099 l -12 1072 q 52 895 -12 958 q 224 832 117 832 q 396 894 331 832 q 461 1071 461 957 "},"Į":{"ha":410,"x_min":-8,"x_max":333,"o":"m 228 -168 q 183 -156 199 -168 q 167 -122 167 -143 q 188 -78 167 -99 q 260 -32 208 -58 l 324 0 l 324 975 l 86 975 l 86 14 q 13 -60 35 -22 q -8 -143 -8 -99 q 49 -260 -8 -219 q 197 -301 107 -301 q 333 -281 268 -301 l 333 -147 q 228 -168 275 -168 "},"į":{"ha":410,"x_min":-8,"x_max":346,"o":"m 206 856 q 306 892 267 856 q 346 983 346 929 q 306 1076 346 1039 q 206 1113 267 1113 q 103 1076 143 1113 q 64 983 64 1039 q 103 892 64 929 q 206 856 143 856 m 167 -122 q 188 -78 167 -99 q 260 -32 208 -58 l 324 0 l 324 775 l 86 775 l 86 14 q 13 -60 35 -22 q -8 -143 -8 -99 q 49 -260 -8 -219 q 197 -301 107 -301 q 333 -281 268 -301 l 333 -147 q 228 -168 275 -168 q 183 -156 199 -168 q 167 -122 167 -143 "},"İ":{"ha":410,"x_min":86,"x_max":324,"o":"m 324 975 l 86 975 l 86 0 l 324 0 l 324 975 m 204 1064 q 277 1093 247 1064 q 307 1165 307 1122 q 278 1239 307 1210 q 204 1268 249 1268 q 132 1238 161 1268 q 103 1165 103 1208 q 132 1093 103 1122 q 204 1064 161 1064 "},"ı":{"ha":446,"x_min":104,"x_max":342,"o":"m 342 775 l 104 775 l 104 0 l 342 0 l 342 775 "},"Ķ":{"ha":1000,"x_min":86,"x_max":942,"o":"m 942 0 l 550 497 l 928 975 l 649 975 l 324 547 l 324 975 l 86 975 l 86 0 l 324 0 l 324 431 l 651 0 l 942 0 m 588 -56 l 406 -56 l 406 -226 l 493 -226 l 493 -249 q 421 -340 493 -340 l 421 -431 q 566 -374 517 -431 q 615 -219 615 -317 q 588 -56 615 -139 "},"ķ":{"ha":858,"x_min":86,"x_max":854,"o":"m 854 0 l 529 386 l 851 775 l 558 775 l 324 460 l 324 1028 l 86 1028 l 86 0 l 324 0 l 324 325 l 560 0 l 854 0 m 521 -56 l 339 -56 l 339 -226 l 426 -226 l 426 -249 q 353 -340 426 -340 l 353 -431 q 498 -374 449 -431 q 547 -219 547 -317 q 521 -56 547 -140 "},"Ĺ":{"ha":663,"x_min":86,"x_max":635,"o":"m 324 183 l 324 975 l 86 975 l 86 0 l 635 0 l 635 183 l 324 183 m 476 1171 l 476 1356 l 142 1194 l 142 1031 l 476 1171 "},"ĺ":{"ha":410,"x_min":32,"x_max":367,"o":"m 324 1028 l 86 1028 l 86 0 l 324 0 l 324 1028 m 367 1221 l 367 1406 l 32 1244 l 32 1081 l 367 1221 "},"Ļ":{"ha":665,"x_min":86,"x_max":635,"o":"m 324 183 l 324 975 l 86 975 l 86 0 l 635 0 l 635 183 l 324 183 m 463 -56 l 281 -56 l 281 -226 l 368 -226 l 368 -249 q 296 -340 368 -340 l 296 -431 q 441 -374 392 -431 q 490 -219 490 -317 q 463 -56 490 -139 "},"ļ":{"ha":410,"x_min":86,"x_max":325,"o":"m 324 1028 l 86 1028 l 86 0 l 324 0 l 324 1028 m 297 -56 l 115 -56 l 115 -226 l 203 -226 l 203 -249 q 131 -340 203 -340 l 131 -431 q 276 -374 226 -431 q 325 -219 325 -317 q 297 -56 325 -139 "},"Ľ":{"ha":726,"x_min":86,"x_max":675,"o":"m 324 183 l 324 975 l 86 975 l 86 0 l 635 0 l 635 183 l 324 183 m 647 975 l 465 975 l 465 804 l 553 804 l 553 782 q 481 690 553 690 l 481 600 q 626 657 576 600 q 675 811 675 714 q 647 975 675 892 "},"ľ":{"ha":658,"x_min":86,"x_max":622,"o":"m 324 1028 l 86 1028 l 86 0 l 324 0 l 324 1028 m 596 1028 l 414 1028 l 414 857 l 501 857 l 501 835 q 429 743 501 743 l 429 653 q 574 710 525 653 q 622 864 622 767 q 596 1028 622 949 "},"Ŀ":{"ha":663,"x_min":86,"x_max":638,"o":"m 86 975 l 86 0 l 635 0 l 635 183 l 324 183 l 324 975 l 86 975 m 535 446 q 608 476 579 446 q 638 549 638 506 q 608 622 638 593 q 535 651 579 651 q 463 622 492 651 q 433 549 433 593 q 463 475 433 504 q 535 446 492 446 "},"ŀ":{"ha":529,"x_min":86,"x_max":571,"o":"m 86 1028 l 86 0 l 324 0 l 324 1028 l 86 1028 m 468 403 q 541 432 511 403 q 571 504 571 461 q 541 578 571 549 q 468 608 511 608 q 395 578 425 608 q 365 504 365 549 q 395 432 365 461 q 468 403 425 403 "},"Ł":{"ha":674,"x_min":14,"x_max":653,"o":"m 653 181 l 342 181 l 342 449 l 457 483 l 457 683 l 342 649 l 342 975 l 104 975 l 104 578 l 14 551 l 14 351 l 104 378 l 104 0 l 653 0 l 653 181 "},"ł":{"ha":446,"x_min":14,"x_max":433,"o":"m 433 482 l 433 683 l 342 656 l 342 1028 l 104 1028 l 104 585 l 14 557 l 14 356 l 104 383 l 104 0 l 342 0 l 342 454 l 433 482 "},"Ń":{"ha":1044,"x_min":86,"x_max":958,"o":"m 958 0 l 958 975 l 721 975 l 721 371 l 324 975 l 86 975 l 86 0 l 324 0 l 324 601 l 721 0 l 958 0 m 683 1171 l 683 1356 l 349 1194 l 349 1031 l 683 1171 "},"ń":{"ha":936,"x_min":86,"x_max":857,"o":"m 558 783 q 421 753 482 783 q 324 672 360 724 l 324 775 l 86 775 l 86 0 l 324 0 l 324 421 q 364 542 324 499 q 472 585 404 585 q 581 542 540 585 q 621 421 621 499 l 621 0 l 857 0 l 857 453 q 776 695 857 607 q 558 783 694 783 m 663 968 l 663 1153 l 328 992 l 328 828 l 663 968 "},"Ņ":{"ha":1081,"x_min":86,"x_max":958,"o":"m 958 0 l 958 975 l 721 975 l 721 371 l 324 975 l 86 975 l 86 0 l 324 0 l 324 601 l 721 0 l 958 0 m 628 -56 l 446 -56 l 446 -226 l 533 -226 l 533 -249 q 461 -340 533 -340 l 461 -431 q 606 -374 557 -431 q 656 -219 656 -317 q 628 -56 656 -139 "},"ņ":{"ha":936,"x_min":86,"x_max":857,"o":"m 558 783 q 421 753 482 783 q 324 672 360 724 l 324 775 l 86 775 l 86 0 l 324 0 l 324 421 q 364 542 324 499 q 472 585 404 585 q 581 542 540 585 q 621 421 621 499 l 621 0 l 857 0 l 857 453 q 776 695 857 607 q 558 783 694 783 m 574 -56 l 392 -56 l 392 -226 l 479 -226 l 479 -249 q 407 -340 479 -340 l 407 -431 q 552 -374 503 -431 q 601 -219 601 -317 q 574 -56 601 -139 "},"Ň":{"ha":1044,"x_min":86,"x_max":958,"o":"m 958 0 l 958 975 l 721 975 l 721 371 l 324 975 l 86 975 l 86 0 l 324 0 l 324 601 l 721 0 l 958 0 m 738 1140 l 738 1304 l 522 1183 l 307 1304 l 307 1140 l 522 1031 l 738 1140 "},"ň":{"ha":936,"x_min":86,"x_max":857,"o":"m 558 783 q 421 753 482 783 q 324 672 360 724 l 324 775 l 86 775 l 86 0 l 324 0 l 324 421 q 364 542 324 499 q 472 585 404 585 q 581 542 540 585 q 621 421 621 499 l 621 0 l 857 0 l 857 453 q 776 695 857 607 q 558 783 694 783 m 717 938 l 717 1101 l 501 981 l 286 1101 l 286 938 l 501 828 l 717 938 "},"Ō":{"ha":1092,"x_min":46,"x_max":1046,"o":"m 547 -10 q 799 54 685 -10 q 979 233 913 118 q 1046 490 1046 347 q 980 747 1046 633 q 799 925 914 861 q 547 989 685 989 q 295 925 410 989 q 113 747 181 861 q 46 490 46 633 q 113 233 46 347 q 295 54 181 118 q 547 -10 410 -10 m 547 207 q 359 284 429 207 q 289 490 289 361 q 359 697 289 621 q 547 774 429 774 q 734 697 664 774 q 804 490 804 619 q 734 285 804 363 q 547 207 664 207 m 825 1239 l 269 1239 l 269 1075 l 825 1075 l 825 1239 "},"ō":{"ha":885,"x_min":39,"x_max":844,"o":"m 439 -11 q 645 38 553 -11 q 791 177 738 86 q 844 388 844 268 q 792 598 844 507 q 647 738 739 689 q 442 786 556 786 q 236 738 328 786 q 92 598 144 689 q 39 388 39 507 q 91 176 39 267 q 234 38 143 86 q 439 -11 325 -11 m 439 194 q 326 244 371 194 q 281 388 281 294 q 326 531 281 482 q 442 581 372 581 q 556 531 510 581 q 603 388 603 481 q 555 244 603 294 q 439 194 507 194 m 739 1042 l 183 1042 l 183 878 l 739 878 l 739 1042 "},"Ŏ":{"ha":1092,"x_min":46,"x_max":1046,"o":"m 547 -10 q 799 54 685 -10 q 979 233 913 118 q 1046 490 1046 347 q 980 747 1046 633 q 799 925 914 861 q 547 989 685 989 q 295 925 410 989 q 113 747 181 861 q 46 490 46 633 q 113 233 46 347 q 295 54 181 118 q 547 -10 410 -10 m 547 207 q 359 284 429 207 q 289 490 289 361 q 359 697 289 621 q 547 774 429 774 q 734 697 664 774 q 804 490 804 619 q 734 285 804 363 q 547 207 664 207 m 785 1274 l 785 1301 l 665 1301 q 639 1232 665 1256 q 547 1208 613 1208 q 456 1232 482 1208 q 429 1301 429 1256 l 311 1301 l 311 1275 q 376 1098 311 1161 q 547 1035 440 1035 q 719 1097 654 1035 q 785 1274 785 1160 "},"ŏ":{"ha":885,"x_min":39,"x_max":844,"o":"m 439 -11 q 645 38 553 -11 q 791 177 738 86 q 844 388 844 268 q 792 598 844 507 q 647 738 739 689 q 442 786 556 786 q 236 738 328 786 q 92 598 144 689 q 39 388 39 507 q 91 176 39 267 q 234 38 143 86 q 439 -11 325 -11 m 439 194 q 326 244 371 194 q 281 388 281 294 q 326 531 281 482 q 442 581 372 581 q 556 531 510 581 q 603 388 603 481 q 555 244 603 294 q 439 194 507 194 m 699 1076 l 699 1104 l 579 1104 q 553 1035 579 1058 q 461 1011 526 1011 q 369 1035 396 1011 q 343 1104 343 1058 l 225 1104 l 225 1078 q 290 901 225 964 q 461 838 354 838 q 633 900 568 838 q 699 1076 699 963 "},"Ő":{"ha":1092,"x_min":46,"x_max":1046,"o":"m 547 -10 q 799 54 685 -10 q 979 233 913 118 q 1046 490 1046 347 q 980 747 1046 633 q 799 925 914 861 q 547 989 685 989 q 295 925 410 989 q 113 747 181 861 q 46 490 46 633 q 113 233 46 347 q 295 54 181 118 q 547 -10 410 -10 m 547 207 q 359 284 429 207 q 289 490 289 361 q 359 697 289 621 q 547 774 429 774 q 734 697 664 774 q 804 490 804 619 q 734 285 804 363 q 547 207 664 207 m 468 1038 l 614 1328 l 426 1328 l 322 1038 l 468 1038 m 736 1038 l 904 1328 l 715 1328 l 590 1038 l 736 1038 "},"ő":{"ha":885,"x_min":39,"x_max":844,"o":"m 439 -11 q 645 38 553 -11 q 791 177 738 86 q 844 388 844 268 q 792 598 844 507 q 647 738 739 689 q 442 786 556 786 q 236 738 328 786 q 92 598 144 689 q 39 388 39 507 q 91 176 39 267 q 234 38 143 86 q 439 -11 325 -11 m 439 194 q 326 244 371 194 q 281 388 281 294 q 326 531 281 482 q 442 581 372 581 q 556 531 510 581 q 603 388 603 481 q 555 244 603 294 q 439 194 507 194 m 382 840 l 528 1131 l 340 1131 l 236 840 l 382 840 m 650 840 l 818 1131 l 629 1131 l 504 840 l 650 840 "},"Œ":{"ha":1476,"x_min":46,"x_max":1410,"o":"m 1049 585 l 1049 788 l 1410 788 l 1410 975 l 811 975 l 811 878 q 686 961 758 933 q 528 989 614 989 q 284 925 394 989 q 110 747 174 861 q 46 489 46 633 q 110 229 46 344 q 283 50 174 114 q 528 -14 393 -14 q 811 100 710 -10 l 811 0 l 1410 0 l 1410 188 l 1049 188 l 1049 404 l 1368 404 l 1368 585 l 1049 585 m 289 489 q 359 694 289 618 q 547 771 429 771 q 734 694 664 771 q 804 489 804 618 q 734 282 804 360 q 547 204 664 204 q 359 282 429 204 q 289 489 289 360 "},"œ":{"ha":1446,"x_min":39,"x_max":1388,"o":"m 1388 401 q 1338 604 1388 517 q 1201 739 1289 692 q 1001 786 1114 786 q 846 756 917 786 q 724 669 775 725 q 599 756 672 725 q 442 786 525 786 q 236 738 328 786 q 92 598 144 689 q 39 388 39 507 q 91 176 39 267 q 234 38 143 86 q 439 -11 325 -11 q 597 19 524 -11 q 724 106 671 49 q 843 19 772 49 q 997 -11 914 -11 q 1169 24 1092 -11 q 1297 119 1246 58 q 1367 257 1347 181 l 1114 257 q 989 182 1079 182 q 889 219 928 182 q 844 333 850 257 l 1382 333 q 1388 401 1388 365 m 1144 451 l 846 451 q 895 558 854 519 q 997 596 936 596 q 1101 558 1060 596 q 1144 451 1143 519 m 439 193 q 326 244 371 193 q 281 388 281 294 q 326 532 281 482 q 440 582 372 582 q 556 532 508 582 q 603 388 603 482 q 555 244 603 294 q 439 193 507 193 "},"Ŕ":{"ha":906,"x_min":86,"x_max":851,"o":"m 583 0 l 851 0 l 626 386 q 788 494 733 418 q 843 668 843 571 q 803 824 843 754 q 681 935 763 894 q 485 975 600 975 l 86 975 l 86 0 l 324 0 l 324 368 l 381 368 l 583 0 m 324 536 l 324 778 l 471 778 q 569 746 536 778 q 601 658 601 714 q 569 568 601 600 q 471 536 536 536 l 324 536 m 607 1171 l 607 1356 l 272 1194 l 272 1031 l 607 1171 "},"ŕ":{"ha":594,"x_min":86,"x_max":567,"o":"m 324 646 l 324 775 l 86 775 l 86 0 l 324 0 l 324 360 q 368 494 324 456 q 501 532 413 532 l 567 532 l 567 783 q 428 747 490 783 q 324 646 365 710 m 521 968 l 521 1153 l 186 992 l 186 828 l 521 968 "},"Ŗ":{"ha":928,"x_min":86,"x_max":851,"o":"m 851 0 l 626 386 q 788 494 733 418 q 843 668 843 571 q 803 824 843 754 q 681 935 763 894 q 485 975 600 975 l 86 975 l 86 0 l 324 0 l 324 368 l 381 368 l 583 0 l 851 0 m 324 536 l 324 778 l 471 778 q 569 746 536 778 q 601 658 601 714 q 569 568 601 600 q 471 536 536 536 l 324 536 m 551 -56 l 369 -56 l 369 -226 l 457 -226 l 457 -249 q 385 -340 457 -340 l 385 -431 q 530 -374 481 -431 q 579 -219 579 -317 q 551 -56 579 -139 "},"ŗ":{"ha":594,"x_min":86,"x_max":567,"o":"m 324 646 l 324 775 l 86 775 l 86 0 l 324 0 l 324 360 q 368 494 324 456 q 501 532 413 532 l 567 532 l 567 783 q 428 747 490 783 q 324 646 365 710 m 292 -56 l 110 -56 l 110 -226 l 197 -226 l 197 -249 q 125 -340 197 -340 l 125 -431 q 269 -374 221 -431 q 318 -219 318 -317 q 292 -56 318 -135 "},"Ř":{"ha":906,"x_min":86,"x_max":851,"o":"m 583 0 l 851 0 l 626 386 q 788 494 733 418 q 843 668 843 571 q 803 824 843 754 q 681 935 763 894 q 485 975 600 975 l 86 975 l 86 0 l 324 0 l 324 368 l 381 368 l 583 0 m 324 536 l 324 778 l 471 778 q 569 746 536 778 q 601 658 601 714 q 569 568 601 600 q 471 536 536 536 l 324 536 m 661 1140 l 661 1304 l 446 1183 l 231 1304 l 231 1140 l 446 1031 l 661 1140 "},"ř":{"ha":594,"x_min":86,"x_max":575,"o":"m 324 646 l 324 775 l 86 775 l 86 0 l 324 0 l 324 360 q 368 494 324 456 q 501 532 413 532 l 567 532 l 567 783 q 428 747 490 783 q 324 646 365 710 m 575 938 l 575 1101 l 360 981 l 144 1101 l 144 938 l 360 828 l 575 938 "},"Ś":{"ha":854,"x_min":58,"x_max":794,"o":"m 439 -10 q 629 31 549 -10 q 752 139 710 71 q 794 290 794 207 q 751 433 794 378 q 649 518 708 489 q 496 579 590 547 q 357 636 401 610 q 313 710 313 663 q 339 776 313 753 q 408 799 365 799 q 490 772 458 799 q 525 697 522 744 l 782 697 q 676 912 775 835 q 417 989 578 989 q 160 912 258 989 q 61 699 61 835 q 104 550 61 607 q 207 464 147 493 q 361 406 267 435 q 462 371 426 386 q 522 332 497 356 q 546 272 546 308 q 515 205 546 229 q 432 181 485 181 q 349 209 381 181 q 311 292 317 238 l 58 292 q 112 128 61 196 q 247 25 163 60 q 439 -10 332 -10 m 588 1176 l 588 1361 l 253 1200 l 253 1036 l 588 1176 "},"ś":{"ha":775,"x_min":44,"x_max":715,"o":"m 401 -11 q 567 19 496 -11 q 677 103 639 50 q 715 225 715 157 q 673 353 714 306 q 578 423 632 401 q 438 467 524 444 q 327 500 363 483 q 292 550 292 517 q 314 594 292 578 q 378 610 336 610 q 456 586 426 610 q 492 522 486 563 l 711 522 q 615 714 699 642 q 385 786 531 786 q 215 754 286 786 q 106 667 143 722 q 69 546 69 613 q 110 420 69 467 q 206 352 150 374 q 344 311 261 331 q 457 276 422 292 q 492 226 492 260 q 467 181 492 199 q 399 164 443 164 q 317 189 350 164 q 279 254 283 214 l 44 254 q 96 119 50 179 q 221 24 142 58 q 401 -11 300 -11 m 557 974 l 557 1158 l 222 997 l 222 833 l 557 974 "},"Ş":{"ha":854,"x_min":58,"x_max":794,"o":"m 794 290 q 751 433 794 378 q 649 518 708 489 q 496 579 590 547 q 357 636 401 610 q 313 710 313 663 q 339 776 313 753 q 408 799 365 799 q 490 772 458 799 q 525 697 522 744 l 782 697 q 676 912 775 835 q 417 989 578 989 q 160 912 258 989 q 61 699 61 835 q 104 550 61 607 q 207 464 147 493 q 361 406 267 435 q 462 371 426 386 q 522 332 497 356 q 546 272 546 308 q 515 205 546 229 q 432 181 485 181 q 349 209 381 181 q 311 292 317 238 l 58 292 q 147 88 63 165 q 367 -6 232 11 l 367 -179 l 465 -179 q 507 -187 493 -179 q 521 -214 521 -194 q 507 -242 521 -233 q 465 -250 493 -250 l 283 -250 l 283 -381 l 497 -381 q 633 -340 576 -381 q 690 -219 690 -299 q 636 -101 690 -140 q 510 -61 582 -61 l 510 -6 q 719 96 643 14 q 794 290 794 178 "},"ş":{"ha":775,"x_min":44,"x_max":715,"o":"m 478 -57 l 478 -6 q 652 74 589 13 q 715 225 715 136 q 673 353 714 306 q 578 423 632 401 q 438 467 524 444 q 327 500 363 483 q 292 550 292 517 q 314 594 292 578 q 378 610 336 610 q 456 586 426 610 q 492 522 486 563 l 711 522 q 615 714 699 642 q 385 786 531 786 q 215 754 286 786 q 106 667 143 722 q 69 546 69 613 q 110 420 69 467 q 206 352 150 374 q 344 311 261 331 q 457 276 422 292 q 492 226 492 260 q 467 181 492 199 q 399 164 443 164 q 317 189 350 164 q 279 254 283 214 l 44 254 q 130 81 51 153 q 335 -7 208 10 l 335 -175 l 433 -175 q 475 -183 461 -175 q 489 -210 489 -190 q 475 -237 489 -229 q 433 -246 461 -246 l 251 -246 l 251 -376 l 465 -376 q 601 -335 544 -376 q 658 -215 658 -294 q 604 -97 658 -136 q 478 -57 550 -57 "},"Š":{"ha":854,"x_min":58,"x_max":794,"o":"m 439 -10 q 629 31 549 -10 q 752 139 710 71 q 794 290 794 207 q 751 433 794 378 q 649 518 708 489 q 496 579 590 547 q 357 636 401 610 q 313 710 313 663 q 339 776 313 753 q 408 799 365 799 q 490 772 458 799 q 525 697 522 744 l 782 697 q 676 912 775 835 q 417 989 578 989 q 160 912 258 989 q 61 699 61 835 q 104 550 61 607 q 207 464 147 493 q 361 406 267 435 q 462 371 426 386 q 522 332 497 356 q 546 272 546 308 q 515 205 546 229 q 432 181 485 181 q 349 209 381 181 q 311 292 317 238 l 58 292 q 112 128 61 196 q 247 25 163 60 q 439 -10 332 -10 m 640 1146 l 640 1310 l 425 1189 l 210 1310 l 210 1146 l 425 1036 l 640 1146 "},"š":{"ha":775,"x_min":44,"x_max":715,"o":"m 401 -11 q 567 19 496 -11 q 677 103 639 50 q 715 225 715 157 q 673 353 714 306 q 578 423 632 401 q 438 467 524 444 q 327 500 363 483 q 292 550 292 517 q 314 594 292 578 q 378 610 336 610 q 456 586 426 610 q 492 522 486 563 l 711 522 q 615 714 699 642 q 385 786 531 786 q 215 754 286 786 q 106 667 143 722 q 69 546 69 613 q 110 420 69 467 q 206 352 150 374 q 344 311 261 331 q 457 276 422 292 q 492 226 492 260 q 467 181 492 199 q 399 164 443 164 q 317 189 350 164 q 279 254 283 214 l 44 254 q 96 119 50 179 q 221 24 142 58 q 401 -11 300 -11 m 611 943 l 611 1107 l 396 986 l 181 1107 l 181 943 l 396 833 l 611 943 "},"Ţ":{"ha":821,"x_min":33,"x_max":788,"o":"m 488 0 l 529 0 l 529 785 l 788 785 l 788 975 l 33 975 l 33 785 l 292 785 l 292 0 l 344 0 l 344 -175 l 443 -175 q 485 -183 471 -175 q 499 -210 499 -190 q 485 -237 499 -229 q 443 -246 471 -246 l 261 -246 l 261 -376 l 475 -376 q 611 -335 554 -376 q 668 -215 668 -294 q 614 -97 668 -136 q 488 -57 560 -57 l 488 0 "},"ţ":{"ha":564,"x_min":29,"x_max":558,"o":"m 378 -51 l 378 0 l 397 0 l 518 0 l 518 201 l 433 201 q 378 217 394 201 q 361 267 361 232 l 361 578 l 517 578 l 517 775 l 361 775 l 361 964 l 124 964 l 124 775 l 29 775 l 29 578 l 124 578 l 124 269 q 235 35 124 97 l 235 -169 l 333 -169 q 375 -177 361 -169 q 389 -204 389 -185 q 375 -232 389 -224 q 333 -240 361 -240 l 153 -240 l 153 -371 l 365 -371 q 501 -330 444 -371 q 558 -210 558 -289 q 504 -91 558 -131 q 378 -51 450 -51 "},"Ť":{"ha":821,"x_min":33,"x_max":788,"o":"m 788 975 l 33 975 l 33 785 l 292 785 l 292 0 l 529 0 l 529 785 l 788 785 l 788 975 m 622 1140 l 622 1304 l 407 1183 l 192 1304 l 192 1140 l 407 1031 l 622 1140 "},"ť":{"ha":567,"x_min":29,"x_max":642,"o":"m 614 1167 l 432 1167 l 432 996 l 519 996 l 519 974 q 447 924 519 924 l 447 833 q 592 882 543 833 q 642 1017 642 931 q 635 1088 642 1054 q 614 1167 629 1122 m 361 267 l 361 578 l 517 578 l 517 775 l 361 775 l 361 964 l 124 964 l 124 775 l 29 775 l 29 578 l 124 578 l 124 269 q 196 63 124 126 q 397 0 268 0 l 518 0 l 518 201 l 433 201 q 378 217 394 201 q 361 267 361 232 "},"Ũ":{"ha":979,"x_min":82,"x_max":899,"o":"m 319 975 l 82 975 l 82 393 q 135 172 82 263 q 278 35 188 81 q 485 -10 369 -10 q 694 36 600 -10 q 843 172 788 82 q 899 393 899 263 l 899 975 l 661 975 l 661 392 q 617 257 661 304 q 489 210 572 210 q 363 257 406 210 q 319 392 319 304 l 319 975 m 213 1043 l 333 1043 q 394 1106 343 1106 q 426 1099 411 1106 q 467 1079 442 1093 q 523 1052 500 1061 q 576 1043 546 1043 q 768 1249 735 1043 l 646 1249 q 586 1186 638 1186 q 554 1192 569 1186 q 514 1213 539 1199 q 458 1240 481 1231 q 404 1249 435 1249 q 213 1043 246 1249 "},"ũ":{"ha":936,"x_min":79,"x_max":851,"o":"m 851 775 l 614 775 l 614 354 q 574 233 614 276 q 464 190 533 190 q 356 233 396 190 q 315 354 315 276 l 315 775 l 79 775 l 79 322 q 117 146 79 221 q 222 31 154 71 q 379 -8 290 -8 q 516 23 454 -8 q 614 106 578 54 l 614 0 l 851 0 l 851 775 m 190 840 l 311 840 q 372 903 321 903 q 404 897 389 903 q 444 876 419 890 q 501 849 478 858 q 554 840 524 840 q 746 1046 713 840 l 624 1046 q 564 983 615 983 q 532 990 547 983 q 492 1010 517 996 q 435 1037 458 1028 q 382 1046 413 1046 q 190 840 224 1046 "},"Ū":{"ha":979,"x_min":82,"x_max":899,"o":"m 319 975 l 82 975 l 82 393 q 135 172 82 263 q 278 35 188 81 q 485 -10 369 -10 q 694 36 600 -10 q 843 172 788 82 q 899 393 899 263 l 899 975 l 661 975 l 661 392 q 617 257 661 304 q 489 210 572 210 q 363 257 406 210 q 319 392 319 304 l 319 975 m 768 1239 l 213 1239 l 213 1075 l 768 1075 l 768 1239 "},"ū":{"ha":936,"x_min":79,"x_max":851,"o":"m 851 775 l 614 775 l 614 354 q 574 233 614 276 q 464 190 533 190 q 356 233 396 190 q 315 354 315 276 l 315 775 l 79 775 l 79 322 q 117 146 79 221 q 222 31 154 71 q 379 -8 290 -8 q 516 23 454 -8 q 614 106 578 54 l 614 0 l 851 0 l 851 775 m 747 1036 l 192 1036 l 192 872 l 747 872 l 747 1036 "},"Ŭ":{"ha":979,"x_min":82,"x_max":899,"o":"m 319 975 l 82 975 l 82 393 q 135 172 82 263 q 278 35 188 81 q 485 -10 369 -10 q 694 36 600 -10 q 843 172 788 82 q 899 393 899 263 l 899 975 l 661 975 l 661 392 q 617 257 661 304 q 489 210 572 210 q 363 257 406 210 q 319 392 319 304 l 319 975 m 728 1274 l 728 1301 l 608 1301 q 582 1232 608 1256 q 490 1208 556 1208 q 399 1232 425 1208 q 372 1301 372 1256 l 254 1301 l 254 1275 q 319 1098 254 1161 q 490 1035 383 1035 q 663 1097 597 1035 q 728 1274 728 1160 "},"ŭ":{"ha":936,"x_min":79,"x_max":851,"o":"m 851 775 l 614 775 l 614 354 q 574 233 614 276 q 464 190 533 190 q 356 233 396 190 q 315 354 315 276 l 315 775 l 79 775 l 79 322 q 117 146 79 221 q 222 31 154 71 q 379 -8 290 -8 q 516 23 454 -8 q 614 106 578 54 l 614 0 l 851 0 l 851 775 m 707 1071 l 707 1099 l 588 1099 q 561 1029 588 1053 q 469 1006 535 1006 q 378 1029 404 1006 q 351 1099 351 1053 l 233 1099 l 233 1072 q 298 895 233 958 q 469 832 363 832 q 642 894 576 832 q 707 1071 707 957 "},"Ů":{"ha":979,"x_min":82,"x_max":899,"o":"m 319 975 l 82 975 l 82 393 q 135 172 82 263 q 278 35 188 81 q 485 -10 369 -10 q 694 36 600 -10 q 843 172 788 82 q 899 393 899 263 l 899 975 l 661 975 l 661 392 q 617 257 661 304 q 489 210 572 210 q 363 257 406 210 q 319 392 319 304 l 319 975 m 661 1203 q 612 1325 661 1279 q 490 1371 563 1371 q 369 1325 418 1371 q 321 1203 321 1279 q 369 1081 321 1126 q 490 1035 418 1035 q 612 1081 563 1035 q 661 1203 661 1126 m 557 1203 q 538 1154 557 1174 q 490 1135 519 1135 q 444 1154 463 1135 q 425 1203 425 1174 q 444 1252 425 1233 q 490 1271 463 1271 q 538 1252 519 1271 q 557 1203 557 1233 "},"ů":{"ha":936,"x_min":79,"x_max":851,"o":"m 851 775 l 614 775 l 614 354 q 574 233 614 276 q 464 190 533 190 q 356 233 396 190 q 315 354 315 276 l 315 775 l 79 775 l 79 322 q 117 146 79 221 q 222 31 154 71 q 379 -8 290 -8 q 516 23 454 -8 q 614 106 578 54 l 614 0 l 851 0 l 851 775 m 640 1000 q 591 1122 640 1076 q 469 1168 542 1168 q 349 1122 397 1168 q 300 1000 300 1076 q 349 878 300 924 q 469 832 397 832 q 591 878 542 832 q 640 1000 640 924 m 536 1000 q 517 951 536 971 q 469 932 499 932 q 423 951 442 932 q 404 1000 404 971 q 423 1049 404 1031 q 469 1068 442 1068 q 517 1049 499 1068 q 536 1000 536 1031 "},"Ű":{"ha":979,"x_min":82,"x_max":899,"o":"m 319 975 l 82 975 l 82 393 q 135 172 82 263 q 278 35 188 81 q 485 -10 369 -10 q 694 36 600 -10 q 843 172 788 82 q 899 393 899 263 l 899 975 l 661 975 l 661 392 q 617 257 661 304 q 489 210 572 210 q 363 257 406 210 q 319 392 319 304 l 319 975 m 411 1038 l 557 1328 l 369 1328 l 265 1038 l 411 1038 m 679 1038 l 847 1328 l 658 1328 l 533 1038 l 679 1038 "},"ű":{"ha":936,"x_min":79,"x_max":851,"o":"m 851 775 l 614 775 l 614 354 q 574 233 614 276 q 464 190 533 190 q 356 233 396 190 q 315 354 315 276 l 315 775 l 79 775 l 79 322 q 117 146 79 221 q 222 31 154 71 q 379 -8 290 -8 q 516 23 454 -8 q 614 106 578 54 l 614 0 l 851 0 l 851 775 m 390 835 l 536 1125 l 349 1125 l 244 835 l 390 835 m 658 835 l 826 1125 l 638 1125 l 513 835 l 658 835 "},"Ų":{"ha":979,"x_min":82,"x_max":899,"o":"m 899 975 l 661 975 l 661 392 q 617 257 661 304 q 489 210 572 210 q 363 257 406 210 q 319 392 319 304 l 319 975 l 82 975 l 82 393 q 156 139 82 238 q 354 7 229 40 q 291 -63 310 -28 q 272 -140 272 -99 q 330 -258 272 -217 q 478 -299 388 -299 q 614 -278 549 -299 l 614 -144 q 508 -165 556 -165 q 463 -153 479 -165 q 447 -119 447 -140 q 468 -76 447 -96 q 540 -29 489 -56 l 604 3 l 604 4 q 817 135 736 35 q 899 393 899 235 l 899 975 "},"ų":{"ha":936,"x_min":79,"x_max":861,"o":"m 756 -171 q 710 -158 726 -171 q 694 -125 694 -146 q 715 -81 694 -101 q 788 -35 736 -61 l 851 -3 l 850 0 l 851 0 l 851 775 l 614 775 l 614 354 q 574 233 614 276 q 464 190 533 190 q 356 233 396 190 q 315 354 315 276 l 315 775 l 79 775 l 79 322 q 117 146 79 221 q 222 31 154 71 q 379 -8 290 -8 q 516 23 454 -8 q 614 106 578 54 l 614 11 q 541 -63 563 -25 q 519 -146 519 -101 q 577 -263 519 -222 q 725 -304 635 -304 q 861 -283 796 -304 l 861 -150 q 756 -171 803 -171 "},"Ŵ":{"ha":1461,"x_min":35,"x_max":1428,"o":"m 1428 975 l 1172 975 l 1031 265 l 864 975 l 603 975 l 429 265 l 289 975 l 35 975 l 282 0 l 569 0 l 731 642 l 886 0 l 1174 0 l 1428 975 m 728 1146 l 943 1032 l 943 1196 l 728 1306 l 513 1196 l 513 1032 l 728 1146 "},"ŵ":{"ha":1203,"x_min":6,"x_max":1199,"o":"m 1199 775 l 975 775 l 867 224 l 735 775 l 483 775 l 353 221 l 243 775 l 6 775 l 217 0 l 478 0 l 604 503 l 726 0 l 989 0 l 1199 775 m 603 942 l 818 828 l 818 992 l 603 1101 l 388 992 l 388 828 l 603 942 "},"Ŷ":{"ha":932,"x_min":10,"x_max":922,"o":"m 922 975 l 656 975 l 468 567 l 279 975 l 10 975 l 347 322 l 347 0 l 585 0 l 585 322 l 922 975 m 467 1144 l 682 1031 l 682 1194 l 467 1304 l 251 1194 l 251 1031 l 467 1144 "},"ŷ":{"ha":878,"x_min":-1,"x_max":878,"o":"m 878 775 l 621 775 l 443 290 l 264 775 l -1 775 l 314 26 l 136 -368 l 392 -368 l 878 775 m 439 942 l 654 828 l 654 992 l 439 1101 l 224 992 l 224 828 l 439 942 "},"Ÿ":{"ha":932,"x_min":10,"x_max":922,"o":"m 922 975 l 656 975 l 468 567 l 279 975 l 10 975 l 347 322 l 347 0 l 585 0 l 585 322 l 922 975 m 326 1064 q 399 1093 369 1064 q 429 1165 429 1122 q 400 1239 429 1210 q 326 1268 371 1268 q 254 1238 283 1268 q 225 1165 225 1208 q 254 1093 225 1122 q 326 1064 283 1064 m 604 1064 q 677 1093 647 1064 q 707 1165 707 1122 q 678 1239 707 1210 q 604 1268 649 1268 q 532 1238 561 1268 q 503 1165 503 1208 q 532 1093 503 1122 q 604 1064 561 1064 "},"Ź":{"ha":828,"x_min":69,"x_max":758,"o":"m 339 194 l 758 794 l 758 975 l 69 975 l 69 781 l 486 781 l 69 181 l 69 0 l 758 0 l 758 194 l 339 194 m 575 1171 l 575 1356 l 240 1194 l 240 1031 l 575 1171 "},"ź":{"ha":689,"x_min":43,"x_max":644,"o":"m 308 196 l 638 586 l 638 775 l 46 775 l 46 579 l 365 579 l 43 189 l 43 0 l 644 0 l 644 196 l 308 196 m 511 968 l 511 1153 l 176 992 l 176 828 l 511 968 "},"Ż":{"ha":828,"x_min":69,"x_max":758,"o":"m 339 194 l 758 794 l 758 975 l 69 975 l 69 781 l 486 781 l 69 181 l 69 0 l 758 0 l 758 194 l 339 194 m 413 1064 q 485 1093 456 1064 q 515 1165 515 1122 q 486 1239 515 1210 q 413 1268 457 1268 q 340 1238 369 1268 q 311 1165 311 1208 q 340 1093 311 1122 q 413 1064 369 1064 "},"ż":{"ha":689,"x_min":43,"x_max":644,"o":"m 308 196 l 638 586 l 638 775 l 46 775 l 46 579 l 365 579 l 43 189 l 43 0 l 644 0 l 644 196 l 308 196 m 349 861 q 422 890 392 861 q 451 963 451 919 q 422 1036 451 1007 q 349 1065 393 1065 q 276 1035 306 1065 q 247 963 247 1006 q 276 890 247 919 q 349 861 306 861 "},"Ž":{"ha":828,"x_min":69,"x_max":758,"o":"m 339 194 l 758 794 l 758 975 l 69 975 l 69 781 l 486 781 l 69 181 l 69 0 l 758 0 l 758 194 l 339 194 m 629 1140 l 629 1304 l 414 1183 l 199 1304 l 199 1140 l 414 1031 l 629 1140 "},"ž":{"ha":689,"x_min":43,"x_max":644,"o":"m 308 196 l 638 586 l 638 775 l 46 775 l 46 579 l 365 579 l 43 189 l 43 0 l 644 0 l 644 196 l 308 196 m 565 938 l 565 1101 l 350 981 l 135 1101 l 135 938 l 350 828 l 565 938 "},"Ə":{"ha":1081,"x_min":63,"x_max":1021,"o":"m 539 994 q 328 951 424 994 q 169 832 233 908 q 78 656 104 756 l 336 656 q 413 747 358 714 q 542 781 468 781 q 703 721 638 781 q 774 557 768 661 l 68 557 q 63 471 63 499 q 122 213 63 322 q 290 47 182 104 q 540 -11 397 -11 q 792 51 683 -11 q 961 228 901 114 q 1021 492 1021 342 q 960 756 1021 642 q 791 932 900 869 q 539 994 682 994 m 536 207 q 375 260 439 207 q 307 397 311 313 l 772 397 q 695 258 761 308 q 536 207 629 207 "},"ƒ":{"ha":467,"x_min":-87,"x_max":486,"o":"m 465 886 l 486 1088 q 223 1019 313 1088 q 118 804 133 951 l 115 775 l 40 775 l 21 578 l 94 578 l 21 -114 q -31 -168 15 -168 l -68 -168 l -87 -369 l -50 -369 q 163 -312 83 -369 q 258 -114 243 -254 l 332 578 l 444 578 l 464 775 l 353 775 l 356 804 q 385 867 360 849 q 465 886 411 886 "},"Ǽ":{"ha":1326,"x_min":8,"x_max":1258,"o":"m 907 788 l 1258 788 l 1258 975 l 507 975 l 8 0 l 265 0 l 349 164 l 669 164 l 669 0 l 1258 0 l 1258 188 l 907 188 l 907 407 l 1217 407 l 1217 588 l 907 588 l 907 788 m 669 344 l 440 344 l 669 799 l 669 344 m 878 1169 l 878 1354 l 543 1193 l 543 1029 l 878 1169 "},"ǽ":{"ha":1486,"x_min":39,"x_max":1446,"o":"m 1446 401 q 1402 603 1446 515 q 1280 738 1358 690 q 1101 786 1201 786 q 849 667 933 786 l 849 775 l 625 775 l 625 667 q 524 756 585 725 q 385 786 463 786 q 208 738 288 786 q 84 599 129 689 q 39 389 39 508 q 84 178 39 269 q 207 38 129 88 q 381 -11 285 -11 q 522 22 460 -11 q 622 111 585 56 l 622 0 l 849 0 l 849 111 q 952 22 886 54 q 1101 -11 1018 -11 q 1311 64 1225 -11 q 1426 257 1397 139 l 1174 257 q 1122 200 1158 221 q 1031 179 1086 179 q 920 218 967 179 q 864 333 874 257 l 1439 333 q 1446 401 1446 372 m 1203 454 l 864 454 q 924 560 876 524 q 1036 596 971 596 q 1154 558 1107 596 q 1203 454 1201 519 m 450 196 q 330 248 379 196 q 281 389 281 300 q 330 528 281 478 q 450 579 379 579 q 570 528 521 579 q 619 388 619 476 q 570 247 619 299 q 450 196 521 196 m 947 968 l 947 1153 l 613 992 l 613 828 l 947 968 "},"Ș":{"ha":899,"x_min":58,"x_max":794,"o":"m 439 -10 q 629 31 549 -10 q 752 139 710 71 q 794 290 794 207 q 751 433 794 378 q 649 518 708 489 q 496 579 590 547 q 357 636 401 610 q 313 710 313 663 q 339 776 313 753 q 408 799 365 799 q 490 772 458 799 q 525 697 522 744 l 782 697 q 676 912 775 835 q 417 989 578 989 q 160 912 258 989 q 61 699 61 835 q 104 550 61 607 q 207 464 147 493 q 361 406 267 435 q 462 371 426 386 q 522 332 497 356 q 546 272 546 308 q 515 205 546 229 q 432 181 485 181 q 349 209 381 181 q 311 292 317 238 l 58 292 q 112 128 61 196 q 247 25 163 60 q 439 -10 332 -10 m 538 -56 l 356 -56 l 356 -226 l 443 -226 l 443 -249 q 371 -340 443 -340 l 371 -431 q 516 -374 467 -431 q 565 -219 565 -317 q 538 -56 565 -139 "},"ș":{"ha":775,"x_min":44,"x_max":715,"o":"m 401 -11 q 567 19 496 -11 q 677 103 639 50 q 715 225 715 157 q 673 353 714 306 q 578 423 632 401 q 438 467 524 444 q 327 500 363 483 q 292 550 292 517 q 314 594 292 578 q 378 610 336 610 q 456 586 426 610 q 492 522 486 563 l 711 522 q 615 714 699 642 q 385 786 531 786 q 215 754 286 786 q 106 667 143 722 q 69 546 69 613 q 110 420 69 467 q 206 352 150 374 q 344 311 261 331 q 457 276 422 292 q 492 226 492 260 q 467 181 492 199 q 399 164 443 164 q 317 189 350 164 q 279 254 283 214 l 44 254 q 96 119 50 179 q 221 24 142 58 q 401 -11 300 -11 m 474 -56 l 292 -56 l 292 -226 l 379 -226 l 379 -249 q 307 -340 379 -340 l 307 -431 q 452 -374 403 -431 q 501 -219 501 -317 q 474 -56 501 -139 "},"Ț":{"ha":821,"x_min":33,"x_max":788,"o":"m 788 975 l 33 975 l 33 785 l 292 785 l 292 0 l 529 0 l 529 785 l 788 785 l 788 975 m 500 -56 l 318 -56 l 318 -226 l 406 -226 l 406 -249 q 332 -340 406 -340 l 332 -431 q 477 -374 428 -431 q 526 -219 526 -317 q 500 -56 526 -140 "},"ț":{"ha":564,"x_min":29,"x_max":518,"o":"m 518 201 l 433 201 q 378 217 394 201 q 361 267 361 232 l 361 578 l 517 578 l 517 775 l 361 775 l 361 964 l 124 964 l 124 775 l 29 775 l 29 578 l 124 578 l 124 269 q 196 63 124 126 q 397 0 268 0 l 518 0 l 518 201 m 376 -56 l 194 -56 l 194 -226 l 282 -226 l 282 -249 q 210 -340 282 -340 l 210 -431 q 355 -374 306 -431 q 404 -219 404 -317 q 376 -56 404 -139 "},"ə":{"ha":856,"x_min":39,"x_max":817,"o":"m 425 786 q 254 751 331 786 q 127 656 178 717 q 57 518 76 594 l 310 518 q 433 593 344 593 q 534 555 493 593 q 581 444 575 517 l 43 444 q 39 375 39 410 q 88 171 39 258 q 225 36 138 83 q 425 -11 313 -11 q 629 38 540 -11 q 767 176 718 86 q 817 388 817 267 q 767 599 817 508 q 628 738 717 689 q 425 786 539 786 m 428 179 q 324 215 365 179 q 282 313 282 251 l 579 313 q 528 214 569 249 q 428 179 488 179 "},"ʼ":{"ha":436,"x_min":68,"x_max":383,"o":"m 140 975 l 68 603 l 228 603 l 383 975 l 140 975 "},"ˆ":{"ha":458,"x_min":14,"x_max":444,"o":"m 229 942 l 444 828 l 444 992 l 229 1101 l 14 992 l 14 828 l 229 942 "},"ˇ":{"ha":458,"x_min":14,"x_max":444,"o":"m 444 938 l 444 1101 l 229 981 l 14 1101 l 14 938 l 229 828 l 444 938 "},"ˉ":{"ha":583,"x_min":14,"x_max":569,"o":"m 569 1036 l 14 1036 l 14 872 l 569 872 l 569 1036 "},"˘":{"ha":500,"x_min":14,"x_max":488,"o":"m 488 1071 l 488 1099 l 368 1099 q 342 1029 368 1053 q 250 1006 315 1006 q 158 1029 185 1006 q 132 1099 132 1053 l 14 1099 l 14 1072 q 78 895 14 958 q 250 832 143 832 q 422 894 357 832 q 488 1071 488 957 "},"˙":{"ha":232,"x_min":14,"x_max":218,"o":"m 115 861 q 188 890 158 861 q 218 963 218 919 q 189 1036 218 1007 q 115 1065 160 1065 q 43 1035 72 1065 q 14 963 14 1006 q 43 890 14 919 q 115 861 72 861 "},"˚":{"ha":364,"x_min":13,"x_max":353,"o":"m 353 1000 q 303 1122 353 1076 q 182 1168 254 1168 q 61 1122 110 1168 q 13 1000 13 1076 q 61 878 13 924 q 182 832 110 832 q 303 878 254 832 q 353 1000 353 924 m 249 1000 q 230 951 249 971 q 182 932 211 932 q 135 951 154 932 q 117 1000 117 971 q 135 1049 117 1031 q 182 1068 154 1068 q 230 1049 211 1068 q 249 1000 249 1031 "},"˛":{"ha":375,"x_min":19,"x_max":361,"o":"m 351 0 l 301 107 l 246 83 q 69 -24 119 31 q 19 -143 19 -78 q 77 -260 19 -219 q 225 -301 135 -301 q 361 -281 296 -301 l 361 -147 q 256 -168 303 -168 q 210 -156 226 -168 q 194 -122 194 -143 q 215 -78 194 -99 q 288 -32 236 -58 l 351 0 "},"˜":{"ha":569,"x_min":7,"x_max":563,"o":"m 7 840 l 128 840 q 189 903 138 903 q 221 897 206 903 q 261 876 236 890 q 317 849 294 858 q 371 840 340 840 q 563 1046 529 840 l 440 1046 q 381 983 432 983 q 349 990 364 983 q 308 1010 333 996 q 252 1037 275 1028 q 199 1046 229 1046 q 7 840 40 1046 "},"˝":{"ha":615,"x_min":14,"x_max":596,"o":"m 160 835 l 306 1125 l 118 1125 l 14 835 l 160 835 m 428 835 l 596 1125 l 407 1125 l 282 835 l 428 835 "},"π":{"ha":982,"x_min":28,"x_max":954,"o":"m 954 775 l 28 775 l 28 594 l 125 594 l 125 0 l 363 0 l 363 594 l 619 594 l 619 0 l 857 0 l 857 594 l 954 594 l 954 775 "},"Ẁ":{"ha":1461,"x_min":35,"x_max":1428,"o":"m 1428 975 l 1172 975 l 1031 265 l 864 975 l 603 975 l 429 265 l 289 975 l 35 975 l 282 0 l 569 0 l 731 642 l 886 0 l 1174 0 l 1428 975 m 872 1192 l 538 1353 l 538 1168 l 872 1028 l 872 1192 "},"ẁ":{"ha":1203,"x_min":6,"x_max":1199,"o":"m 1199 775 l 975 775 l 867 224 l 735 775 l 483 775 l 353 221 l 243 775 l 6 775 l 217 0 l 478 0 l 604 503 l 726 0 l 989 0 l 1199 775 m 738 992 l 403 1153 l 403 968 l 738 828 l 738 992 "},"Ẃ":{"ha":1461,"x_min":35,"x_max":1428,"o":"m 1428 975 l 1172 975 l 1031 265 l 864 975 l 603 975 l 429 265 l 289 975 l 35 975 l 282 0 l 569 0 l 731 642 l 886 0 l 1174 0 l 1428 975 m 932 1172 l 932 1357 l 597 1196 l 597 1032 l 932 1172 "},"ẃ":{"ha":1203,"x_min":6,"x_max":1199,"o":"m 1199 775 l 975 775 l 867 224 l 735 775 l 483 775 l 353 221 l 243 775 l 6 775 l 217 0 l 478 0 l 604 503 l 726 0 l 989 0 l 1199 775 m 806 968 l 806 1153 l 471 992 l 471 828 l 806 968 "},"Ẅ":{"ha":1461,"x_min":35,"x_max":1428,"o":"m 1428 975 l 1172 975 l 1031 265 l 864 975 l 603 975 l 429 265 l 289 975 l 35 975 l 282 0 l 569 0 l 731 642 l 886 0 l 1174 0 l 1428 975 m 589 1063 q 662 1092 632 1063 q 692 1164 692 1121 q 663 1238 692 1208 q 589 1267 633 1267 q 517 1237 546 1267 q 488 1164 488 1207 q 517 1092 488 1121 q 589 1063 546 1063 m 867 1063 q 940 1092 910 1063 q 969 1164 969 1121 q 940 1238 969 1208 q 867 1267 911 1267 q 794 1237 824 1267 q 765 1164 765 1207 q 794 1092 765 1121 q 867 1063 824 1063 "},"ẅ":{"ha":1203,"x_min":6,"x_max":1199,"o":"m 1199 775 l 975 775 l 867 224 l 735 775 l 483 775 l 353 221 l 243 775 l 6 775 l 217 0 l 478 0 l 604 503 l 726 0 l 989 0 l 1199 775 m 463 861 q 535 890 506 861 q 565 963 565 919 q 536 1036 565 1007 q 463 1065 507 1065 q 390 1035 419 1065 q 361 963 361 1006 q 390 890 361 919 q 463 861 419 861 m 740 861 q 813 890 783 861 q 843 963 843 919 q 814 1036 843 1007 q 740 1065 785 1065 q 668 1035 697 1065 q 639 963 639 1006 q 668 890 639 919 q 740 861 697 861 "},"Ẽ":{"ha":751,"x_min":86,"x_max":683,"o":"m 324 785 l 683 785 l 683 975 l 86 975 l 86 0 l 683 0 l 683 190 l 324 190 l 324 404 l 642 404 l 642 588 l 324 588 l 324 785 m 100 1043 l 221 1043 q 282 1106 231 1106 q 314 1099 299 1106 q 354 1079 329 1093 q 410 1052 388 1061 q 464 1043 433 1043 q 656 1249 622 1043 l 533 1249 q 474 1186 525 1186 q 442 1192 457 1186 q 401 1213 426 1199 q 345 1240 368 1231 q 292 1249 322 1249 q 100 1043 133 1249 "},"ẽ":{"ha":856,"x_min":39,"x_max":817,"o":"m 817 400 q 767 604 817 517 q 631 739 718 692 q 431 786 543 786 q 226 738 315 786 q 88 599 138 689 q 39 388 39 508 q 89 176 39 267 q 228 38 139 86 q 431 -11 317 -11 q 601 24 525 -11 q 728 119 678 58 q 799 257 779 181 l 546 257 q 422 182 511 182 q 322 220 363 182 q 275 331 281 258 l 813 331 q 817 400 817 367 m 574 463 l 276 463 q 327 561 286 526 q 428 596 368 596 q 532 560 490 596 q 574 463 574 524 m 150 846 l 271 846 q 332 908 281 908 q 364 902 349 908 q 404 882 379 896 q 460 855 438 864 q 514 846 483 846 q 706 1051 672 846 l 583 1051 q 524 989 575 989 q 492 995 507 989 q 451 1015 476 1001 q 395 1042 418 1033 q 342 1051 372 1051 q 150 846 183 1051 "},"Ỳ":{"ha":932,"x_min":10,"x_max":922,"o":"m 922 975 l 656 975 l 468 567 l 279 975 l 10 975 l 347 322 l 347 0 l 585 0 l 585 322 l 922 975 m 628 1194 l 293 1356 l 293 1171 l 628 1031 l 628 1194 "},"ỳ":{"ha":878,"x_min":-1,"x_max":878,"o":"m 878 775 l 621 775 l 443 290 l 264 775 l -1 775 l 314 26 l 136 -368 l 392 -368 l 878 775 m 600 992 l 265 1153 l 265 968 l 600 828 l 600 992 "},"Ỹ":{"ha":932,"x_min":10,"x_max":922,"o":"m 922 975 l 656 975 l 468 567 l 279 975 l 10 975 l 347 322 l 347 0 l 585 0 l 585 322 l 922 975 m 189 1043 l 310 1043 q 371 1106 319 1106 q 403 1099 388 1106 q 443 1079 418 1093 q 499 1052 476 1061 q 553 1043 522 1043 q 744 1249 711 1043 l 622 1249 q 563 1186 614 1186 q 531 1192 546 1186 q 490 1213 515 1199 q 434 1240 457 1231 q 381 1249 411 1249 q 189 1043 222 1249 "},"ỹ":{"ha":878,"x_min":-1,"x_max":878,"o":"m 878 775 l 621 775 l 443 290 l 264 775 l -1 775 l 314 26 l 136 -368 l 392 -368 l 878 775 m 161 840 l 282 840 q 343 903 292 903 q 375 897 360 903 q 415 876 390 890 q 472 849 449 858 q 525 840 494 840 q 717 1046 683 840 l 594 1046 q 535 983 586 983 q 503 990 518 983 q 463 1010 488 996 q 406 1037 429 1028 q 353 1046 383 1046 q 161 840 194 1046 "},"–":{"ha":965,"x_min":97,"x_max":868,"o":"m 868 586 l 97 586 l 97 389 l 868 389 l 868 586 "},"—":{"ha":1292,"x_min":97,"x_max":1194,"o":"m 1194 586 l 97 586 l 97 389 l 1194 389 l 1194 586 "},"‘":{"ha":436,"x_min":53,"x_max":368,"o":"m 296 603 l 368 975 l 208 975 l 53 603 l 296 603 "},"’":{"ha":436,"x_min":68,"x_max":383,"o":"m 140 975 l 68 603 l 228 603 l 383 975 l 140 975 "},"‚":{"ha":406,"x_min":35,"x_max":350,"o":"m 107 226 l 35 -146 l 194 -146 l 350 226 l 107 226 "},"“":{"ha":751,"x_min":53,"x_max":683,"o":"m 296 603 l 368 975 l 208 975 l 53 603 l 296 603 m 611 603 l 683 975 l 525 975 l 369 603 l 611 603 "},"”":{"ha":751,"x_min":68,"x_max":699,"o":"m 140 975 l 68 603 l 228 603 l 383 975 l 140 975 m 456 975 l 383 603 l 543 603 l 699 975 l 456 975 "},"„":{"ha":722,"x_min":36,"x_max":665,"o":"m 108 226 l 36 -146 l 196 -146 l 351 226 l 108 226 m 424 226 l 351 -146 l 510 -146 l 665 226 l 424 226 "},"†":{"ha":908,"x_min":69,"x_max":839,"o":"m 839 594 l 839 775 l 549 757 l 572 1096 l 335 1096 l 358 757 l 69 775 l 69 594 l 358 613 l 335 -369 l 572 -369 l 549 613 l 839 594 "},"‡":{"ha":908,"x_min":69,"x_max":839,"o":"m 549 613 l 839 594 l 839 775 l 549 757 l 572 1096 l 335 1096 l 358 757 l 69 775 l 69 594 l 358 613 l 358 114 l 69 132 l 69 -49 l 358 -31 l 335 -369 l 572 -369 l 549 -31 l 839 -49 l 839 132 l 549 114 l 549 613 "},"•":{"ha":696,"x_min":139,"x_max":557,"o":"m 347 254 q 453 282 406 254 q 529 358 501 310 q 557 463 557 406 q 529 569 557 521 q 453 644 501 617 q 347 672 406 672 q 242 644 290 672 q 167 569 194 617 q 139 463 139 521 q 167 358 139 406 q 242 282 194 310 q 347 254 290 254 "},"…":{"ha":1056,"x_min":56,"x_max":1006,"o":"m 531 -11 q 631 26 592 -11 q 671 117 671 63 q 631 210 671 172 q 531 247 592 247 q 428 210 468 247 q 389 117 389 172 q 428 26 389 63 q 531 -11 468 -11 m 865 -11 q 966 26 926 -11 q 1006 117 1006 63 q 966 210 1006 172 q 865 247 926 247 q 763 210 803 247 q 724 117 724 172 q 763 26 724 63 q 865 -11 803 -11 m 197 -11 q 298 26 258 -11 q 338 117 338 63 q 298 210 338 172 q 197 247 258 247 q 95 210 135 247 q 56 117 56 172 q 95 26 56 63 q 197 -11 135 -11 "},"‰":{"ha":1638,"x_min":42,"x_max":1596,"o":"m 42 758 q 106 586 42 647 q 274 525 171 525 q 440 586 376 525 q 504 758 504 647 q 440 931 504 869 q 274 992 376 992 q 106 931 171 992 q 42 758 42 869 m 947 978 l 718 978 l 183 0 l 413 0 l 947 978 m 272 851 q 322 828 304 851 q 340 758 340 806 q 322 688 340 711 q 272 665 304 665 q 206 758 206 665 q 272 851 206 851 m 626 219 q 691 47 626 108 q 858 -14 756 -14 q 1025 47 961 -14 q 1089 219 1089 108 q 1025 392 1089 331 q 858 453 961 453 q 691 392 756 453 q 626 219 626 331 m 1133 219 q 1198 47 1133 108 q 1365 -14 1263 -14 q 1532 47 1468 -14 q 1596 219 1596 108 q 1532 392 1596 331 q 1365 453 1468 453 q 1198 392 1263 453 q 1133 219 1133 331 m 857 313 q 907 290 889 313 q 925 219 925 267 q 907 149 925 172 q 857 126 889 126 q 790 219 790 126 q 857 313 790 313 m 1364 313 q 1414 290 1396 313 q 1432 219 1432 267 q 1414 149 1432 172 q 1364 126 1396 126 q 1297 219 1297 126 q 1364 313 1297 313 "},"‹":{"ha":468,"x_min":63,"x_max":399,"o":"m 179 167 l 399 167 l 278 410 l 399 653 l 179 653 l 63 410 l 179 167 "},"›":{"ha":468,"x_min":69,"x_max":406,"o":"m 190 410 l 69 167 l 289 167 l 406 410 l 289 653 l 69 653 l 190 410 "},"⁄":{"ha":792,"x_min":14,"x_max":778,"o":"m 778 978 l 549 978 l 14 0 l 243 0 l 778 978 "},"€":{"ha":1106,"x_min":28,"x_max":1065,"o":"m 600 210 q 478 240 532 210 q 393 328 425 271 l 628 328 l 628 451 l 357 451 q 356 489 356 464 q 357 529 356 517 l 628 529 l 628 654 l 396 654 q 481 738 428 708 q 600 767 533 767 q 721 735 668 767 q 804 644 774 704 l 1065 644 q 900 894 1024 803 q 603 986 776 986 q 308 897 432 986 q 138 654 183 807 l 28 654 l 28 529 l 115 529 q 114 489 114 515 q 115 451 114 464 l 28 451 l 28 328 l 136 328 q 306 83 182 174 q 603 -7 431 -7 q 900 84 776 -7 q 1065 333 1024 175 l 804 333 q 721 242 774 274 q 600 210 668 210 "},"₺":{"ha":1158,"x_min":14,"x_max":1071,"o":"m 1071 633 l 829 633 q 807 410 829 500 q 722 265 785 319 q 542 211 660 211 q 433 221 479 211 l 433 383 l 619 417 l 619 564 l 433 531 l 433 611 l 619 644 l 619 792 l 433 757 l 433 982 l 192 982 l 192 711 l 14 678 l 14 535 l 192 567 l 192 488 l 17 456 l 17 308 l 192 340 l 192 29 q 543 -11 400 -11 q 849 56 733 -11 q 1018 265 965 124 q 1071 633 1071 406 "},"₽":{"ha":936,"x_min":25,"x_max":899,"o":"m 393 378 l 540 378 q 740 418 660 378 q 860 526 821 458 q 899 676 899 593 q 858 830 899 763 q 737 936 818 897 q 540 975 656 975 l 156 975 l 156 560 l 25 560 l 25 378 l 156 378 l 156 294 l 25 294 l 25 114 l 156 114 l 156 0 l 393 0 l 393 114 l 608 114 l 608 294 l 393 294 l 393 378 m 393 560 l 393 794 l 531 794 q 625 762 593 794 q 657 676 657 729 q 625 591 657 622 q 531 560 593 560 l 393 560 "},"ℓ":{"ha":410,"x_min":86,"x_max":324,"o":"m 324 1028 l 86 1028 l 86 0 l 324 0 l 324 1028 "},"™":{"ha":1226,"x_min":38,"x_max":1164,"o":"m 38 981 l 38 843 l 153 843 l 151 493 l 324 493 l 322 843 l 438 843 l 438 981 l 38 981 m 1164 981 l 951 981 l 838 701 l 739 981 l 508 981 l 508 493 l 660 493 l 660 786 l 774 493 l 889 493 l 1003 772 l 1007 493 l 1164 493 l 1164 981 "},"Ω":{"ha":1094,"x_min":49,"x_max":1046,"o":"m 1046 513 q 980 764 1046 656 q 800 931 914 872 q 547 989 686 989 q 294 931 408 989 q 115 764 181 872 q 49 513 49 656 q 190 181 49 296 l 56 181 l 56 0 l 431 0 l 431 186 q 290 485 290 303 q 360 695 290 619 q 547 771 429 771 q 735 695 665 771 q 804 485 804 619 q 664 186 804 303 l 664 0 l 1039 0 l 1039 181 l 906 181 q 1046 513 1046 294 "},"℮":{"ha":1039,"x_min":49,"x_max":990,"o":"m 950 186 l 868 281 q 711 167 793 206 q 532 128 629 128 q 313 199 410 128 l 313 444 l 990 444 l 990 532 q 935 758 990 653 q 772 926 879 863 q 519 990 665 990 q 266 922 372 990 q 104 734 160 853 q 49 467 49 615 q 111 210 49 318 q 283 47 174 103 q 532 -10 393 -10 q 950 186 767 -10 m 724 797 l 724 567 l 313 567 l 313 788 q 519 857 394 857 q 724 797 647 857 "},"∂":{"ha":854,"x_min":47,"x_max":807,"o":"m 47 346 q 90 149 47 229 q 207 30 133 69 q 372 -10 281 -10 q 600 59 501 -10 q 753 257 699 128 q 807 563 807 386 q 713 903 807 778 q 443 1028 619 1028 q 282 1004 365 1028 l 282 883 q 374 893 329 893 q 579 719 544 893 q 426 779 521 779 q 235 724 322 779 q 98 570 149 669 q 47 346 47 471 m 553 439 q 510 263 553 333 q 396 193 467 193 q 317 231 347 193 q 288 347 288 269 q 331 515 288 450 q 446 581 374 581 q 524 544 494 581 q 553 439 553 508 "},"∆":{"ha":1021,"x_min":28,"x_max":993,"o":"m 607 978 l 414 978 l 28 181 l 28 0 l 993 0 l 993 181 l 607 978 m 272 181 l 511 708 l 749 181 l 272 181 "},"∏":{"ha":1038,"x_min":28,"x_max":1010,"o":"m 1010 978 l 28 978 l 28 797 l 125 797 l 125 0 l 363 0 l 363 797 l 675 797 l 675 0 l 913 0 l 913 797 l 1010 797 l 1010 978 "},"∑":{"ha":744,"x_min":56,"x_max":689,"o":"m 689 797 l 689 978 l 56 978 l 56 701 l 382 464 l 56 207 l 56 -69 l 689 -69 l 689 111 l 267 111 l 608 379 l 608 560 l 275 797 l 689 797 "},"−":{"ha":754,"x_min":72,"x_max":683,"o":"m 683 586 l 72 586 l 72 389 l 683 389 l 683 586 "},"∕":{"ha":629,"x_min":14,"x_max":615,"o":"m 615 1319 l 386 1319 l 14 -260 l 243 -260 l 615 1319 "},"∙":{"ha":415,"x_min":69,"x_max":351,"o":"m 211 308 q 312 345 272 308 q 351 436 351 382 q 312 529 351 492 q 211 567 272 567 q 109 529 149 567 q 69 436 69 492 q 109 345 69 382 q 211 308 149 308 "},"√":{"ha":1292,"x_min":28,"x_max":1264,"o":"m 1264 1256 l 1119 1256 l 536 213 l 350 546 l 28 356 l 94 244 l 208 311 l 415 -57 l 531 -57 l 1264 1256 "},"∞":{"ha":1079,"x_min":42,"x_max":1038,"o":"m 785 722 q 648 688 710 722 q 544 594 586 653 q 433 688 493 654 q 289 722 374 722 q 165 693 221 722 q 75 610 108 664 q 42 482 42 556 q 110 306 42 369 q 294 243 178 243 q 428 276 367 243 q 529 363 489 308 q 647 275 585 307 q 790 243 708 243 q 915 272 858 243 q 1004 356 971 301 q 1038 483 1038 410 q 969 659 1038 596 q 785 722 901 722 m 308 401 q 251 422 272 401 q 229 482 229 443 q 251 542 229 521 q 308 564 274 564 q 370 540 340 564 q 438 471 400 517 q 377 419 411 438 q 308 401 343 401 m 771 401 q 699 422 731 401 q 633 482 667 443 q 695 542 658 521 q 771 564 732 564 q 828 543 807 564 q 850 483 850 522 q 828 423 850 444 q 771 401 806 401 "},"∫":{"ha":406,"x_min":-69,"x_max":475,"o":"m 144 1053 l 24 -114 q -26 -168 17 -168 l -50 -168 l -69 -369 l -46 -369 q 166 -312 86 -369 q 261 -114 246 -254 l 382 1053 q 432 1107 389 1107 l 456 1107 l 475 1308 l 451 1308 q 240 1251 319 1308 q 144 1053 160 1193 "},"≈":{"ha":883,"x_min":39,"x_max":846,"o":"m 39 169 l 213 169 q 301 261 226 261 q 349 251 326 261 q 407 222 372 242 q 488 183 453 197 q 568 169 524 169 q 749 243 676 169 q 846 471 821 317 l 669 471 q 582 379 657 379 q 533 389 557 379 q 476 418 510 399 q 395 458 431 444 q 315 471 360 471 q 135 397 207 471 q 39 169 64 324 m 39 517 l 213 517 q 301 608 226 608 q 349 599 326 608 q 407 569 372 589 q 488 531 453 544 q 568 517 524 517 q 749 590 676 517 q 846 818 821 664 l 669 818 q 582 726 657 726 q 533 736 557 726 q 476 765 510 746 q 395 805 431 792 q 315 818 360 818 q 135 744 207 818 q 39 517 64 671 "},"≠":{"ha":951,"x_min":94,"x_max":872,"o":"m 768 768 l 872 903 l 740 903 l 636 768 l 94 768 l 94 558 l 474 558 l 363 414 l 94 414 l 94 204 l 200 204 l 94 68 l 228 68 l 333 204 l 872 204 l 872 414 l 494 414 l 607 558 l 872 558 l 872 768 l 768 768 "},"≤":{"ha":721,"x_min":71,"x_max":651,"o":"m 369 536 l 651 793 l 353 793 l 71 536 l 353 279 l 651 279 l 369 536 m 94 182 l 94 0 l 647 0 l 647 182 l 94 182 "},"≥":{"ha":721,"x_min":71,"x_max":651,"o":"m 71 279 l 368 279 l 651 536 l 368 793 l 71 793 l 351 536 l 71 279 m 74 182 l 74 0 l 626 0 l 626 182 l 74 182 "},"◊":{"ha":785,"x_min":28,"x_max":757,"o":"m 757 490 l 393 854 l 28 490 l 393 125 l 757 490 m 261 490 l 393 622 l 525 490 l 393 357 l 261 490 "},"ﬁ":{"ha":913,"x_min":24,"x_max":832,"o":"m 347 775 l 347 782 q 372 867 347 843 q 460 886 397 890 l 460 1088 q 422 1089 447 1089 q 190 1015 269 1089 q 110 797 110 940 l 110 775 l 24 775 l 24 578 l 110 578 l 110 0 l 347 0 l 347 578 l 571 578 l 571 0 l 808 0 l 808 775 l 347 775 m 690 842 q 793 876 754 842 q 832 965 832 911 q 792 1055 832 1019 q 690 1090 753 1090 q 589 1055 628 1090 q 550 965 550 1019 q 589 876 550 911 q 690 842 628 842 "},"ﬂ":{"ha":910,"x_min":24,"x_max":824,"o":"m 475 578 l 475 775 l 347 775 l 347 782 q 375 867 347 843 q 471 886 403 890 l 471 1088 q 432 1089 458 1089 q 192 1015 274 1089 q 110 797 110 940 l 110 775 l 24 775 l 24 578 l 110 578 l 110 0 l 347 0 l 347 578 l 475 578 m 824 1028 l 586 1028 l 586 0 l 824 0 l 824 1028 "}}}
